<svg width="33" height="32" viewBox="0 0 33 32" fill="none" xmlns="http://www.w3.org/2000/svg">
<path d="M10.1876 12.7857V23.5M23.0448 23.5V18.1429C23.0448 17.0062 22.5933 15.9161 21.7895 15.1124C20.9858 14.3087 19.8957 13.8571 18.7591 13.8571C17.6224 13.8571 16.5323 14.3087 15.7286 15.1124C14.9249 15.9161 14.4734 17.0062 14.4734 18.1429M14.4734 18.1429V23.5M14.4734 18.1429V12.7857M9.11621 9.57143H11.2591M3.75907 1H29.4734C30.0417 1 30.5867 1.22576 30.9886 1.62763C31.3904 2.02949 31.6162 2.57454 31.6162 3.14286V28.8571C31.6162 29.4255 31.3904 29.9705 30.9886 30.3724C30.5867 30.7742 30.0417 31 29.4734 31H3.75907C3.19075 31 2.6457 30.7742 2.24384 30.3724C1.84198 29.9705 1.61621 29.4255 1.61621 28.8571V3.14286C1.61621 2.57454 1.84198 2.02949 2.24384 1.62763C2.6457 1.22576 3.19075 1 3.75907 1Z" stroke="#211539" stroke-width="2"/>
</svg>
