<svg width="33" height="32" viewBox="0 0 33 32" fill="none" xmlns="http://www.w3.org/2000/svg">
<path d="M10.1874 12.7857V23.5M23.0445 23.5V18.1429C23.0445 17.0062 22.593 15.9161 21.7893 15.1124C20.9856 14.3087 19.8955 13.8571 18.7588 13.8571C17.6222 13.8571 16.5321 14.3087 15.7284 15.1124C14.9246 15.9161 14.4731 17.0062 14.4731 18.1429M14.4731 18.1429V23.5M14.4731 18.1429V12.7857M9.11597 9.57143H11.2588M3.75882 1H29.4731C30.0414 1 30.5865 1.22576 30.9883 1.62763C31.3902 2.02949 31.616 2.57454 31.616 3.14286V28.8571C31.616 29.4255 31.3902 29.9705 30.9883 30.3724C30.5865 30.7742 30.0414 31 29.4731 31H3.75882C3.1905 31 2.64546 30.7742 2.2436 30.3724C1.84173 29.9705 1.61597 29.4255 1.61597 28.8571V3.14286C1.61597 2.57454 1.84173 2.02949 2.2436 1.62763C2.64546 1.22576 3.1905 1 3.75882 1Z" stroke="white" stroke-width="2"/>
</svg>
