<svg width="24" height="30" viewBox="0 0 24 30" fill="none" xmlns="http://www.w3.org/2000/svg">
<path fill-rule="evenodd" clip-rule="evenodd" d="M14 0H16V2C16 4.12173 16.8429 6.15656 18.3431 7.65685C19.8434 9.15714 21.8783 10 24 10V12C22.4473 12.0012 20.9158 11.6403 19.527 10.946C18.1383 10.2516 16.9306 9.24288 16 8V22C16 23.5822 15.5308 25.129 14.6518 26.4446C13.7727 27.7602 12.5233 28.7855 11.0615 29.391C9.59966 29.9965 7.99113 30.155 6.43928 29.8463C4.88743 29.5376 3.46197 28.7757 2.34315 27.6569C1.22433 26.538 0.462403 25.1126 0.153721 23.5607C-0.15496 22.0089 0.00346625 20.4003 0.608967 18.9385C1.21447 17.4767 2.23985 16.2273 3.55544 15.3482C4.87103 14.4692 6.41775 14 8 14V16C6.81331 16 5.65328 16.3519 4.66658 17.0112C3.67989 17.6705 2.91085 18.6075 2.45673 19.7039C2.0026 20.8003 1.88378 22.0067 2.11529 23.1705C2.3468 24.3344 2.91825 25.4035 3.75736 26.2426C4.59648 27.0818 5.66557 27.6532 6.82946 27.8847C7.99335 28.1162 9.19975 27.9974 10.2961 27.5433C11.3925 27.0891 12.3295 26.3201 12.9888 25.3334C13.6481 24.3467 14 23.1867 14 22V0Z" fill="#211539"/>
</svg>
