<svg width="35" height="30" viewBox="0 0 35 30" fill="none" xmlns="http://www.w3.org/2000/svg">
<path d="M33.4119 1.15412L34.5657 1.07797C34.5507 0.851449 34.4692 0.634379 34.3315 0.453937C34.1937 0.273494 34.0058 0.137698 33.7912 0.0635488C33.5767 -0.0106005 33.345 -0.0198079 33.1252 0.0370794C32.9055 0.0939667 32.7074 0.214421 32.5557 0.383361L33.4119 1.15412V1.15412ZM32.2626 7.98252C32.2626 7.6765 32.1411 7.38302 31.9247 7.16663C31.7083 6.95025 31.4148 6.82868 31.1088 6.82868C30.8028 6.82868 30.5093 6.95025 30.2929 7.16663C30.0765 7.38302 29.955 7.6765 29.955 7.98252H32.2626ZM17.2859 8.17175H16.132H17.2859ZM17.2859 10.3848H18.4397H17.2859ZM1.15525 26.5385V25.3847C0.907496 25.3844 0.666224 25.4638 0.467127 25.6113C0.268029 25.7587 0.12168 25.9663 0.0497288 26.2034C-0.0222221 26.4405 -0.015953 26.6944 0.0676085 26.9277C0.15117 27.1609 0.307586 27.361 0.513717 27.4985L1.15525 26.5385ZM3.4583 1.15412L4.5406 0.750281C4.46195 0.539608 4.32345 0.35651 4.14214 0.223496C3.96082 0.0904815 3.74459 0.013349 3.52002 0.00158131C3.29545 -0.0101864 3.07234 0.0439236 2.87811 0.157259C2.68389 0.270594 2.52701 0.438214 2.42677 0.639512L3.4583 1.15412V1.15412ZM12.6751 21.9231L13.4921 22.7378C13.6306 22.5987 13.7315 22.4266 13.785 22.2377C13.8385 22.0489 13.843 21.8494 13.7979 21.6584C13.7529 21.4673 13.6598 21.2909 13.5275 21.1458C13.3953 21.0007 13.2282 20.8918 13.0421 20.8293L12.6751 21.9231ZM29.3457 3.39949L28.4919 4.17486L28.9073 4.63409L29.5188 4.54178L29.3457 3.39949V3.39949ZM32.2626 1.23028C32.3803 3.02564 32.2696 4.11486 31.9788 4.93639C31.6973 5.73254 31.2034 6.38792 30.3103 7.24406L31.9073 8.9102C32.918 7.94098 33.698 6.99022 34.1549 5.70716C34.6003 4.44717 34.6903 2.98872 34.5634 1.07797L32.2603 1.23028H32.2626ZM32.2626 9.6625V7.98483H29.955V9.66481H32.2626V9.6625ZM16.132 8.17175V10.3848H18.4397V8.17175H16.132V8.17175ZM16.132 10.3848V11.5386H18.4397V10.3848H16.132V10.3848ZM24.2896 0.000288089C23.2172 0.000894012 22.1553 0.212736 21.1647 0.623718C20.1741 1.0347 19.2741 1.63677 18.5162 2.39556C17.7582 3.15435 17.1572 4.055 16.7473 5.04608C16.3374 6.03716 16.1268 7.09926 16.1274 8.17175H18.4351C18.4345 7.40211 18.5855 6.6399 18.8795 5.92865C19.1736 5.2174 19.6049 4.57105 20.1487 4.02652C20.6926 3.48198 21.3385 3.04994 22.0494 2.75506C22.7603 2.46019 23.5223 2.30826 24.2919 2.30796V0.000288089H24.2896ZM29.9527 9.6625C29.955 19.6224 21.8943 27.6923 11.9551 27.6923V30C23.1704 30 32.2626 20.8939 32.2626 9.6625H29.955H29.9527ZM2.37831 1.55796C3.63369 4.9087 8.34133 11.5386 17.2859 11.5386V9.23097C9.63363 9.23097 5.58828 3.5541 4.53829 0.750281L2.37601 1.55796H2.37831ZM2.42677 0.639512C0.0106446 5.47639 -0.36089 10.1702 1.39525 14.1671C3.14677 18.1524 6.91519 21.217 12.3105 23.017L13.0421 20.8293C8.06903 19.1678 4.92367 16.4632 3.50676 13.2371C2.09447 10.0225 2.29985 6.06023 4.49214 1.66873L2.42677 0.639512V0.639512ZM11.8582 21.1085C10.469 22.5001 6.29212 25.3847 1.15525 25.3847V27.6923C7.07673 27.6923 11.8098 24.4247 13.4921 22.7378L11.8582 21.1085V21.1085ZM30.2019 2.62642C29.4558 1.79901 28.5441 1.13765 27.526 0.685244C26.5079 0.232834 25.4061 -0.000529383 24.2919 0.000288089V2.30796C25.9558 2.30796 27.4535 3.02564 28.4919 4.17486L30.1996 2.62642H30.2019ZM29.5188 4.54178C31.357 4.24147 33.0357 3.31737 34.2726 1.92488L32.5557 0.383361C31.6759 1.37737 30.4818 2.03958 29.1727 2.2595L29.5188 4.54178V4.54178ZM0.513717 27.4985C4.3006 30.0231 8.26979 30 11.9551 30V27.6923C8.19364 27.6923 4.92137 27.6669 1.79678 25.5785L0.513717 27.4985V27.4985Z" fill="white"/>
</svg>
