<svg width="28" height="28" viewBox="0 0 28 28" fill="none" xmlns="http://www.w3.org/2000/svg">
<path d="M25 6.25C25 5.38805 24.6576 4.5614 24.0481 3.9519C23.4386 3.34241 22.612 3 21.75 3H6.25C5.38805 3 4.5614 3.34241 3.9519 3.9519C3.34241 4.5614 3 5.38805 3 6.25V21.75C3 22.612 3.34241 23.4386 3.9519 24.0481C4.5614 24.6576 5.38805 25 6.25 25H12.248L12.25 24.25V23.5H6.25C5.78587 23.5 5.34075 23.3156 5.01256 22.9874C4.68437 22.6592 4.5 22.2141 4.5 21.75V9.503H23.5V21.75C23.5 22.2141 23.3156 22.6592 22.9874 22.9874C22.6592 23.3156 22.2141 23.5 21.75 23.5H15.75V25H21.75C22.612 25 23.4386 24.6576 24.0481 24.0481C24.6576 23.4386 25 22.612 25 21.75V6.25ZM6.25 4.5H21.75C22.716 4.5 23.5 5.284 23.5 6.25V8.003H4.5V6.25C4.5 5.284 5.284 4.5 6.25 4.5ZM15.25 13.25C15.25 13.5815 15.1183 13.8995 14.8839 14.1339C14.6495 14.3683 14.3315 14.5 14 14.5C13.6685 14.5 13.3505 14.3683 13.1161 14.1339C12.8817 13.8995 12.75 13.5815 12.75 13.25C12.75 12.9185 12.8817 12.6005 13.1161 12.3661C13.3505 12.1317 13.6685 12 14 12C14.3315 12 14.6495 12.1317 14.8839 12.3661C15.1183 12.6005 15.25 12.9185 15.25 13.25ZM15.752 20.31C15.8247 20.3801 15.9109 20.4348 16.0053 20.4707C16.0997 20.5067 16.2004 20.5232 16.3013 20.5193C16.4022 20.5154 16.5013 20.4912 16.5927 20.4481C16.684 20.4049 16.7657 20.3438 16.8328 20.2683C16.8999 20.1928 16.9511 20.1045 16.9833 20.0088C17.0155 19.913 17.028 19.8118 17.0201 19.7111C17.0121 19.6104 16.984 19.5123 16.9372 19.4228C16.8905 19.3332 16.8261 19.2541 16.748 19.19L14.498 17.19C14.3607 17.0681 14.1836 17.0008 14 17.0008C13.8164 17.0008 13.6393 17.0681 13.502 17.19L11.252 19.19C11.1739 19.2541 11.1095 19.3332 11.0628 19.4228C11.016 19.5123 10.9879 19.6104 10.9799 19.7111C10.972 19.8118 10.9845 19.913 11.0167 20.0088C11.0489 20.1045 11.1001 20.1928 11.1672 20.2683C11.2343 20.3438 11.316 20.4049 11.4073 20.4481C11.4987 20.4912 11.5978 20.5154 11.6987 20.5193C11.7996 20.5232 11.9003 20.5067 11.9947 20.4707C12.0891 20.4348 12.1753 20.3801 12.248 20.31L13.25 19.42V25.25C13.25 25.4489 13.329 25.6397 13.4697 25.7803C13.6103 25.921 13.8011 26 14 26C14.1989 26 14.3897 25.921 14.5303 25.7803C14.671 25.6397 14.75 25.4489 14.75 25.25V19.42L15.752 20.31Z" fill="#211539"/>
</svg>
