<svg width="32" height="32" viewBox="0 0 32 32" fill="none" xmlns="http://www.w3.org/2000/svg">
<path d="M10.3998 9.59999C10.1876 9.59999 9.98415 9.68427 9.83412 9.8343C9.68409 9.98433 9.5998 10.1878 9.5998 10.4C9.5998 10.6122 9.68409 10.8156 9.83412 10.9657C9.98415 11.1157 10.1876 11.2 10.3998 11.2H21.5998C21.812 11.2 22.0155 11.1157 22.1655 10.9657C22.3155 10.8156 22.3998 10.6122 22.3998 10.4C22.3998 10.1878 22.3155 9.98433 22.1655 9.8343C22.0155 9.68427 21.812 9.59999 21.5998 9.59999H10.3998ZM9.5998 4.79999C8.32677 4.79999 7.10587 5.3057 6.20569 6.20588C5.30552 7.10605 4.7998 8.32695 4.7998 9.59999V22.4C4.7998 23.673 5.30552 24.8939 6.20569 25.7941C7.10587 26.6943 8.32677 27.2 9.5998 27.2H22.3998C23.6728 27.2 24.8937 26.6943 25.7939 25.7941C26.6941 24.8939 27.1998 23.673 27.1998 22.4V9.59999C27.1998 8.32695 26.6941 7.10605 25.7939 6.20588C24.8937 5.3057 23.6728 4.79999 22.3998 4.79999H9.5998ZM6.3998 9.59999C6.3998 8.7513 6.73695 7.93736 7.33706 7.33725C7.93718 6.73713 8.75111 6.39999 9.5998 6.39999H22.3998C23.2485 6.39999 24.0624 6.73713 24.6625 7.33725C25.2627 7.93736 25.5998 8.7513 25.5998 9.59999V22.4C25.5998 23.2487 25.2627 24.0626 24.6625 24.6627C24.0624 25.2628 23.2485 25.6 22.3998 25.6H9.5998C8.75111 25.6 7.93718 25.2628 7.33706 24.6627C6.73695 24.0626 6.3998 23.2487 6.3998 22.4V9.59999Z" fill="black"/>
</svg>
