<svg width="143" height="143" viewBox="0 0 143 143" fill="none" xmlns="http://www.w3.org/2000/svg">
<circle cx="71.1062" cy="71.1062" r="46.3154" transform="rotate(-32.9889 71.1062 71.1062)" fill="url(#paint0_radial_1318_13150)"/>
<circle cx="71.1062" cy="71.1062" r="46.3154" transform="rotate(-32.9889 71.1062 71.1062)" fill="url(#paint1_linear_1318_13150)" style="mix-blend-mode:difference"/>
<g style="mix-blend-mode:screen">
<circle cx="71.1062" cy="71.1062" r="46.3154" transform="rotate(-32.9889 71.1062 71.1062)" fill="url(#paint2_linear_1318_13150)" style="mix-blend-mode:difference"/>
</g>
<path d="M48.0905 75.9791L49.2575 77.3509L45.8278 80.2684L44.6608 78.8966L48.0905 75.9791ZM39.3167 71.5806L46.338 79.8344L44.6771 81.2473L37.6558 72.9936L39.3167 71.5806ZM48.7268 66.1162L52.72 74.4055L50.9683 75.8955L46.5263 65.4476L47.6204 64.5169L48.7268 66.1162ZM55.8945 71.705L48.3413 66.4441L46.9231 65.1101L48.0342 64.1649L57.6575 70.2052L55.8945 71.705ZM53.3383 68.5738L54.5101 69.9513L50.7857 73.1195L49.6139 71.742L53.3383 68.5738ZM55.1928 58.0753L62.2141 66.329L60.5644 67.7323L53.5432 59.4786L55.1928 58.0753ZM57.2449 56.3296L58.4167 57.7071L52.7026 62.568L51.5307 61.1905L57.2449 56.3296ZM61.0929 53.0562L68.1141 61.31L66.4645 62.7133L59.4432 54.4595L61.0929 53.0562ZM69.4419 45.9539L76.4632 54.2077L74.8589 55.5724L67.8751 52.6119L72.2682 57.7762L70.6923 59.1168L63.671 50.863L65.2526 49.5176L72.3073 52.5155L67.8659 47.2945L69.4419 45.9539ZM80.7056 42.3813L81.8774 43.7589C82.3725 44.3409 82.7347 44.9121 82.964 45.4727C83.1939 46.0262 83.3038 46.5613 83.2938 47.0779C83.2844 47.5875 83.1591 48.072 82.9179 48.5312C82.6804 48.9872 82.3406 49.4033 81.8985 49.7794C81.4563 50.1556 80.9892 50.4259 80.4973 50.5903C80.0091 50.7516 79.509 50.7992 78.9969 50.7332C78.4853 50.6603 77.9729 50.4676 77.4596 50.1551C76.9431 49.8389 76.4373 49.3898 75.9422 48.8078L74.7703 47.4303C74.2624 46.8332 73.8887 46.2522 73.6491 45.6873C73.4064 45.1186 73.2903 44.5725 73.3009 44.0489C73.3082 43.5215 73.429 43.0279 73.6632 42.5681C73.8942 42.1045 74.2308 41.6847 74.673 41.3085C75.1151 40.9324 75.5835 40.6675 76.0781 40.5138C76.5695 40.3564 77.0761 40.3163 77.5978 40.3936C78.1163 40.4671 78.6368 40.6692 79.1592 41C79.6822 41.3238 80.1976 41.7842 80.7056 42.3813ZM80.2278 45.1621L79.0463 43.7733C78.712 43.3803 78.3991 43.0699 78.1077 42.8423C77.8131 42.6108 77.5336 42.4545 77.2691 42.3733C77.0047 42.2922 76.7558 42.2791 76.5226 42.3342C76.2893 42.3893 76.065 42.5085 75.8496 42.6917C75.6342 42.875 75.4787 43.0789 75.3831 43.3035C75.2914 43.5249 75.2643 43.7726 75.3021 44.0467C75.3436 44.3175 75.4549 44.6169 75.6361 44.9448C75.8179 45.2657 76.076 45.6226 76.4103 46.0157L77.5918 47.4045C77.9133 47.7824 78.2165 48.0815 78.5014 48.3016C78.7864 48.5217 79.0579 48.6685 79.3159 48.7421C79.574 48.8157 79.8196 48.825 80.0528 48.7699C80.2866 48.7078 80.5112 48.5852 80.7266 48.4019C80.9383 48.2219 81.0916 48.0231 81.1866 47.8054C81.2821 47.5809 81.3124 47.3369 81.2773 47.0736C81.2422 46.8103 81.1389 46.5204 80.9674 46.2038C80.7958 45.8873 80.5493 45.5401 80.2278 45.1621ZM50.833 84.103L52.2898 82.8637L58.7765 87.0776L55.6514 80.004L56.9383 78.9094L61.6127 89.1596L60.3712 90.2157L50.833 84.103ZM50.2434 84.6045L51.6323 83.423L56.4771 88.6818L58.869 91.4936L57.2647 92.8583L50.2434 84.6045ZM56.3034 79.4495L57.6979 78.2632L64.7192 86.517L63.1206 87.8768L60.7287 85.0651L56.3034 79.4495ZM64.557 74.9688L68.5501 83.258L66.7985 84.7481L62.3565 74.3002L63.4506 73.3695L64.557 74.9688ZM71.7247 80.5575L64.1715 75.2967L62.7533 73.9626L63.8644 73.0175L73.4877 79.0578L71.7247 80.5575ZM69.1685 77.4263L70.3403 78.8039L66.6159 81.9721L65.4441 80.5946L69.1685 77.4263ZM69.0049 68.6446L70.4617 67.4053L76.9484 71.6192L73.8233 64.5456L75.1102 63.451L79.7846 73.7012L78.5431 74.7573L69.0049 68.6446ZM68.4153 69.1461L69.8042 67.9647L74.649 73.2235L77.0409 76.0352L75.4366 77.3999L68.4153 69.1461ZM74.4753 63.9911L75.8698 62.8048L82.8911 71.0586L81.2925 72.4184L78.9006 69.6067L74.4753 63.9911ZM80.1089 59.1987L87.1302 67.4524L85.4806 68.8557L78.4593 60.602L80.1089 59.1987ZM88.2527 52.2709L92.9322 58.1394L91.6114 59.263L86.5577 53.7128L88.2527 52.2709ZM92.8957 61.2092C92.6899 60.9674 92.5957 60.6958 92.613 60.3945C92.627 60.0894 92.7644 59.8259 93.0252 59.6041C93.2935 59.3758 93.5775 59.2808 93.8771 59.3191C94.1773 59.3504 94.4303 59.4869 94.636 59.7288C94.845 59.9744 94.9424 60.2498 94.9284 60.5549C94.9149 60.853 94.774 61.1162 94.5056 61.3444C94.2449 61.5662 93.9644 61.6615 93.6642 61.6303C93.3608 61.5952 93.1046 61.4549 92.8957 61.2092Z" fill="white"/>
<path fill-rule="evenodd" clip-rule="evenodd" d="M81.0401 95.3441C81.2101 95.3536 81.3788 95.3578 81.546 95.3568L81.5451 95.3722L92.6544 95.9936L92.727 94.6951L92.7279 94.6951L93.3031 84.4112L93.2881 84.4104C93.3067 84.2566 93.3205 84.101 93.3293 83.9437C93.517 80.5876 91.3597 77.7377 88.5108 77.5784C85.6619 77.419 83.2002 80.0106 83.0125 83.3667C83.0037 83.524 83 83.6802 83.0014 83.835L82.9863 83.8342L82.9351 84.7498L82.1417 84.7054L82.1409 84.7211C81.9748 84.7014 81.8067 84.6868 81.6368 84.6773C78.0113 84.4745 74.9386 86.698 74.7739 89.6435C74.6091 92.5891 77.4146 95.1413 81.0401 95.3441Z" fill="white"/>
<defs>
<radialGradient id="paint0_radial_1318_13150" cx="0" cy="0" r="1" gradientUnits="userSpaceOnUse" gradientTransform="translate(86.9461 32.6644) rotate(131.671) scale(82.3413 139.323)">
<stop stop-color="#2AD0CA"/>
<stop offset="0.229167" stop-color="#E1F664"/>
<stop offset="0.46875" stop-color="#FEB0FE"/>
<stop offset="0.682292" stop-color="#ABB3FC"/>
<stop offset="0.875" stop-color="#5DF7A4"/>
<stop offset="1" stop-color="#58C4F6"/>
</radialGradient>
<linearGradient id="paint1_linear_1318_13150" x1="-6.52104" y1="8.9718" x2="224.893" y2="141.721" gradientUnits="userSpaceOnUse">
<stop stop-color="white"/>
<stop offset="0.276042"/>
<stop offset="0.520833" stop-color="white"/>
<stop offset="0.776042"/>
<stop offset="1" stop-color="white"/>
</linearGradient>
<linearGradient id="paint2_linear_1318_13150" x1="-6.52104" y1="8.9718" x2="224.893" y2="141.721" gradientUnits="userSpaceOnUse">
<stop stop-color="white"/>
<stop offset="0.276042"/>
<stop offset="0.520833" stop-color="white"/>
<stop offset="0.776042"/>
<stop offset="1" stop-color="white"/>
</linearGradient>
</defs>
</svg>
