<svg width="28" height="28" viewBox="0 0 28 28" fill="none" xmlns="http://www.w3.org/2000/svg">
<path d="M27.9331 5.79547C27.9995 5.95531 28.017 6.13124 27.9833 6.30101C27.9497 6.47077 27.8664 6.62675 27.7441 6.74921L24.2442 10.2492C24.1628 10.3304 24.0662 10.3947 23.9599 10.4386C23.8536 10.4824 23.7397 10.5049 23.6247 10.5047H18.737L16.3693 12.8724C16.6362 13.4311 16.697 14.0663 16.5409 14.6655C16.3848 15.2647 16.0218 15.7895 15.5162 16.147C15.0107 16.5045 14.3949 16.6718 13.778 16.6193C13.161 16.5667 12.5824 16.2978 12.1445 15.8599C11.7067 15.422 11.4377 14.8435 11.3852 14.2265C11.3326 13.6095 11.4999 12.9938 11.8574 12.4882C12.215 11.9826 12.7397 11.6197 13.3389 11.4636C13.9382 11.3075 14.5733 11.3682 15.1321 11.6351L17.4998 9.26743V4.37974C17.4996 4.26476 17.522 4.15086 17.5659 4.04456C17.6097 3.93827 17.6741 3.84165 17.7553 3.76025L21.2552 0.260291C21.3776 0.137605 21.5337 0.0540188 21.7036 0.0201273C21.8735 -0.0137641 22.0497 0.00356605 22.2098 0.0699209C22.3699 0.136276 22.5066 0.248667 22.6027 0.392846C22.6989 0.537025 22.75 0.706499 22.7497 0.879783V5.25473H27.1247C27.2978 5.25476 27.467 5.30615 27.611 5.40241C27.7549 5.49867 27.867 5.63546 27.9331 5.79547ZM25.0124 7.00296H21.8747C21.6427 7.00296 21.4201 6.91077 21.256 6.74668C21.0919 6.58258 20.9997 6.36003 20.9997 6.12797V2.99376L19.2498 4.74373V8.75468H23.2625L25.0124 7.00471V7.00296ZM27.3119 9.65592C27.7581 11.0244 27.9996 12.4874 27.9996 14.0046C27.9986 16.9619 27.0612 19.8429 25.3217 22.2345C23.5822 24.6261 21.1301 26.4054 18.317 27.3174C15.5038 28.2293 12.4741 28.227 9.66235 27.3108C6.85058 26.3945 4.40118 24.6114 2.66537 22.2172C0.929555 19.8229 -0.00349569 16.9405 9.84177e-06 13.9832C0.00351537 11.026 0.943397 8.14574 2.68488 5.75561C4.42636 3.36547 6.87999 1.58819 9.69392 0.678629C12.5078 -0.230937 15.5375 -0.226069 18.3485 0.692535L16.9345 2.10827C14.3368 1.46776 11.6009 1.69533 9.14473 2.7562C6.68856 3.81706 4.64725 5.65288 3.33269 7.98315C2.01814 10.3134 1.50264 13.01 1.86496 15.6608C2.22728 18.3117 3.4475 20.771 5.33916 22.663C7.23083 24.555 9.68992 25.7757 12.3407 26.1386C14.9914 26.5014 17.6881 25.9864 20.0186 24.6723C22.3492 23.3583 24.1854 21.3173 25.2467 18.8613C26.3081 16.4054 26.5362 13.6695 25.8962 11.0717L27.3119 9.65592ZM22.5747 12.2546C22.9505 14.0975 22.7226 16.0124 21.9246 17.7155C21.1267 19.4186 19.8012 20.8193 18.1446 21.7099C16.4881 22.6005 14.5886 22.9336 12.7279 22.6599C10.8671 22.3861 9.14411 21.5201 7.8142 20.1902C6.48429 18.8603 5.61829 17.1373 5.34457 15.2765C5.07086 13.4158 5.40399 11.5164 6.29459 9.85982C7.18518 8.20327 8.58585 6.87778 10.289 6.07981C11.9921 5.28185 13.907 5.05389 15.7498 5.42973V7.2252C14.2631 6.84168 12.6916 6.95757 11.2773 7.55503C9.86299 8.15248 8.68433 9.19836 7.92288 10.5316C7.16142 11.8648 6.85941 13.4113 7.06336 14.9331C7.26731 16.4548 7.96591 17.8672 9.05155 18.9529C10.1372 20.0385 11.5497 20.7371 13.0714 20.9411C14.5931 21.145 16.1397 20.843 17.4729 20.0816C18.8061 19.3201 19.852 18.1414 20.4494 16.7271C21.0469 15.3128 21.1628 13.7413 20.7792 12.2546H22.5747Z" fill="white"/>
</svg>
