<svg width="26" height="17" viewBox="0 0 26 17" fill="none" xmlns="http://www.w3.org/2000/svg">
<path d="M2.05959 9.79834V9.80469C2.02391 9.93925 1.96206 10.0655 1.87757 10.1761C1.79308 10.2867 1.68762 10.3796 1.5672 10.4495C1.44678 10.5193 1.31378 10.5648 1.1758 10.5832C1.03781 10.6016 0.89755 10.5926 0.763033 10.5568C-0.150066 10.3153 0.0109447 9.26234 0.0109447 9.26234L0.0469601 9.13099C0.0469601 9.13099 0.102043 8.95303 0.146533 8.8238C0.690199 7.29947 1.49054 5.87934 2.51296 4.62481C4.41755 2.30711 7.61445 0 12.6863 0C17.7602 0 20.9571 2.30711 22.8575 4.62481C23.8799 5.87934 24.6802 7.29947 25.2239 8.8238C25.2696 8.95477 25.312 9.08687 25.351 9.21997L25.3574 9.24751L25.3616 9.25599V9.26022C25.4288 9.52984 25.3874 9.81507 25.2462 10.0544C25.1051 10.2938 24.8756 10.4681 24.6071 10.5398C24.3387 10.6115 24.0528 10.5748 23.8111 10.4377C23.5694 10.3006 23.3913 10.074 23.3151 9.80681L23.313 9.79834L23.296 9.74537C23.1758 9.37042 23.0343 9.0026 22.8723 8.64372C22.4404 7.68362 21.8849 6.78409 21.2198 5.96798C19.6457 4.05068 17.0166 2.11856 12.6863 2.11856C8.35595 2.11856 5.7247 4.05068 4.15273 5.96798C3.28945 7.02829 2.61248 8.22749 2.15069 9.51445C2.12451 9.59095 2.09979 9.66794 2.07654 9.74537L2.05959 9.79834Z" fill="#211539"/>
<path d="M12.687 6.35559C11.2823 6.35559 9.93517 6.9136 8.9419 7.90687C7.94864 8.90014 7.39063 10.2473 7.39062 11.652C7.39063 13.0567 7.94864 14.4038 8.9419 15.3971C9.93517 16.3904 11.2823 16.9484 12.687 16.9484C14.0917 16.9484 15.4389 16.3904 16.4321 15.3971C17.4254 14.4038 17.9834 13.0567 17.9834 11.652C17.9834 10.2473 17.4254 8.90014 16.4321 7.90687C15.4389 6.9136 14.0917 6.35559 12.687 6.35559ZM9.50918 11.652C9.50918 10.8092 9.84399 10.0009 10.44 9.40492C11.0359 8.80896 11.8442 8.47415 12.687 8.47415C13.5298 8.47415 14.3381 8.80896 14.9341 9.40492C15.5301 10.0009 15.8649 10.8092 15.8649 11.652C15.8649 12.4948 15.5301 13.3031 14.9341 13.8991C14.3381 14.495 13.5298 14.8298 12.687 14.8298C11.8442 14.8298 11.0359 14.495 10.44 13.8991C9.84399 13.3031 9.50918 12.4948 9.50918 11.652Z" fill="#211539"/>
</svg>
