<svg width="32" height="22" viewBox="0 0 32 22" fill="none" xmlns="http://www.w3.org/2000/svg">
<path d="M2.59547 12.3477V12.3557C2.55051 12.5253 2.47256 12.6844 2.36609 12.8238C2.25962 12.9632 2.12671 13.0803 1.97496 13.1683C1.82322 13.2563 1.65561 13.3136 1.48172 13.3368C1.30784 13.36 1.13108 13.3487 0.961564 13.3035C-0.189111 12.9992 0.0137924 11.6723 0.0137924 11.6723L0.0591785 11.5068C0.0591785 11.5068 0.128593 11.2825 0.184659 11.1196C0.86978 9.19869 1.87836 7.40906 3.1668 5.82813C5.56693 2.90739 9.59563 0 15.9871 0C22.3812 0 26.4099 2.90739 28.8047 5.82813C30.0931 7.40906 31.1017 9.19869 31.7868 11.1196C31.8444 11.2847 31.8978 11.4512 31.947 11.6189L31.955 11.6536L31.9604 11.6643V11.6696C32.0451 12.0094 31.9928 12.3688 31.815 12.6705C31.6371 12.9721 31.3479 13.1918 31.0096 13.2821C30.6712 13.3725 30.311 13.3263 30.0064 13.1535C29.7018 12.9807 29.4774 12.6952 29.3814 12.3584L29.3787 12.3477L29.3573 12.281C29.2058 11.8085 29.0276 11.345 28.8234 10.8927C28.2791 9.6828 27.579 8.54922 26.741 7.52077C24.7573 5.10462 21.4441 2.66978 15.9871 2.66978C10.5301 2.66978 7.21419 5.10462 5.23321 7.52077C4.14532 8.85696 3.29222 10.3682 2.71027 11.99C2.67728 12.0864 2.64613 12.1834 2.61683 12.281L2.59547 12.3477Z" fill="white"/>
<path d="M15.9874 8.00928C14.2173 8.00928 12.5196 8.71248 11.2679 9.96418C10.0162 11.2159 9.31299 12.9136 9.31299 14.6837C9.31299 16.4539 10.0162 18.1516 11.2679 19.4033C12.5196 20.655 14.2173 21.3582 15.9874 21.3582C17.7576 21.3582 19.4553 20.655 20.707 19.4033C21.9587 18.1516 22.6619 16.4539 22.6619 14.6837C22.6619 12.9136 21.9587 11.2159 20.707 9.96418C19.4553 8.71248 17.7576 8.00928 15.9874 8.00928ZM11.9828 14.6837C11.9828 13.6216 12.4047 12.603 13.1557 11.852C13.9067 11.101 14.9253 10.6791 15.9874 10.6791C17.0495 10.6791 18.0681 11.101 18.8192 11.852C19.5702 12.603 19.9921 13.6216 19.9921 14.6837C19.9921 15.7458 19.5702 16.7644 18.8192 17.5155C18.0681 18.2665 17.0495 18.6884 15.9874 18.6884C14.9253 18.6884 13.9067 18.2665 13.1557 17.5155C12.4047 16.7644 11.9828 15.7458 11.9828 14.6837Z" fill="white"/>
</svg>
