<svg width="24" height="28" viewBox="0 0 24 28" fill="none" xmlns="http://www.w3.org/2000/svg">
<path d="M12 13.5938C15.4777 13.5938 18.297 10.7746 18.297 7.29692C18.297 3.81922 15.4777 1 12 1C8.52235 1 5.70312 3.81922 5.70312 7.29692C5.70312 10.7746 8.52235 13.5938 12 13.5938Z" stroke="#211539" stroke-width="2"/>
<path d="M18.2969 16.1126H18.7402C19.6609 16.1129 20.5499 16.4493 21.24 17.0588C21.9301 17.6682 22.374 18.5087 22.4881 19.4223L22.9806 23.3566C23.0249 23.711 22.9933 24.0708 22.8879 24.4121C22.7825 24.7534 22.6057 25.0683 22.3693 25.3361C22.1329 25.6038 21.8422 25.8182 21.5166 25.965C21.191 26.1119 20.8379 26.1878 20.4807 26.1877H3.51931C3.16213 26.1878 2.80902 26.1119 2.4834 25.965C2.15779 25.8182 1.86713 25.6038 1.63071 25.3361C1.39429 25.0683 1.21752 24.7534 1.11214 24.4121C1.00675 24.0708 0.975149 23.711 1.01944 23.3566L1.5106 19.4223C1.62482 18.5082 2.06903 17.6674 2.75969 17.0579C3.45036 16.4484 4.3399 16.1123 5.26104 16.1126H5.70308" stroke="#211539" stroke-width="2" stroke-linecap="round" stroke-linejoin="round"/>
</svg>
