<svg width="916" height="57" viewBox="0 0 916 57" fill="none" xmlns="http://www.w3.org/2000/svg">
<path d="M25.5249 36.2134L24.7497 36.8451L24.7566 36.8535L24.7637 36.8618L25.5249 36.2134ZM23.1445 34.2358L22.6037 35.0771L22.6128 35.0827L23.1445 34.2358ZM19.1162 32.1851L19.5085 31.2652L19.5033 31.263L19.1162 32.1851ZM13.3667 29.5483L12.9101 30.4381L12.9195 30.4428L13.3667 29.5483ZM4.79736 21.8579L3.90294 22.3051L3.90679 22.3128L3.91078 22.3205L4.79736 21.8579ZM4.72412 9.73633L3.81328 9.32341L3.80881 9.33359L4.72412 9.73633ZM8.23975 5.04883L8.88955 5.80898L8.89653 5.80291L8.23975 5.04883ZM13.5498 2.00928L13.2235 1.06402L13.22 1.06524L13.5498 2.00928ZM29.2603 3.07129L28.7659 3.94059L28.7696 3.94264L29.2603 3.07129ZM35.083 8.89404L34.2084 9.37896L34.2121 9.38553L35.083 8.89404ZM37.1704 17.3901V18.3901H38.1704V17.3901H37.1704ZM26.4771 17.3901H25.4771V18.3901H26.4771V17.3901ZM25.8179 13.3984L24.8752 13.7323L24.8795 13.7442L24.884 13.7561L25.8179 13.3984ZM16.8091 10.5054L17.3305 11.3587L17.337 11.3547L16.8091 10.5054ZM14.8315 12.7393L13.9235 12.3202L13.9187 12.3309L14.8315 12.7393ZM14.8315 18.269L13.9688 18.7748L13.9792 18.7925L13.9904 18.8098L14.8315 18.269ZM16.626 20.1367L16.0301 20.9398L16.0386 20.9461L16.0472 20.9522L16.626 20.1367ZM19.2993 21.7114L18.8521 22.6059L18.8605 22.61L19.2993 21.7114ZM22.7417 23.2129L23.1082 22.2825L23.1068 22.2819L22.7417 23.2129ZM29.1504 26.3623L28.6244 27.2128L28.6326 27.2178L29.1504 26.3623ZM33.8013 30.1709L33.0503 30.8313L33.056 30.8377L33.8013 30.1709ZM36.4014 46.98L35.4816 46.5875L35.479 46.5936L36.4014 46.98ZM33.0688 51.6675L33.7309 52.417L33.7378 52.4108L33.0688 51.6675ZM27.7588 54.6704L27.4359 53.724L27.4325 53.7252L27.7588 54.6704ZM13.8794 54.707L13.5727 55.6589L13.5823 55.6619L13.8794 54.707ZM8.05664 51.521L7.40129 52.2763L7.4072 52.2814L7.41319 52.2865L8.05664 51.521ZM4.13818 46.0645L3.21903 46.4584L3.22063 46.4621L4.13818 46.0645ZM2.70996 38.1909V37.1909H1.70996V38.1909H2.70996ZM13.4399 38.1909H14.4399V37.1909H13.4399V38.1909ZM13.916 42.3291L12.9522 42.5957L12.9537 42.6011L13.916 42.3291ZM15.3809 45.0391L14.661 45.7332L14.6673 45.7397L14.6738 45.7462L15.3809 45.0391ZM17.7979 46.5405L17.46 47.4817L17.4743 47.4869L17.4888 47.4916L17.7979 46.5405ZM24.4995 46.2109L23.9673 45.3642L23.9563 45.3714L24.4995 46.2109ZM27.8799 40.9741C27.8799 39.9633 27.7893 39.0236 27.6004 38.1603L25.6466 38.5877C25.7996 39.287 25.8799 40.0807 25.8799 40.9741H27.8799ZM27.6004 38.1603C27.3916 37.2056 26.9451 36.3385 26.2861 35.5649L24.7637 36.8618C25.2277 37.4066 25.5137 37.98 25.6466 38.5877L27.6004 38.1603ZM26.3001 35.5817C25.6704 34.8089 24.7801 34.082 23.6763 33.389L22.6128 35.0827C23.6086 35.708 24.3052 36.2995 24.7497 36.8451L26.3001 35.5817ZM23.6853 33.3947C22.5961 32.6945 21.1982 31.9858 19.5085 31.2652L18.7239 33.1049C20.3545 33.8003 21.6422 34.4589 22.6038 35.077L23.6853 33.3947ZM19.5033 31.263C17.5454 30.4412 15.649 29.5714 13.8139 28.6539L12.9195 30.4428C14.7954 31.3807 16.732 32.2688 18.7292 33.1071L19.5033 31.263ZM13.8233 28.6586C12.0289 27.7379 10.4194 26.6794 8.99103 25.4853L7.70819 27.0196C9.25838 28.3157 10.9936 29.4545 12.9101 30.438L13.8233 28.6586ZM8.99103 25.4853C7.60051 24.3227 6.50064 22.9607 5.68395 21.3953L3.91078 22.3205C4.8519 24.1243 6.1202 25.692 7.70819 27.0196L8.99103 25.4853ZM5.69179 21.4107C4.91933 19.8658 4.51562 18.0226 4.51562 15.8521H2.51562C2.51562 18.2713 2.96641 20.4321 3.90294 22.3051L5.69179 21.4107ZM4.51562 15.8521C4.51562 13.7276 4.8961 11.8285 5.63944 10.1391L3.80881 9.33359C2.94082 11.3063 2.51562 13.4843 2.51562 15.8521H4.51562ZM5.6349 10.1492C6.40507 8.45031 7.48835 7.00673 8.88953 5.80895L7.58996 4.28871C5.9638 5.67881 4.70332 7.36024 3.81334 9.32344L5.6349 10.1492ZM8.89653 5.80291C10.3078 4.57374 11.9649 3.62231 13.8796 2.95331L13.22 1.06524C11.0819 1.81226 9.19904 2.8872 7.58297 4.29475L8.89653 5.80291ZM13.8761 2.95453C15.8067 2.28802 17.977 1.94727 20.3979 1.94727V-0.0527344C17.7896 -0.0527344 15.3944 0.31452 13.2235 1.06402L13.8761 2.95453ZM20.3979 1.94727C23.6761 1.94727 26.4531 2.6254 28.766 3.94058L29.7546 2.202C27.087 0.685143 23.9557 -0.0527344 20.3979 -0.0527344V1.94727ZM28.7696 3.94264C31.127 5.2701 32.9332 7.07896 34.2084 9.37895L35.9576 8.40914C34.4984 5.77749 32.4228 3.70451 29.7509 2.19994L28.7696 3.94264ZM34.2121 9.38553C35.5086 11.6828 36.1704 14.3414 36.1704 17.3901H38.1704C38.1704 14.0424 37.4406 11.037 35.9539 8.40255L34.2121 9.38553ZM37.1704 16.3901H26.4771V18.3901H37.1704V16.3901ZM27.4771 17.3901C27.4771 15.7816 27.2437 14.3255 26.7517 13.0408L24.884 13.7561C25.2709 14.7663 25.4771 15.9713 25.4771 17.3901H27.4771ZM26.7605 13.0646C26.2834 11.7175 25.494 10.6261 24.3829 9.83667L23.2245 11.467C23.9689 11.9959 24.5223 12.7356 24.8752 13.7323L26.7605 13.0646ZM24.3829 9.83667C23.2432 9.02686 21.8277 8.66309 20.2148 8.66309V10.6631C21.5317 10.6631 22.5088 10.9585 23.2245 11.467L24.3829 9.83667ZM20.2148 8.66309C18.7136 8.66309 17.3823 8.9716 16.2811 9.65609L17.337 11.3547C18.0425 10.9161 18.9818 10.6631 20.2148 10.6631V8.66309ZM16.2876 9.65209C15.2365 10.2944 14.4444 11.1917 13.9236 12.3202L15.7395 13.1583C16.0976 12.3825 16.6238 11.7905 17.3305 11.3587L16.2876 9.65209ZM13.9187 12.3309C13.4381 13.4053 13.209 14.5975 13.209 15.8887H15.209C15.209 14.8361 15.3949 13.9287 15.7444 13.1476L13.9187 12.3309ZM13.209 15.8887C13.209 16.9323 13.4575 17.9025 13.9688 18.7748L15.6942 17.7633C15.3755 17.2196 15.209 16.6029 15.209 15.8887H13.209ZM13.9904 18.8098C14.5046 19.6097 15.1916 20.3177 16.0301 20.9398L17.2218 19.3336C16.5467 18.8327 16.0374 18.2955 15.6727 17.7283L13.9904 18.8098ZM16.0472 20.9522C16.8542 21.5249 17.7911 22.0754 18.8521 22.6059L19.7465 20.817C18.7567 20.3221 17.9114 19.8227 17.2047 19.3212L16.0472 20.9522ZM18.8605 22.61C19.9376 23.136 21.11 23.6471 22.3766 24.1439L23.1068 22.2819C21.8832 21.8021 20.7607 21.3122 19.7382 20.8129L18.8605 22.61ZM22.3752 24.1433C24.7469 25.0776 26.8281 26.1019 28.6244 27.2128L29.6764 25.5118C27.7617 24.3278 25.5705 23.2525 23.1082 22.2825L22.3752 24.1433ZM28.6326 27.2178C30.4137 28.2958 31.8817 29.5023 33.0503 30.8312L34.5522 29.5106C33.2306 28.0075 31.598 26.6749 29.6682 25.5068L28.6326 27.2178ZM33.056 30.8377C34.2156 32.1337 35.0893 33.5973 35.6805 35.2347L37.5616 34.5554C36.8834 32.6771 35.8772 30.9913 34.5465 29.5041L33.056 30.8377ZM35.6805 35.2347C36.2689 36.8641 36.5732 38.7479 36.5732 40.9009H38.5732C38.5732 38.5617 38.2428 36.4416 37.5616 34.5554L35.6805 35.2347ZM36.5732 40.9009C36.5732 43.0033 36.2041 44.8942 35.4816 46.5875L37.3211 47.3724C38.1611 45.4037 38.5732 43.2418 38.5732 40.9009H36.5732ZM35.479 46.5936C34.7796 48.2632 33.7556 49.704 32.3999 50.9242L33.7378 52.4108C35.3117 50.9942 36.5094 49.3101 37.3237 47.3664L35.479 46.5936ZM32.4068 50.918C31.0523 52.1145 29.4013 53.0534 27.4359 53.724L28.0817 55.6168C30.2666 54.8714 32.1557 53.8083 33.7309 52.417L32.4068 50.918ZM27.4325 53.7252C25.5028 54.3913 23.3205 54.7324 20.874 54.7324V56.7324C23.5057 56.7324 25.9132 56.3655 28.0851 55.6157L27.4325 53.7252ZM20.874 54.7324C18.5017 54.7324 16.2709 54.4038 14.1765 53.7522L13.5823 55.6619C15.8824 56.3775 18.3147 56.7324 20.874 56.7324V54.7324ZM14.1861 53.7552C12.1059 53.085 10.2807 52.0841 8.70009 50.7555L7.41319 52.2865C9.20171 53.7899 11.2583 54.9131 13.5727 55.6588L14.1861 53.7552ZM8.71199 50.7657C7.17476 49.4319 5.95377 47.7392 5.05574 45.6668L3.22063 46.4621C4.22689 48.7842 5.61821 50.7292 7.40129 52.2763L8.71199 50.7657ZM5.05733 45.6705C4.17017 43.6005 3.70996 41.1159 3.70996 38.1909H1.70996C1.70996 41.3206 2.2019 44.0851 3.21904 46.4584L5.05733 45.6705ZM2.70996 39.1909H13.4399V37.1909H2.70996V39.1909ZM12.4399 38.1909C12.4399 39.8628 12.604 41.337 12.9522 42.5957L14.8798 42.0625C14.5932 41.0263 14.4399 39.7416 14.4399 38.1909H12.4399ZM12.9537 42.6011C13.3058 43.8468 13.8641 44.9068 14.661 45.7332L16.1007 44.3449C15.5792 43.8041 15.161 43.0575 14.8783 42.0571L12.9537 42.6011ZM14.6738 45.7462C15.4459 46.5183 16.381 47.0944 17.46 47.4817L18.1357 45.5993C17.3104 45.3031 16.6342 44.8782 16.088 44.332L14.6738 45.7462ZM17.4888 47.4916C18.5837 47.8474 19.8018 48.0166 21.1304 48.0166V46.0166C19.9687 46.0166 18.9651 45.8684 18.1069 45.5895L17.4888 47.4916ZM21.1304 48.0166C22.6598 48.0166 23.9951 47.7284 25.0428 47.0505L23.9563 45.3714C23.3438 45.7677 22.433 46.0166 21.1304 46.0166V48.0166ZM25.0317 47.0576C26.0571 46.413 26.8093 45.531 27.2573 44.426L25.4038 43.6746C25.1194 44.3762 24.6509 44.9347 23.9673 45.3643L25.0317 47.0576ZM27.2573 44.426C27.6797 43.3842 27.8799 42.2279 27.8799 40.9741H25.8799C25.8799 42.0152 25.7139 42.9098 25.4038 43.6746L27.2573 44.426ZM88.396 42.9883L87.4457 42.677L87.4441 42.682L88.396 42.9883ZM84.5142 50.0562L83.7652 49.3936L83.7646 49.3942L84.5142 50.0562ZM78.4717 54.3042L78.0986 53.3764L78.0953 53.3777L78.4717 54.3042ZM62.8345 54.3042L62.4581 55.2307L62.4614 55.232L62.8345 54.3042ZM56.7554 50.0562L56.0063 50.7188L56.0154 50.7288L56.7554 50.0562ZM52.8369 42.9883L51.8866 43.2996L51.8874 43.302L52.8369 42.9883ZM52.8003 14.0942L53.7545 14.3934L53.7552 14.3911L52.8003 14.0942ZM56.7188 6.84326L57.4672 7.50646L57.4713 7.50177L56.7188 6.84326ZM62.7979 2.44873L63.1825 3.37184L63.1906 3.36837L62.7979 2.44873ZM78.3984 2.44873L78.0057 3.36841L78.0138 3.37181L78.3984 2.44873ZM84.4775 6.84326L83.7249 7.50178L83.7291 7.50645L84.4775 6.84326ZM88.396 14.0942L87.441 14.3912L87.4441 14.4008L88.396 14.0942ZM78.5815 17.6465L77.6015 17.8451L77.602 17.8478L78.5815 17.6465ZM66.8994 10.6885L66.4522 9.79401L66.4439 9.79823L66.8994 10.6885ZM64.2261 13.2153L63.3832 12.6773L63.379 12.6837L63.375 12.6902L64.2261 13.2153ZM62.6147 17.6465L61.6346 17.4478L61.6326 17.4581L62.6147 17.6465ZM66.9727 46.0645L66.5172 46.9547L66.5295 46.961L66.5419 46.9669L66.9727 46.0645ZM74.2969 46.0645L74.7357 46.9631L74.7441 46.9589L74.2969 46.0645ZM88.7876 24.2017V33.1006H90.7876V24.2017H88.7876ZM88.7876 33.1006C88.7876 36.781 88.3332 39.9678 87.4457 42.677L89.3463 43.2996C90.3143 40.3447 90.7876 36.9397 90.7876 33.1006H88.7876ZM87.4441 42.682C86.5763 45.379 85.3447 47.608 83.7652 49.3936L85.2632 50.7187C87.0527 48.6957 88.409 46.2128 89.3479 43.2946L87.4441 42.682ZM83.7646 49.3942C82.2094 51.1552 80.325 52.4813 78.0986 53.3764L78.8447 55.232C81.3547 54.2228 83.4986 52.7168 85.2637 50.7181L83.7646 49.3942ZM78.0953 53.3777C75.8856 54.2754 73.4154 54.7324 70.6714 54.7324V56.7324C73.6403 56.7324 76.3703 56.2373 78.8481 55.2307L78.0953 53.3777ZM70.6714 54.7324C67.9276 54.7324 65.4438 54.2755 63.2075 53.3764L62.4614 55.232C64.9615 56.2372 67.7023 56.7324 70.6714 56.7324V54.7324ZM63.2108 53.3777C61.0064 52.4822 59.1041 51.1531 57.4953 49.3835L56.0154 50.7288C57.8246 52.719 59.9751 54.2219 62.4581 55.2307L63.2108 53.3777ZM57.5044 49.3936C55.923 47.606 54.6785 45.3742 53.7864 42.6745L51.8874 43.302C52.8508 46.2176 54.2186 48.6978 56.0064 50.7187L57.5044 49.3936ZM53.7872 42.677C52.8997 39.9678 52.4453 36.781 52.4453 33.1006H50.4453C50.4453 36.9397 50.9186 40.3447 51.8866 43.2996L53.7872 42.677ZM52.4453 33.1006V24.2017H50.4453V33.1006H52.4453ZM52.4453 24.2017C52.4453 20.419 52.8886 17.1549 53.7545 14.3934L51.8461 13.795C50.9053 16.7953 50.4453 20.2695 50.4453 24.2017H52.4453ZM53.7552 14.3911C54.624 11.5971 55.8677 9.31165 57.4672 7.50645L55.9703 6.18007C54.1519 8.2323 52.7833 10.7809 51.8454 13.7973L53.7552 14.3911ZM57.4713 7.50177C59.0818 5.66119 60.9832 4.28817 63.1825 3.37181L62.4132 1.52565C59.925 2.56242 57.7736 4.11908 55.9662 6.18476L57.4713 7.50177ZM63.1906 3.36837C65.396 2.42647 67.8604 1.94727 70.5981 1.94727V-0.0527344C67.623 -0.0527344 64.8872 0.469038 62.4051 1.52909L63.1906 3.36837ZM70.5981 1.94727C73.3359 1.94727 75.8002 2.42647 78.0057 3.36837L78.7912 1.52909C76.3091 0.469038 73.5733 -0.0527344 70.5981 -0.0527344V1.94727ZM78.0138 3.37181C80.2131 4.28817 82.1145 5.66119 83.725 7.50177L85.2301 6.18476C83.4226 4.11908 81.2713 2.56242 78.7831 1.52565L78.0138 3.37181ZM83.7291 7.50645C85.3286 9.31165 86.5723 11.5971 87.4411 14.3911L89.3509 13.7973C88.413 10.7809 87.0444 8.2323 85.226 6.18007L83.7291 7.50645ZM87.4441 14.4008C88.3326 17.1597 88.7876 20.4212 88.7876 24.2017H90.7876C90.7876 20.2673 90.3149 16.7905 89.3479 13.7877L87.4441 14.4008ZM80.1309 33.1006V24.1284H78.1309V33.1006H80.1309ZM80.1309 24.1284C80.1309 21.5461 79.9451 19.3139 79.5611 17.4452L77.602 17.8478C77.9505 19.5435 78.1309 21.6326 78.1309 24.1284H80.1309ZM79.5616 17.4478C79.1791 15.5606 78.594 13.9581 77.7765 12.6773L76.0907 13.7534C76.738 14.7675 77.2516 16.1191 77.6015 17.8451L79.5616 17.4478ZM77.7765 12.6773C76.9635 11.4035 75.9467 10.428 74.7157 9.79823L73.8048 11.5787C74.6734 12.0231 75.4389 12.7322 76.0907 13.7534L77.7765 12.6773ZM74.7157 9.79823C73.5016 9.17706 72.1197 8.88281 70.5981 8.88281V10.8828C71.8598 10.8828 72.9193 11.1257 73.8048 11.5787L74.7157 9.79823ZM70.5981 8.88281C69.0759 8.88281 67.6858 9.17727 66.4522 9.79405L67.3466 11.5829C68.2615 11.1255 69.3371 10.8828 70.5981 10.8828V8.88281ZM66.4439 9.79823C65.2129 10.428 64.1962 11.4035 63.3832 12.6773L65.069 13.7534C65.7208 12.7322 66.4863 12.0231 67.3549 11.5787L66.4439 9.79823ZM63.375 12.6902C62.587 13.9674 62.0163 15.5651 61.6347 17.4478L63.5948 17.8451C63.9456 16.1145 64.4492 14.7582 65.0771 13.7404L63.375 12.6902ZM61.6326 17.4581C61.2753 19.3215 61.1021 21.5491 61.1021 24.1284H63.1021C63.1021 21.6296 63.2706 19.5359 63.5968 17.8348L61.6326 17.4581ZM61.1021 24.1284V33.1006H63.1021V24.1284H61.1021ZM61.1021 33.1006C61.1021 35.5874 61.2882 37.7481 61.673 39.5695L63.6298 39.1561C63.2822 37.5107 63.1021 35.4966 63.1021 33.1006H61.1021ZM61.673 39.5695C62.057 41.3872 62.6448 42.9319 63.4673 44.1655L65.1314 43.0561C64.489 42.0925 63.9782 40.8052 63.6298 39.1561L61.673 39.5695ZM63.4673 44.1655C64.2829 45.389 65.2977 46.3308 66.5172 46.9547L67.4281 45.1742C66.548 44.7239 65.7806 44.0299 65.1314 43.0561L63.4673 44.1655ZM66.5419 46.9669C67.7716 47.5538 69.1558 47.8335 70.6714 47.8335V45.8335C69.4038 45.8335 68.3222 45.6005 67.4034 45.162L66.5419 46.9669ZM70.6714 47.8335C72.1649 47.8335 73.5278 47.5529 74.7357 46.963L73.858 45.1659C72.9663 45.6014 71.9123 45.8335 70.6714 45.8335V47.8335ZM74.7441 46.9589C75.9927 46.3346 77.0145 45.3882 77.8108 44.1525L76.1296 43.0691C75.5099 44.0308 74.7495 44.7201 73.8497 45.17L74.7441 46.9589ZM77.8108 44.1525C78.6036 42.9223 79.1769 41.3824 79.5599 39.5695L77.6031 39.1561C77.2537 40.81 76.7528 42.1021 76.1296 43.0691L77.8108 44.1525ZM79.5599 39.5695C79.9448 37.7481 80.1309 35.5874 80.1309 33.1006H78.1309C78.1309 35.4966 77.9508 37.5107 77.6031 39.1561L79.5599 39.5695ZM108.896 1.67969V0.679688H107.546L107.94 1.97137L108.896 1.67969ZM118.308 1.67969L119.266 1.39393L119.053 0.679688H118.308V1.67969ZM129.185 38.1543L128.226 38.4401L129.186 41.6592L130.143 38.4392L129.185 38.1543ZM140.024 1.67969V0.679688H139.278L139.066 1.39481L140.024 1.67969ZM148.337 1.67969L149.299 1.95319L149.661 0.679688H148.337V1.67969ZM133.176 55V56H133.932L134.138 55.2735L133.176 55ZM125.156 55L124.2 55.2917L124.416 56H125.156V55ZM105.088 1.67969V0.679688H104.088V1.67969H105.088ZM114.06 1.67969L115.059 1.64014L115.021 0.679688H114.06V1.67969ZM115.452 36.8359H116.452V36.8162L116.451 36.7964L115.452 36.8359ZM115.452 55V56H116.452V55H115.452ZM105.088 55H104.088V56H105.088V55ZM144.236 1.67969V0.679688H143.273L143.237 1.64221L144.236 1.67969ZM153.245 1.67969H154.245V0.679688H153.245V1.67969ZM153.245 55V56H154.245V55H153.245ZM142.917 55H141.917V56H142.917V55ZM142.917 36.8359L141.918 36.7985L141.917 36.8172V36.8359H142.917ZM108.896 2.67969H118.308V0.679688H108.896V2.67969ZM117.35 1.96545L128.226 38.4401L130.143 37.8685L119.266 1.39393L117.35 1.96545ZM130.143 38.4392L140.983 1.96456L139.066 1.39481L128.226 37.8694L130.143 38.4392ZM140.024 2.67969H148.337V0.679688H140.024V2.67969ZM147.376 1.40619L132.214 54.7265L134.138 55.2735L149.299 1.95319L147.376 1.40619ZM133.176 54H125.156V56H133.176V54ZM126.113 54.7083L109.853 1.388L107.94 1.97137L124.2 55.2917L126.113 54.7083ZM105.088 2.67969H114.06V0.679688H105.088V2.67969ZM113.061 1.71924L114.452 36.8755L116.451 36.7964L115.059 1.64014L113.061 1.71924ZM114.452 36.8359V55H116.452V36.8359H114.452ZM115.452 54H105.088V56H115.452V54ZM106.088 55V1.67969H104.088V55H106.088ZM144.236 2.67969H153.245V0.679688H144.236V2.67969ZM152.245 1.67969V55H154.245V1.67969H152.245ZM153.245 54H142.917V56H153.245V54ZM143.917 55V36.8359H141.917V55H143.917ZM143.917 36.8734L145.235 1.71716L143.237 1.64221L141.918 36.7985L143.917 36.8734ZM205.569 42.9883L204.619 42.677L204.617 42.682L205.569 42.9883ZM201.687 50.0562L200.938 49.3936L200.937 49.3942L201.687 50.0562ZM195.645 54.3042L195.271 53.3764L195.268 53.3777L195.645 54.3042ZM180.007 54.3042L179.631 55.2307L179.634 55.232L180.007 54.3042ZM173.928 50.0562L173.179 50.7188L173.188 50.7288L173.928 50.0562ZM170.01 42.9883L169.059 43.2996L169.06 43.302L170.01 42.9883ZM169.973 14.0942L170.927 14.3934L170.928 14.3911L169.973 14.0942ZM173.892 6.84326L174.64 7.50646L174.644 7.50177L173.892 6.84326ZM179.971 2.44873L180.355 3.37184L180.363 3.36837L179.971 2.44873ZM195.571 2.44873L195.179 3.36841L195.187 3.37181L195.571 2.44873ZM201.65 6.84326L200.898 7.50178L200.902 7.50645L201.65 6.84326ZM205.569 14.0942L204.614 14.3912L204.617 14.4008L205.569 14.0942ZM195.754 17.6465L194.774 17.8451L194.775 17.8478L195.754 17.6465ZM184.072 10.6885L183.625 9.79401L183.617 9.79823L184.072 10.6885ZM181.399 13.2153L180.556 12.6773L180.552 12.6837L180.548 12.6902L181.399 13.2153ZM179.788 17.6465L178.807 17.4478L178.805 17.4581L179.788 17.6465ZM184.146 46.0645L183.69 46.9547L183.702 46.961L183.715 46.9669L184.146 46.0645ZM191.47 46.0645L191.909 46.9631L191.917 46.9589L191.47 46.0645ZM205.96 24.2017V33.1006H207.96V24.2017H205.96ZM205.96 33.1006C205.96 36.781 205.506 39.9678 204.619 42.677L206.519 43.2996C207.487 40.3447 207.96 36.9397 207.96 33.1006H205.96ZM204.617 42.682C203.749 45.379 202.518 47.608 200.938 49.3936L202.436 50.7187C204.226 48.6957 205.582 46.2128 206.521 43.2946L204.617 42.682ZM200.937 49.3942C199.382 51.1552 197.498 52.4813 195.271 53.3764L196.018 55.232C198.528 54.2228 200.671 52.7168 202.437 50.7181L200.937 49.3942ZM195.268 53.3777C193.058 54.2754 190.588 54.7324 187.844 54.7324V56.7324C190.813 56.7324 193.543 56.2373 196.021 55.2307L195.268 53.3777ZM187.844 54.7324C185.1 54.7324 182.617 54.2755 180.38 53.3764L179.634 55.232C182.134 56.2372 184.875 56.7324 187.844 56.7324V54.7324ZM180.384 53.3777C178.179 52.4822 176.277 51.1531 174.668 49.3835L173.188 50.7288C174.997 52.719 177.148 54.2219 179.631 55.2307L180.384 53.3777ZM174.677 49.3936C173.096 47.606 171.851 45.3742 170.959 42.6745L169.06 43.302C170.024 46.2176 171.391 48.6978 173.179 50.7187L174.677 49.3936ZM170.96 42.677C170.073 39.9678 169.618 36.781 169.618 33.1006H167.618C167.618 36.9397 168.091 40.3447 169.059 43.2996L170.96 42.677ZM169.618 33.1006V24.2017H167.618V33.1006H169.618ZM169.618 24.2017C169.618 20.419 170.061 17.1549 170.927 14.3934L169.019 13.795C168.078 16.7953 167.618 20.2695 167.618 24.2017H169.618ZM170.928 14.3911C171.797 11.5971 173.041 9.31165 174.64 7.50645L173.143 6.18007C171.325 8.2323 169.956 10.7809 169.018 13.7973L170.928 14.3911ZM174.644 7.50177C176.255 5.66119 178.156 4.28817 180.355 3.37181L179.586 1.52565C177.098 2.56242 174.946 4.11908 173.139 6.18476L174.644 7.50177ZM180.363 3.36837C182.569 2.42647 185.033 1.94727 187.771 1.94727V-0.0527344C184.796 -0.0527344 182.06 0.469038 179.578 1.52909L180.363 3.36837ZM187.771 1.94727C190.509 1.94727 192.973 2.42647 195.179 3.36837L195.964 1.52909C193.482 0.469038 190.746 -0.0527344 187.771 -0.0527344V1.94727ZM195.187 3.37181C197.386 4.28817 199.287 5.66119 200.898 7.50177L202.403 6.18476C200.596 4.11908 198.444 2.56242 195.956 1.52565L195.187 3.37181ZM200.902 7.50645C202.501 9.31165 203.745 11.5971 204.614 14.3911L206.524 13.7973C205.586 10.7809 204.217 8.2323 202.399 6.18007L200.902 7.50645ZM204.617 14.4008C205.505 17.1597 205.96 20.4212 205.96 24.2017H207.96C207.96 20.2673 207.488 16.7905 206.521 13.7877L204.617 14.4008ZM197.304 33.1006V24.1284H195.304V33.1006H197.304ZM197.304 24.1284C197.304 21.5461 197.118 19.3139 196.734 17.4452L194.775 17.8478C195.123 19.5435 195.304 21.6326 195.304 24.1284H197.304ZM196.734 17.4478C196.352 15.5606 195.767 13.9581 194.949 12.6773L193.264 13.7534C193.911 14.7675 194.424 16.1191 194.774 17.8451L196.734 17.4478ZM194.949 12.6773C194.136 11.4035 193.12 10.428 191.889 9.79823L190.978 11.5787C191.846 12.0231 192.612 12.7322 193.264 13.7534L194.949 12.6773ZM191.889 9.79823C190.674 9.17706 189.293 8.88281 187.771 8.88281V10.8828C189.033 10.8828 190.092 11.1257 190.978 11.5787L191.889 9.79823ZM187.771 8.88281C186.249 8.88281 184.859 9.17727 183.625 9.79405L184.519 11.5829C185.434 11.1255 186.51 10.8828 187.771 10.8828V8.88281ZM183.617 9.79823C182.386 10.428 181.369 11.4035 180.556 12.6773L182.242 13.7534C182.894 12.7322 183.659 12.0231 184.528 11.5787L183.617 9.79823ZM180.548 12.6902C179.76 13.9674 179.189 15.5651 178.808 17.4478L180.768 17.8451C181.118 16.1145 181.622 14.7582 182.25 13.7404L180.548 12.6902ZM178.805 17.4581C178.448 19.3215 178.275 21.5491 178.275 24.1284H180.275C180.275 21.6296 180.443 19.5359 180.77 17.8348L178.805 17.4581ZM178.275 24.1284V33.1006H180.275V24.1284H178.275ZM178.275 33.1006C178.275 35.5874 178.461 37.7481 178.846 39.5695L180.803 39.1561C180.455 37.5107 180.275 35.4966 180.275 33.1006H178.275ZM178.846 39.5695C179.23 41.3872 179.818 42.9319 180.64 44.1655L182.304 43.0561C181.662 42.0925 181.151 40.8052 180.803 39.1561L178.846 39.5695ZM180.64 44.1655C181.456 45.389 182.471 46.3308 183.69 46.9547L184.601 45.1742C183.721 44.7239 182.953 44.0299 182.304 43.0561L180.64 44.1655ZM183.715 46.9669C184.944 47.5538 186.329 47.8335 187.844 47.8335V45.8335C186.577 45.8335 185.495 45.6005 184.576 45.162L183.715 46.9669ZM187.844 47.8335C189.338 47.8335 190.701 47.5529 191.909 46.963L191.031 45.1659C190.139 45.6014 189.085 45.8335 187.844 45.8335V47.8335ZM191.917 46.9589C193.166 46.3346 194.187 45.3882 194.984 44.1525L193.302 43.0691C192.683 44.0308 191.922 44.7201 191.023 45.17L191.917 46.9589ZM194.984 44.1525C195.776 42.9223 196.35 41.3824 196.733 39.5695L194.776 39.1561C194.427 40.81 193.926 42.1021 193.302 43.0691L194.984 44.1525ZM196.733 39.5695C197.118 37.7481 197.304 35.5874 197.304 33.1006H195.304C195.304 35.4966 195.124 37.5107 194.776 39.1561L196.733 39.5695ZM243.464 36.2134L242.689 36.8451L242.696 36.8535L242.703 36.8618L243.464 36.2134ZM241.084 34.2358L240.543 35.0771L240.552 35.0827L241.084 34.2358ZM237.056 32.1851L237.448 31.2652L237.443 31.263L237.056 32.1851ZM231.306 29.5483L230.85 30.4381L230.859 30.4428L231.306 29.5483ZM222.737 21.8579L221.842 22.3051L221.846 22.3128L221.85 22.3205L222.737 21.8579ZM222.664 9.73633L221.753 9.32341L221.748 9.33359L222.664 9.73633ZM226.179 5.04883L226.829 5.80898L226.836 5.80291L226.179 5.04883ZM231.489 2.00928L231.163 1.06402L231.159 1.06524L231.489 2.00928ZM247.2 3.07129L246.705 3.94059L246.709 3.94264L247.2 3.07129ZM253.022 8.89404L252.148 9.37896L252.152 9.38553L253.022 8.89404ZM255.11 17.3901V18.3901H256.11V17.3901H255.11ZM244.417 17.3901H243.417V18.3901H244.417V17.3901ZM243.757 13.3984L242.815 13.7323L242.819 13.7442L242.823 13.7561L243.757 13.3984ZM234.749 10.5054L235.27 11.3587L235.276 11.3547L234.749 10.5054ZM232.771 12.7393L231.863 12.3202L231.858 12.3309L232.771 12.7393ZM232.771 18.269L231.908 18.7748L231.919 18.7925L231.93 18.8098L232.771 18.269ZM234.565 20.1367L233.97 20.9398L233.978 20.9461L233.987 20.9522L234.565 20.1367ZM237.239 21.7114L236.792 22.6059L236.8 22.61L237.239 21.7114ZM240.681 23.2129L241.048 22.2825L241.046 22.2819L240.681 23.2129ZM247.09 26.3623L246.564 27.2128L246.572 27.2178L247.09 26.3623ZM251.741 30.1709L250.99 30.8313L250.995 30.8377L251.741 30.1709ZM254.341 46.98L253.421 46.5875L253.418 46.5936L254.341 46.98ZM251.008 51.6675L251.67 52.417L251.677 52.4108L251.008 51.6675ZM245.698 54.6704L245.375 53.724L245.372 53.7252L245.698 54.6704ZM231.819 54.707L231.512 55.6589L231.522 55.6619L231.819 54.707ZM225.996 51.521L225.341 52.2763L225.347 52.2814L225.353 52.2865L225.996 51.521ZM222.078 46.0645L221.158 46.4584L221.16 46.4621L222.078 46.0645ZM220.649 38.1909V37.1909H219.649V38.1909H220.649ZM231.379 38.1909H232.379V37.1909H231.379V38.1909ZM231.855 42.3291L230.892 42.5957L230.893 42.6011L231.855 42.3291ZM233.32 45.0391L232.6 45.7332L232.607 45.7397L232.613 45.7462L233.32 45.0391ZM235.737 46.5405L235.399 47.4817L235.414 47.4869L235.428 47.4916L235.737 46.5405ZM242.439 46.2109L241.907 45.3642L241.896 45.3714L242.439 46.2109ZM245.819 40.9741C245.819 39.9633 245.729 39.0236 245.54 38.1603L243.586 38.5877C243.739 39.287 243.819 40.0807 243.819 40.9741H245.819ZM245.54 38.1603C245.331 37.2056 244.885 36.3385 244.226 35.5649L242.703 36.8618C243.167 37.4066 243.453 37.98 243.586 38.5877L245.54 38.1603ZM244.24 35.5817C243.61 34.8089 242.72 34.082 241.616 33.389L240.552 35.0827C241.548 35.708 242.245 36.2995 242.689 36.8451L244.24 35.5817ZM241.625 33.3947C240.536 32.6945 239.138 31.9858 237.448 31.2652L236.663 33.1049C238.294 33.8003 239.582 34.4589 240.543 35.077L241.625 33.3947ZM237.443 31.263C235.485 30.4412 233.588 29.5714 231.753 28.6539L230.859 30.4428C232.735 31.3807 234.671 32.2688 236.669 33.1071L237.443 31.263ZM231.763 28.6586C229.968 27.7379 228.359 26.6794 226.93 25.4853L225.648 27.0196C227.198 28.3157 228.933 29.4545 230.85 30.438L231.763 28.6586ZM226.93 25.4853C225.54 24.3227 224.44 22.9607 223.623 21.3953L221.85 22.3205C222.791 24.1243 224.06 25.692 225.648 27.0196L226.93 25.4853ZM223.631 21.4107C222.859 19.8658 222.455 18.0226 222.455 15.8521H220.455C220.455 18.2713 220.906 20.4321 221.842 22.3051L223.631 21.4107ZM222.455 15.8521C222.455 13.7276 222.836 11.8285 223.579 10.1391L221.748 9.33359C220.88 11.3063 220.455 13.4843 220.455 15.8521H222.455ZM223.574 10.1492C224.345 8.45031 225.428 7.00673 226.829 5.80895L225.529 4.28871C223.903 5.67881 222.643 7.36024 221.753 9.32344L223.574 10.1492ZM226.836 5.80291C228.247 4.57374 229.904 3.62231 231.819 2.95331L231.159 1.06524C229.021 1.81226 227.138 2.8872 225.522 4.29475L226.836 5.80291ZM231.816 2.95453C233.746 2.28802 235.916 1.94727 238.337 1.94727V-0.0527344C235.729 -0.0527344 233.334 0.31452 231.163 1.06402L231.816 2.95453ZM238.337 1.94727C241.616 1.94727 244.393 2.6254 246.705 3.94058L247.694 2.202C245.026 0.685143 241.895 -0.0527344 238.337 -0.0527344V1.94727ZM246.709 3.94264C249.066 5.2701 250.873 7.07896 252.148 9.37895L253.897 8.40914C252.438 5.77749 250.362 3.70451 247.69 2.19994L246.709 3.94264ZM252.152 9.38553C253.448 11.6828 254.11 14.3414 254.11 17.3901H256.11C256.11 14.0424 255.38 11.037 253.893 8.40255L252.152 9.38553ZM255.11 16.3901H244.417V18.3901H255.11V16.3901ZM245.417 17.3901C245.417 15.7816 245.183 14.3255 244.691 13.0408L242.823 13.7561C243.21 14.7663 243.417 15.9713 243.417 17.3901H245.417ZM244.7 13.0646C244.223 11.7175 243.433 10.6261 242.322 9.83667L241.164 11.467C241.908 11.9959 242.462 12.7356 242.815 13.7323L244.7 13.0646ZM242.322 9.83667C241.183 9.02686 239.767 8.66309 238.154 8.66309V10.6631C239.471 10.6631 240.448 10.9585 241.164 11.467L242.322 9.83667ZM238.154 8.66309C236.653 8.66309 235.322 8.9716 234.221 9.65609L235.276 11.3547C235.982 10.9161 236.921 10.6631 238.154 10.6631V8.66309ZM234.227 9.65209C233.176 10.2944 232.384 11.1917 231.863 12.3202L233.679 13.1583C234.037 12.3825 234.563 11.7905 235.27 11.3587L234.227 9.65209ZM231.858 12.3309C231.378 13.4053 231.148 14.5975 231.148 15.8887H233.148C233.148 14.8361 233.334 13.9287 233.684 13.1476L231.858 12.3309ZM231.148 15.8887C231.148 16.9323 231.397 17.9025 231.908 18.7748L233.634 17.7633C233.315 17.2196 233.148 16.6029 233.148 15.8887H231.148ZM231.93 18.8098C232.444 19.6097 233.131 20.3177 233.97 20.9398L235.161 19.3336C234.486 18.8327 233.977 18.2955 233.612 17.7283L231.93 18.8098ZM233.987 20.9522C234.794 21.5249 235.731 22.0754 236.792 22.6059L237.686 20.817C236.696 20.3221 235.851 19.8227 235.144 19.3212L233.987 20.9522ZM236.8 22.61C237.877 23.136 239.049 23.6471 240.316 24.1439L241.046 22.2819C239.823 21.8021 238.7 21.3122 237.678 20.8129L236.8 22.61ZM240.315 24.1433C242.686 25.0776 244.768 26.1019 246.564 27.2128L247.616 25.5118C245.701 24.3278 243.51 23.2525 241.048 22.2825L240.315 24.1433ZM246.572 27.2178C248.353 28.2958 249.821 29.5023 250.99 30.8312L252.492 29.5106C251.17 28.0075 249.537 26.6749 247.608 25.5068L246.572 27.2178ZM250.995 30.8377C252.155 32.1337 253.029 33.5973 253.62 35.2347L255.501 34.5554C254.823 32.6771 253.817 30.9913 252.486 29.5041L250.995 30.8377ZM253.62 35.2347C254.208 36.8641 254.513 38.7479 254.513 40.9009H256.513C256.513 38.5617 256.182 36.4416 255.501 34.5554L253.62 35.2347ZM254.513 40.9009C254.513 43.0033 254.144 44.8942 253.421 46.5875L255.261 47.3724C256.101 45.4037 256.513 43.2418 256.513 40.9009H254.513ZM253.418 46.5936C252.719 48.2632 251.695 49.704 250.339 50.9242L251.677 52.4108C253.251 50.9942 254.449 49.3101 255.263 47.3664L253.418 46.5936ZM250.346 50.918C248.992 52.1145 247.341 53.0534 245.375 53.724L246.021 55.6168C248.206 54.8714 250.095 53.8083 251.67 52.417L250.346 50.918ZM245.372 53.7252C243.442 54.3913 241.26 54.7324 238.813 54.7324V56.7324C241.445 56.7324 243.853 56.3655 246.025 55.6157L245.372 53.7252ZM238.813 54.7324C236.441 54.7324 234.21 54.4038 232.116 53.7522L231.522 55.6619C233.822 56.3775 236.254 56.7324 238.813 56.7324V54.7324ZM232.126 53.7552C230.045 53.085 228.22 52.0841 226.64 50.7555L225.353 52.2865C227.141 53.7899 229.198 54.9131 231.512 55.6588L232.126 53.7552ZM226.651 50.7657C225.114 49.4319 223.893 47.7392 222.995 45.6668L221.16 46.4621C222.166 48.7842 223.558 50.7292 225.341 52.2763L226.651 50.7657ZM222.997 45.6705C222.11 43.6005 221.649 41.1159 221.649 38.1909H219.649C219.649 41.3206 220.141 44.0851 221.158 46.4584L222.997 45.6705ZM220.649 39.1909H231.379V37.1909H220.649V39.1909ZM230.379 38.1909C230.379 39.8628 230.544 41.337 230.892 42.5957L232.819 42.0625C232.533 41.0263 232.379 39.7416 232.379 38.1909H230.379ZM230.893 42.6011C231.245 43.8468 231.804 44.9068 232.6 45.7332L234.04 44.3449C233.519 43.8041 233.1 43.0575 232.818 42.0571L230.893 42.6011ZM232.613 45.7462C233.385 46.5183 234.32 47.0944 235.399 47.4817L236.075 45.5993C235.25 45.3031 234.574 44.8782 234.027 44.332L232.613 45.7462ZM235.428 47.4916C236.523 47.8474 237.741 48.0166 239.07 48.0166V46.0166C237.908 46.0166 236.905 45.8684 236.046 45.5895L235.428 47.4916ZM239.07 48.0166C240.599 48.0166 241.935 47.7284 242.982 47.0505L241.896 45.3714C241.283 45.7677 240.372 46.0166 239.07 46.0166V48.0166ZM242.971 47.0576C243.997 46.413 244.749 45.531 245.197 44.426L243.343 43.6746C243.059 44.3762 242.59 44.9347 241.907 45.3643L242.971 47.0576ZM245.197 44.426C245.619 43.3842 245.819 42.2279 245.819 40.9741H243.819C243.819 42.0152 243.653 42.9098 243.343 43.6746L245.197 44.426Z" fill="white"/>
<path d="M310.562 1.67969V55H299.905V1.67969H310.562ZM323.818 1.67969V10.5786H286.904V1.67969H323.818ZM352.449 11.2012L340.986 55H329.67L346.333 1.67969H353.401L352.449 11.2012ZM361.494 55L349.958 11.2012L348.896 1.67969H356.074L372.883 55H361.494ZM361.897 35.1147V44.0137H337.837V35.1147H361.897ZM415.063 46.1377V55H392.908V46.1377H415.063ZM396.204 1.67969V55H385.474V1.67969H396.204ZM459.441 46.1377V55H436.26V46.1377H459.441ZM439.592 1.67969V55H428.862V1.67969L439.592 1.67969ZM456.328 23.2861V31.8921H436.26V23.2861H456.328ZM459.368 1.67969V10.5786H436.26V1.67969L459.368 1.67969ZM510.483 1.67969V55H500.12L483.384 21.6382V55H473.203V1.67969H483.42L500.303 35.4077V1.67969H510.483ZM546.768 1.67969V55H536.111V1.67969H546.768ZM560.024 1.67969V10.5786H523.11V1.67969H560.024ZM610.188 24.2017V33.1006C610.188 36.8604 609.724 40.1562 608.796 42.9883C607.893 45.7959 606.599 48.1519 604.915 50.0562C603.254 51.936 601.24 53.3521 598.872 54.3042C596.528 55.2563 593.928 55.7324 591.072 55.7324C588.215 55.7324 585.603 55.2563 583.235 54.3042C580.891 53.3521 578.865 51.936 577.156 50.0562C575.471 48.1519 574.165 45.7959 573.237 42.9883C572.31 40.1562 571.846 36.8604 571.846 33.1006V24.2017C571.846 20.3442 572.297 16.9751 573.201 14.0942C574.104 11.189 575.41 8.77197 577.119 6.84326C578.828 4.89014 580.854 3.42529 583.198 2.44873C585.542 1.44775 588.142 0.947266 590.999 0.947266C593.855 0.947266 596.455 1.44775 598.799 2.44873C601.143 3.42529 603.169 4.89014 604.878 6.84326C606.587 8.77197 607.893 11.189 608.796 14.0942C609.724 16.9751 610.188 20.3442 610.188 24.2017ZM599.531 33.1006V24.1284C599.531 21.5894 599.348 19.4287 598.982 17.6465C598.616 15.8398 598.066 14.3628 597.334 13.2153C596.602 12.0679 595.71 11.2256 594.661 10.6885C593.611 10.1514 592.39 9.88281 590.999 9.88281C589.607 9.88281 588.374 10.1514 587.3 10.6885C586.25 11.2256 585.359 12.0679 584.626 13.2153C583.918 14.3628 583.381 15.8398 583.015 17.6465C582.673 19.4287 582.502 21.5894 582.502 24.1284V33.1006C582.502 35.542 582.686 37.6294 583.052 39.3628C583.418 41.0962 583.967 42.5122 584.7 43.6108C585.432 44.7095 586.323 45.5273 587.373 46.0645C588.447 46.5771 589.68 46.8335 591.072 46.8335C592.439 46.8335 593.647 46.5771 594.697 46.0645C595.771 45.5273 596.663 44.7095 597.371 43.6108C598.079 42.5122 598.616 41.0962 598.982 39.3628C599.348 37.6294 599.531 35.542 599.531 33.1006ZM679.863 46.1377V55H657.708V46.1377H679.863ZM661.003 1.67969V55H650.273V1.67969H661.003ZM713.694 11.2012L702.231 55H690.916L707.578 1.67969H714.646L713.694 11.2012ZM722.739 55L711.204 11.2012L710.142 1.67969H717.319L734.128 55H722.739ZM723.142 35.1147V44.0137H699.082V35.1147H723.142ZM763.564 1.67969V55H752.908V1.67969H763.564ZM776.821 1.67969V10.5786H739.907V1.67969H776.821ZM801.68 1.67969V55H791.023V1.67969H801.68ZM855.615 1.67969V55H845.251L828.516 21.6382V55H818.335V1.67969H828.552L845.435 35.4077V1.67969H855.615ZM909.221 24.2017V33.1006C909.221 36.8604 908.757 40.1562 907.83 42.9883C906.926 45.7959 905.632 48.1519 903.948 50.0562C902.288 51.936 900.273 53.3521 897.905 54.3042C895.562 55.2563 892.961 55.7324 890.105 55.7324C887.249 55.7324 884.636 55.2563 882.268 54.3042C879.924 53.3521 877.898 51.936 876.189 50.0562C874.504 48.1519 873.198 45.7959 872.271 42.9883C871.343 40.1562 870.879 36.8604 870.879 33.1006V24.2017C870.879 20.3442 871.331 16.9751 872.234 14.0942C873.137 11.189 874.443 8.77197 876.152 6.84326C877.861 4.89014 879.888 3.42529 882.231 2.44873C884.575 1.44775 887.175 0.947266 890.032 0.947266C892.888 0.947266 895.488 1.44775 897.832 2.44873C900.176 3.42529 902.202 4.89014 903.911 6.84326C905.62 8.77197 906.926 11.189 907.83 14.0942C908.757 16.9751 909.221 20.3442 909.221 24.2017ZM898.564 33.1006V24.1284C898.564 21.5894 898.381 19.4287 898.015 17.6465C897.649 15.8398 897.1 14.3628 896.367 13.2153C895.635 12.0679 894.744 11.2256 893.694 10.6885C892.644 10.1514 891.423 9.88281 890.032 9.88281C888.64 9.88281 887.407 10.1514 886.333 10.6885C885.283 11.2256 884.392 12.0679 883.66 13.2153C882.952 14.3628 882.415 15.8398 882.048 17.6465C881.707 19.4287 881.536 21.5894 881.536 24.1284V33.1006C881.536 35.542 881.719 37.6294 882.085 39.3628C882.451 41.0962 883 42.5122 883.733 43.6108C884.465 44.7095 885.356 45.5273 886.406 46.0645C887.48 46.5771 888.713 46.8335 890.105 46.8335C891.472 46.8335 892.681 46.5771 893.73 46.0645C894.805 45.5273 895.696 44.7095 896.404 43.6108C897.112 42.5122 897.649 41.0962 898.015 39.3628C898.381 37.6294 898.564 35.542 898.564 33.1006Z" fill="white"/>
<path d="M310.562 1.67969H311.562V0.679688H310.562V1.67969ZM310.562 55V56H311.562V55H310.562ZM299.905 55H298.905V56H299.905V55ZM299.905 1.67969V0.679688H298.905V1.67969H299.905ZM323.818 1.67969H324.818V0.679688H323.818V1.67969ZM323.818 10.5786V11.5786H324.818V10.5786H323.818ZM286.904 10.5786H285.904V11.5786H286.904V10.5786ZM286.904 1.67969V0.679688H285.904V1.67969H286.904ZM309.562 1.67969V55H311.562V1.67969H309.562ZM310.562 54H299.905V56H310.562V54ZM300.905 55V1.67969H298.905V55H300.905ZM299.905 2.67969H310.562V0.679688H299.905V2.67969ZM322.818 1.67969V10.5786H324.818V1.67969H322.818ZM323.818 9.57861H286.904V11.5786H323.818V9.57861ZM287.904 10.5786V1.67969H285.904V10.5786H287.904ZM286.904 2.67969H323.818V0.679688H286.904V2.67969ZM352.449 11.2012L353.416 11.4544L353.436 11.3786L353.444 11.3007L352.449 11.2012ZM340.986 55V56H341.758L341.954 55.2532L340.986 55ZM329.67 55L328.716 54.7017L328.31 56H329.67V55ZM346.333 1.67969V0.679688H345.598L345.379 1.38141L346.333 1.67969ZM353.401 1.67969L354.396 1.77919L354.506 0.679688H353.401V1.67969ZM361.494 55L360.527 55.2547L360.723 56H361.494V55ZM349.958 11.2012L348.965 11.312L348.973 11.3849L348.991 11.4559L349.958 11.2012ZM348.896 1.67969V0.679688H347.779L347.903 1.79054L348.896 1.67969ZM356.074 1.67969L357.028 1.37903L356.807 0.679688H356.074V1.67969ZM372.883 55V56H374.247L373.837 54.6993L372.883 55ZM361.897 35.1147H362.897V34.1147H361.897V35.1147ZM361.897 44.0137V45.0137H362.897V44.0137H361.897ZM337.837 44.0137H336.837V45.0137H337.837V44.0137ZM337.837 35.1147V34.1147H336.837V35.1147H337.837ZM351.481 10.948L340.019 54.7468L341.954 55.2532L353.416 11.4544L351.481 10.948ZM340.986 54H329.67V56H340.986V54ZM330.625 55.2983L347.287 1.97796L345.379 1.38141L328.716 54.7017L330.625 55.2983ZM346.333 2.67969H353.401V0.679688H346.333V2.67969ZM352.406 1.58018L351.454 11.1017L353.444 11.3007L354.396 1.77919L352.406 1.58018ZM362.461 54.7453L350.926 10.9465L348.991 11.4559L360.527 55.2547L362.461 54.7453ZM350.952 11.0903L349.89 1.56884L347.903 1.79054L348.965 11.312L350.952 11.0903ZM348.896 2.67969H356.074V0.679688H348.896V2.67969ZM355.12 1.98035L371.93 55.3007L373.837 54.6993L357.028 1.37903L355.12 1.98035ZM372.883 54H361.494V56H372.883V54ZM360.897 35.1147V44.0137H362.897V35.1147H360.897ZM361.897 43.0137H337.837V45.0137H361.897V43.0137ZM338.837 44.0137V35.1147H336.837V44.0137H338.837ZM337.837 36.1147H361.897V34.1147H337.837V36.1147ZM415.063 46.1377H416.063V45.1377H415.063V46.1377ZM415.063 55V56H416.063V55H415.063ZM392.908 55H391.908V56H392.908V55ZM392.908 46.1377V45.1377H391.908V46.1377H392.908ZM396.204 1.67969H397.204V0.679688H396.204V1.67969ZM396.204 55V56H397.204V55H396.204ZM385.474 55H384.474V56H385.474V55ZM385.474 1.67969V0.679688H384.474V1.67969H385.474ZM414.063 46.1377V55H416.063V46.1377H414.063ZM415.063 54H392.908V56H415.063V54ZM393.908 55V46.1377H391.908V55H393.908ZM392.908 47.1377H415.063V45.1377H392.908V47.1377ZM395.204 1.67969V55H397.204V1.67969H395.204ZM396.204 54H385.474V56H396.204V54ZM386.474 55V1.67969H384.474V55H386.474ZM385.474 2.67969H396.204V0.679688H385.474V2.67969ZM459.441 46.1377H460.441V45.1377H459.441V46.1377ZM459.441 55V56H460.441V55H459.441ZM436.26 55H435.26V56H436.26V55ZM436.26 46.1377V45.1377H435.26V46.1377H436.26ZM439.592 1.67969H440.592V0.679688H439.592V1.67969ZM439.592 55V56H440.592V55H439.592ZM428.862 55H427.862V56H428.862V55ZM428.862 1.67969V0.679688H427.862V1.67969H428.862ZM456.328 23.2861H457.328V22.2861H456.328V23.2861ZM456.328 31.8921V32.8921H457.328V31.8921H456.328ZM436.26 31.8921H435.26V32.8921H436.26V31.8921ZM436.26 23.2861V22.2861H435.26V23.2861H436.26ZM459.368 1.67969H460.368V0.679688H459.368V1.67969ZM459.368 10.5786V11.5786H460.368V10.5786H459.368ZM436.26 10.5786H435.26V11.5786H436.26V10.5786ZM436.26 1.67969V0.679688H435.26V1.67969H436.26ZM458.441 46.1377V55H460.441V46.1377H458.441ZM459.441 54H436.26V56H459.441V54ZM437.26 55V46.1377H435.26V55H437.26ZM436.26 47.1377H459.441V45.1377H436.26V47.1377ZM438.592 1.67969V55H440.592V1.67969L438.592 1.67969ZM439.592 54H428.862V56H439.592V54ZM429.862 55V1.67969H427.862V55H429.862ZM428.862 2.67969H439.592V0.679688H428.862V2.67969ZM455.328 23.2861V31.8921H457.328V23.2861H455.328ZM456.328 30.8921H436.26V32.8921H456.328V30.8921ZM437.26 31.8921V23.2861H435.26V31.8921H437.26ZM436.26 24.2861H456.328V22.2861H436.26V24.2861ZM458.368 1.67969V10.5786H460.368V1.67969H458.368ZM459.368 9.57861H436.26V11.5786H459.368V9.57861ZM437.26 10.5786V1.67969H435.26V10.5786H437.26ZM436.26 2.67969H459.368V0.679688L436.26 0.679688V2.67969ZM510.483 1.67969H511.483V0.679688H510.483V1.67969ZM510.483 55V56H511.483V55H510.483ZM500.12 55L499.226 55.4484L499.503 56H500.12V55ZM483.384 21.6382L484.278 21.1898L482.384 21.6382H483.384ZM483.384 55V56H484.384V55H483.384ZM473.203 55H472.203V56H473.203V55ZM473.203 1.67969V0.679688H472.203V1.67969H473.203ZM483.42 1.67969L484.315 1.23209L484.038 0.679688H483.42V1.67969ZM500.303 35.4077L499.409 35.8553L501.303 35.4077H500.303ZM500.303 1.67969V0.679688H499.303V1.67969H500.303ZM509.483 1.67969V55H511.483V1.67969H509.483ZM510.483 54H500.12V56H510.483V54ZM501.013 54.5516L484.278 21.1898L482.49 22.0866L499.226 55.4484L501.013 54.5516ZM482.384 21.6382V55H484.384V21.6382H482.384ZM483.384 54H473.203V56H483.384V54ZM474.203 55V1.67969H472.203V55H474.203ZM473.203 2.67969H483.42V0.679688H473.203V2.67969ZM482.526 2.12729L499.409 35.8553L501.197 34.9601L484.315 1.23209L482.526 2.12729ZM501.303 35.4077V1.67969H499.303V35.4077H501.303ZM500.303 2.67969H510.483V0.679688H500.303V2.67969ZM546.768 1.67969H547.768V0.679688H546.768V1.67969ZM546.768 55V56H547.768V55H546.768ZM536.111 55H535.111V56H536.111V55ZM536.111 1.67969V0.679688H535.111V1.67969H536.111ZM560.024 1.67969H561.024V0.679688H560.024V1.67969ZM560.024 10.5786V11.5786H561.024V10.5786H560.024ZM523.11 10.5786H522.11V11.5786H523.11V10.5786ZM523.11 1.67969V0.679688H522.11V1.67969H523.11ZM545.768 1.67969V55H547.768V1.67969H545.768ZM546.768 54H536.111V56H546.768V54ZM537.111 55V1.67969H535.111V55H537.111ZM536.111 2.67969H546.768V0.679688H536.111V2.67969ZM559.024 1.67969V10.5786H561.024V1.67969H559.024ZM560.024 9.57861H523.11V11.5786H560.024V9.57861ZM524.11 10.5786V1.67969H522.11V10.5786H524.11ZM523.11 2.67969H560.024V0.679688H523.11V2.67969ZM608.796 42.9883L607.846 42.677L607.844 42.682L608.796 42.9883ZM604.915 50.0562L604.166 49.3936L604.165 49.3942L604.915 50.0562ZM598.872 54.3042L598.499 53.3764L598.496 53.3777L598.872 54.3042ZM583.235 54.3042L582.858 55.2307L582.862 55.232L583.235 54.3042ZM577.156 50.0562L576.407 50.7188L576.416 50.7288L577.156 50.0562ZM573.237 42.9883L572.287 43.2996L572.288 43.302L573.237 42.9883ZM573.201 14.0942L574.155 14.3934L574.156 14.3911L573.201 14.0942ZM577.119 6.84326L577.868 7.50646L577.872 7.50177L577.119 6.84326ZM583.198 2.44873L583.583 3.37184L583.591 3.36837L583.198 2.44873ZM598.799 2.44873L598.406 3.36841L598.414 3.37181L598.799 2.44873ZM604.878 6.84326L604.125 7.50178L604.129 7.50645L604.878 6.84326ZM608.796 14.0942L607.841 14.3912L607.845 14.4008L608.796 14.0942ZM598.982 17.6465L598.002 17.8451L598.002 17.8478L598.982 17.6465ZM587.3 10.6885L586.853 9.79401L586.844 9.79823L587.3 10.6885ZM584.626 13.2153L583.784 12.6773L583.779 12.6837L583.775 12.6902L584.626 13.2153ZM583.015 17.6465L582.035 17.4478L582.033 17.4581L583.015 17.6465ZM587.373 46.0645L586.918 46.9547L586.93 46.961L586.942 46.9669L587.373 46.0645ZM594.697 46.0645L595.136 46.9631L595.144 46.9589L594.697 46.0645ZM609.188 24.2017V33.1006H611.188V24.2017H609.188ZM609.188 33.1006C609.188 36.781 608.734 39.9678 607.846 42.677L609.747 43.2996C610.715 40.3447 611.188 36.9397 611.188 33.1006H609.188ZM607.844 42.682C606.977 45.379 605.745 47.608 604.166 49.3936L605.664 50.7187C607.453 48.6957 608.809 46.2128 609.748 43.2946L607.844 42.682ZM604.165 49.3942C602.61 51.1552 600.725 52.4813 598.499 53.3764L599.245 55.232C601.755 54.2228 603.899 52.7168 605.664 50.7181L604.165 49.3942ZM598.496 53.3777C596.286 54.2754 593.816 54.7324 591.072 54.7324V56.7324C594.041 56.7324 596.771 56.2373 599.248 55.2307L598.496 53.3777ZM591.072 54.7324C588.328 54.7324 585.844 54.2755 583.608 53.3764L582.862 55.232C585.362 56.2372 588.103 56.7324 591.072 56.7324V54.7324ZM583.611 53.3777C581.407 52.4822 579.504 51.1531 577.896 49.3835L576.416 50.7288C578.225 52.719 580.375 54.2219 582.858 55.2307L583.611 53.3777ZM577.905 49.3936C576.323 47.606 575.079 45.3742 574.187 42.6745L572.288 43.302C573.251 46.2176 574.619 48.6978 576.407 50.7187L577.905 49.3936ZM574.188 42.677C573.3 39.9678 572.846 36.781 572.846 33.1006H570.846C570.846 36.9397 571.319 40.3447 572.287 43.2996L574.188 42.677ZM572.846 33.1006V24.2017H570.846V33.1006H572.846ZM572.846 24.2017C572.846 20.419 573.289 17.1549 574.155 14.3934L572.246 13.795C571.306 16.7953 570.846 20.2695 570.846 24.2017H572.846ZM574.156 14.3911C575.024 11.5971 576.268 9.31165 577.868 7.50645L576.371 6.18007C574.552 8.2323 573.184 10.7809 572.246 13.7973L574.156 14.3911ZM577.872 7.50177C579.482 5.66119 581.384 4.28817 583.583 3.37181L582.814 1.52565C580.325 2.56242 578.174 4.11908 576.367 6.18476L577.872 7.50177ZM583.591 3.36837C585.796 2.42647 588.261 1.94727 590.999 1.94727V-0.0527344C588.023 -0.0527344 585.288 0.469038 582.805 1.52909L583.591 3.36837ZM590.999 1.94727C593.736 1.94727 596.201 2.42647 598.406 3.36837L599.192 1.52909C596.71 0.469038 593.974 -0.0527344 590.999 -0.0527344V1.94727ZM598.414 3.37181C600.613 4.28817 602.515 5.66119 604.125 7.50177L605.63 6.18476C603.823 4.11908 601.672 2.56242 599.183 1.52565L598.414 3.37181ZM604.129 7.50645C605.729 9.31165 606.973 11.5971 607.841 14.3911L609.751 13.7973C608.813 10.7809 607.445 8.2323 605.626 6.18007L604.129 7.50645ZM607.845 14.4008C608.733 17.1597 609.188 20.4212 609.188 24.2017H611.188C611.188 20.2673 610.715 16.7905 609.748 13.7877L607.845 14.4008ZM600.531 33.1006V24.1284H598.531V33.1006H600.531ZM600.531 24.1284C600.531 21.5461 600.345 19.3139 599.961 17.4452L598.002 17.8478C598.351 19.5435 598.531 21.6326 598.531 24.1284H600.531ZM599.962 17.4478C599.579 15.5606 598.994 13.9581 598.177 12.6773L596.491 13.7534C597.138 14.7675 597.652 16.1191 598.002 17.8451L599.962 17.4478ZM598.177 12.6773C597.364 11.4035 596.347 10.428 595.116 9.79823L594.205 11.5787C595.074 12.0231 595.839 12.7322 596.491 13.7534L598.177 12.6773ZM595.116 9.79823C593.902 9.17706 592.52 8.88281 590.999 8.88281V10.8828C592.26 10.8828 593.32 11.1257 594.205 11.5787L595.116 9.79823ZM590.999 8.88281C589.476 8.88281 588.086 9.17727 586.853 9.79405L587.747 11.5829C588.662 11.1255 589.738 10.8828 590.999 10.8828V8.88281ZM586.844 9.79823C585.613 10.428 584.597 11.4035 583.784 12.6773L585.469 13.7534C586.121 12.7322 586.887 12.0231 587.755 11.5787L586.844 9.79823ZM583.775 12.6902C582.987 13.9674 582.417 15.5651 582.035 17.4478L583.995 17.8451C584.346 16.1145 584.85 14.7582 585.478 13.7404L583.775 12.6902ZM582.033 17.4581C581.676 19.3215 581.502 21.5491 581.502 24.1284H583.502C583.502 21.6296 583.671 19.5359 583.997 17.8348L582.033 17.4581ZM581.502 24.1284V33.1006H583.502V24.1284H581.502ZM581.502 33.1006C581.502 35.5874 581.689 37.7481 582.073 39.5695L584.03 39.1561C583.683 37.5107 583.502 35.4966 583.502 33.1006H581.502ZM582.073 39.5695C582.457 41.3872 583.045 42.9319 583.868 44.1655L585.532 43.0561C584.889 42.0925 584.379 40.8052 584.03 39.1561L582.073 39.5695ZM583.868 44.1655C584.683 45.389 585.698 46.3308 586.918 46.9547L587.829 45.1742C586.948 44.7239 586.181 44.0299 585.532 43.0561L583.868 44.1655ZM586.942 46.9669C588.172 47.5538 589.556 47.8335 591.072 47.8335V45.8335C589.804 45.8335 588.723 45.6005 587.804 45.162L586.942 46.9669ZM591.072 47.8335C592.565 47.8335 593.928 47.5529 595.136 46.963L594.258 45.1659C593.367 45.6014 592.313 45.8335 591.072 45.8335V47.8335ZM595.144 46.9589C596.393 46.3346 597.415 45.3882 598.211 44.1525L596.53 43.0691C595.91 44.0308 595.15 44.7201 594.25 45.17L595.144 46.9589ZM598.211 44.1525C599.004 42.9223 599.577 41.3824 599.96 39.5695L598.004 39.1561C597.654 40.81 597.153 42.1021 596.53 43.0691L598.211 44.1525ZM599.96 39.5695C600.345 37.7481 600.531 35.5874 600.531 33.1006H598.531C598.531 35.4966 598.351 37.5107 598.004 39.1561L599.96 39.5695ZM679.863 46.1377H680.863V45.1377H679.863V46.1377ZM679.863 55V56H680.863V55H679.863ZM657.708 55H656.708V56H657.708V55ZM657.708 46.1377V45.1377H656.708V46.1377H657.708ZM661.003 1.67969H662.003V0.679688H661.003V1.67969ZM661.003 55V56H662.003V55H661.003ZM650.273 55H649.273V56H650.273V55ZM650.273 1.67969V0.679688H649.273V1.67969H650.273ZM678.863 46.1377V55H680.863V46.1377H678.863ZM679.863 54H657.708V56H679.863V54ZM658.708 55V46.1377H656.708V55H658.708ZM657.708 47.1377H679.863V45.1377H657.708V47.1377ZM660.003 1.67969V55H662.003V1.67969H660.003ZM661.003 54H650.273V56H661.003V54ZM651.273 55V1.67969H649.273V55H651.273ZM650.273 2.67969H661.003V0.679688H650.273V2.67969ZM713.694 11.2012L714.661 11.4544L714.681 11.3786L714.689 11.3007L713.694 11.2012ZM702.231 55V56H703.003L703.199 55.2532L702.231 55ZM690.916 55L689.961 54.7017L689.555 56H690.916V55ZM707.578 1.67969V0.679688H706.843L706.624 1.38141L707.578 1.67969ZM714.646 1.67969L715.641 1.77919L715.751 0.679688H714.646V1.67969ZM722.739 55L721.772 55.2547L721.969 56H722.739V55ZM711.204 11.2012L710.21 11.312L710.218 11.3849L710.237 11.4559L711.204 11.2012ZM710.142 1.67969V0.679688H709.024L709.148 1.79054L710.142 1.67969ZM717.319 1.67969L718.273 1.37903L718.053 0.679688H717.319V1.67969ZM734.128 55V56H735.492L735.082 54.6993L734.128 55ZM723.142 35.1147H724.142V34.1147H723.142V35.1147ZM723.142 44.0137V45.0137H724.142V44.0137H723.142ZM699.082 44.0137H698.082V45.0137H699.082V44.0137ZM699.082 35.1147V34.1147H698.082V35.1147H699.082ZM712.726 10.948L701.264 54.7468L703.199 55.2532L714.661 11.4544L712.726 10.948ZM702.231 54H690.916V56H702.231V54ZM691.87 55.2983L708.533 1.97796L706.624 1.38141L689.961 54.7017L691.87 55.2983ZM707.578 2.67969H714.646V0.679688H707.578V2.67969ZM713.651 1.58018L712.699 11.1017L714.689 11.3007L715.641 1.77919L713.651 1.58018ZM723.706 54.7453L712.171 10.9465L710.237 11.4559L721.772 55.2547L723.706 54.7453ZM712.197 11.0903L711.135 1.56884L709.148 1.79054L710.21 11.312L712.197 11.0903ZM710.142 2.67969H717.319V0.679688H710.142V2.67969ZM716.366 1.98035L733.175 55.3007L735.082 54.6993L718.273 1.37903L716.366 1.98035ZM734.128 54H722.739V56H734.128V54ZM722.142 35.1147V44.0137H724.142V35.1147H722.142ZM723.142 43.0137H699.082V45.0137H723.142V43.0137ZM700.082 44.0137V35.1147H698.082V44.0137H700.082ZM699.082 36.1147H723.142V34.1147H699.082V36.1147ZM763.564 1.67969H764.564V0.679688H763.564V1.67969ZM763.564 55V56H764.564V55H763.564ZM752.908 55H751.908V56H752.908V55ZM752.908 1.67969V0.679688H751.908V1.67969H752.908ZM776.821 1.67969H777.821V0.679688H776.821V1.67969ZM776.821 10.5786V11.5786H777.821V10.5786H776.821ZM739.907 10.5786H738.907V11.5786H739.907V10.5786ZM739.907 1.67969V0.679688H738.907V1.67969H739.907ZM762.564 1.67969V55H764.564V1.67969H762.564ZM763.564 54H752.908V56H763.564V54ZM753.908 55V1.67969H751.908V55H753.908ZM752.908 2.67969H763.564V0.679688H752.908V2.67969ZM775.821 1.67969V10.5786H777.821V1.67969H775.821ZM776.821 9.57861H739.907V11.5786H776.821V9.57861ZM740.907 10.5786V1.67969H738.907V10.5786H740.907ZM739.907 2.67969H776.821V0.679688H739.907V2.67969ZM801.68 1.67969H802.68V0.679688H801.68V1.67969ZM801.68 55V56H802.68V55H801.68ZM791.023 55H790.023V56H791.023V55ZM791.023 1.67969V0.679688H790.023V1.67969H791.023ZM800.68 1.67969V55H802.68V1.67969H800.68ZM801.68 54H791.023V56H801.68V54ZM792.023 55V1.67969H790.023V55H792.023ZM791.023 2.67969H801.68V0.679688H791.023V2.67969ZM855.615 1.67969H856.615V0.679688L855.615 0.679688V1.67969ZM855.615 55V56H856.615V55H855.615ZM845.251 55L844.358 55.4484L844.634 56H845.251V55ZM828.516 21.6382L829.409 21.1898L827.516 21.6382H828.516ZM828.516 55V56H829.516V55H828.516ZM818.335 55H817.335V56H818.335V55ZM818.335 1.67969V0.679688H817.335V1.67969H818.335ZM828.552 1.67969L829.446 1.23209L829.17 0.679688H828.552V1.67969ZM845.435 35.4077L844.54 35.8553L846.435 35.4077H845.435ZM845.435 1.67969V0.679688H844.435V1.67969H845.435ZM854.615 1.67969V55H856.615V1.67969H854.615ZM855.615 54H845.251V56H855.615V54ZM846.145 54.5516L829.409 21.1898L827.622 22.0866L844.358 55.4484L846.145 54.5516ZM827.516 21.6382V55H829.516V21.6382H827.516ZM828.516 54H818.335V56H828.516V54ZM819.335 55V1.67969H817.335V55H819.335ZM818.335 2.67969H828.552V0.679688L818.335 0.679688V2.67969ZM827.658 2.12729L844.54 35.8553L846.329 34.9601L829.446 1.23209L827.658 2.12729ZM846.435 35.4077V1.67969H844.435V35.4077H846.435ZM845.435 2.67969H855.615V0.679688H845.435V2.67969ZM907.83 42.9883L906.879 42.677L906.878 42.682L907.83 42.9883ZM903.948 50.0562L903.199 49.3936L903.198 49.3942L903.948 50.0562ZM897.905 54.3042L897.532 53.3764L897.529 53.3777L897.905 54.3042ZM882.268 54.3042L881.892 55.2307L881.895 55.232L882.268 54.3042ZM876.189 50.0562L875.44 50.7188L875.449 50.7288L876.189 50.0562ZM872.271 42.9883L871.32 43.2996L871.321 43.302L872.271 42.9883ZM872.234 14.0942L873.188 14.3934L873.189 14.3911L872.234 14.0942ZM876.152 6.84326L876.901 7.50646L876.905 7.50177L876.152 6.84326ZM882.231 2.44873L882.616 3.37184L882.624 3.36837L882.231 2.44873ZM897.832 2.44873L897.439 3.36841L897.447 3.37181L897.832 2.44873ZM903.911 6.84326L903.159 7.50178L903.163 7.50645L903.911 6.84326ZM907.83 14.0942L906.875 14.3912L906.878 14.4008L907.83 14.0942ZM898.015 17.6465L897.035 17.8451L897.036 17.8478L898.015 17.6465ZM886.333 10.6885L885.886 9.79401L885.878 9.79823L886.333 10.6885ZM883.66 13.2153L882.817 12.6773L882.813 12.6837L882.809 12.6902L883.66 13.2153ZM882.048 17.6465L881.068 17.4478L881.066 17.4581L882.048 17.6465ZM886.406 46.0645L885.951 46.9547L885.963 46.961L885.976 46.9669L886.406 46.0645ZM893.73 46.0645L894.169 46.9631L894.178 46.9589L893.73 46.0645ZM908.221 24.2017V33.1006H910.221V24.2017H908.221ZM908.221 33.1006C908.221 36.781 907.767 39.9678 906.879 42.677L908.78 43.2996C909.748 40.3447 910.221 36.9397 910.221 33.1006H908.221ZM906.878 42.682C906.01 45.379 904.778 47.608 903.199 49.3936L904.697 50.7187C906.486 48.6957 907.843 46.2128 908.782 43.2946L906.878 42.682ZM903.198 49.3942C901.643 51.1552 899.759 52.4813 897.532 53.3764L898.278 55.232C900.788 54.2228 902.932 52.7168 904.697 50.7181L903.198 49.3942ZM897.529 53.3777C895.319 54.2754 892.849 54.7324 890.105 54.7324V56.7324C893.074 56.7324 895.804 56.2373 898.282 55.2307L897.529 53.3777ZM890.105 54.7324C887.361 54.7324 884.877 54.2755 882.641 53.3764L881.895 55.232C884.395 56.2372 887.136 56.7324 890.105 56.7324V54.7324ZM882.644 53.3777C880.44 52.4822 878.538 51.1531 876.929 49.3835L875.449 50.7288C877.258 52.719 879.409 54.2219 881.892 55.2307L882.644 53.3777ZM876.938 49.3936C875.357 47.606 874.112 45.3742 873.22 42.6745L871.321 43.302C872.284 46.2176 873.652 48.6978 875.44 50.7187L876.938 49.3936ZM873.221 42.677C872.333 39.9678 871.879 36.781 871.879 33.1006H869.879C869.879 36.9397 870.352 40.3447 871.32 43.2996L873.221 42.677ZM871.879 33.1006V24.2017H869.879V33.1006H871.879ZM871.879 24.2017C871.879 20.419 872.322 17.1549 873.188 14.3934L871.28 13.795C870.339 16.7953 869.879 20.2695 869.879 24.2017H871.879ZM873.189 14.3911C874.058 11.5971 875.301 9.31165 876.901 7.50645L875.404 6.18007C873.585 8.2323 872.217 10.7809 871.279 13.7973L873.189 14.3911ZM876.905 7.50177C878.515 5.66119 880.417 4.28817 882.616 3.37181L881.847 1.52565C879.359 2.56242 877.207 4.11908 875.4 6.18476L876.905 7.50177ZM882.624 3.36837C884.83 2.42647 887.294 1.94727 890.032 1.94727V-0.0527344C887.057 -0.0527344 884.321 0.469038 881.839 1.52909L882.624 3.36837ZM890.032 1.94727C892.769 1.94727 895.234 2.42647 897.439 3.36837L898.225 1.52909C895.743 0.469038 893.007 -0.0527344 890.032 -0.0527344V1.94727ZM897.447 3.37181C899.647 4.28817 901.548 5.66119 903.159 7.50177L904.664 6.18476C902.856 4.11908 900.705 2.56242 898.217 1.52565L897.447 3.37181ZM903.163 7.50645C904.762 9.31165 906.006 11.5971 906.875 14.3911L908.784 13.7973C907.847 10.7809 906.478 8.2323 904.66 6.18007L903.163 7.50645ZM906.878 14.4008C907.766 17.1597 908.221 20.4212 908.221 24.2017H910.221C910.221 20.2673 909.748 16.7905 908.781 13.7877L906.878 14.4008ZM899.564 33.1006V24.1284H897.564V33.1006H899.564ZM899.564 24.1284C899.564 21.5461 899.379 19.3139 898.995 17.4452L897.036 17.8478C897.384 19.5435 897.564 21.6326 897.564 24.1284H899.564ZM898.995 17.4478C898.613 15.5606 898.028 13.9581 897.21 12.6773L895.524 13.7534C896.172 14.7675 896.685 16.1191 897.035 17.8451L898.995 17.4478ZM897.21 12.6773C896.397 11.4035 895.38 10.428 894.149 9.79823L893.238 11.5787C894.107 12.0231 894.872 12.7322 895.524 13.7534L897.21 12.6773ZM894.149 9.79823C892.935 9.17706 891.553 8.88281 890.032 8.88281V10.8828C891.293 10.8828 892.353 11.1257 893.238 11.5787L894.149 9.79823ZM890.032 8.88281C888.51 8.88281 887.119 9.17727 885.886 9.79405L886.78 11.5829C887.695 11.1255 888.771 10.8828 890.032 10.8828V8.88281ZM885.878 9.79823C884.647 10.428 883.63 11.4035 882.817 12.6773L884.503 13.7534C885.154 12.7322 885.92 12.0231 886.789 11.5787L885.878 9.79823ZM882.809 12.6902C882.021 13.9674 881.45 15.5651 881.068 17.4478L883.028 17.8451C883.379 16.1145 883.883 14.7582 884.511 13.7404L882.809 12.6902ZM881.066 17.4581C880.709 19.3215 880.536 21.5491 880.536 24.1284H882.536C882.536 21.6296 882.704 19.5359 883.03 17.8348L881.066 17.4581ZM880.536 24.1284V33.1006H882.536V24.1284H880.536ZM880.536 33.1006C880.536 35.5874 880.722 37.7481 881.107 39.5695L883.063 39.1561C882.716 37.5107 882.536 35.4966 882.536 33.1006H880.536ZM881.107 39.5695C881.491 41.3872 882.078 42.9319 882.901 44.1655L884.565 43.0561C883.923 42.0925 883.412 40.8052 883.063 39.1561L881.107 39.5695ZM882.901 44.1655C883.716 45.389 884.731 46.3308 885.951 46.9547L886.862 45.1742C885.982 44.7239 885.214 44.0299 884.565 43.0561L882.901 44.1655ZM885.976 46.9669C887.205 47.5538 888.589 47.8335 890.105 47.8335V45.8335C888.837 45.8335 887.756 45.6005 886.837 45.162L885.976 46.9669ZM890.105 47.8335C891.598 47.8335 892.961 47.5529 894.169 46.963L893.292 45.1659C892.4 45.6014 891.346 45.8335 890.105 45.8335V47.8335ZM894.178 46.9589C895.426 46.3346 896.448 45.3882 897.244 44.1525L895.563 43.0691C894.943 44.0308 894.183 44.7201 893.283 45.17L894.178 46.9589ZM897.244 44.1525C898.037 42.9223 898.611 41.3824 898.994 39.5695L897.037 39.1561C896.687 40.81 896.186 42.1021 895.563 43.0691L897.244 44.1525ZM898.994 39.5695C899.378 37.7481 899.564 35.5874 899.564 33.1006H897.564C897.564 35.4966 897.384 37.5107 897.037 39.1561L898.994 39.5695Z" fill="white"/>
</svg>
