<svg width="249" height="49" viewBox="0 0 249 49" fill="none" xmlns="http://www.w3.org/2000/svg">
<path d="M9.53369 30.2266V48H5.88379V30.2266H9.53369ZM15.0024 30.2266V33.0952H0.500488V30.2266H15.0024ZM26.748 33.2661L21.9141 48H18.02L24.624 30.2266H27.1021L26.748 33.2661ZM30.7642 48L25.918 33.2661L25.5273 30.2266H28.0298L34.6704 48H30.7642ZM30.5444 41.3838V44.2524H21.1572V41.3838H30.5444ZM51.4941 45.1436V48H42.5464V45.1436H51.4941ZM43.7305 30.2266V48H40.0684V30.2266H43.7305ZM69.27 45.1436V48H59.8096V45.1436H69.27ZM61.0059 30.2266V48H57.3438V30.2266H61.0059ZM68.0371 37.4653V40.2485H59.8096V37.4653H68.0371ZM69.2578 30.2266V33.0952H59.8096V30.2266H69.2578ZM89.6216 30.2266V48H85.9595L78.8184 36.0859V48H75.1562V30.2266H78.8184L85.9717 42.1528V30.2266H89.6216ZM104.138 30.2266V48H100.488V30.2266H104.138ZM109.607 30.2266V33.0952H95.105V30.2266H109.607ZM129.702 38.6982V39.5405C129.702 40.8914 129.519 42.104 129.153 43.1782C128.787 44.2524 128.27 45.168 127.603 45.9248C126.935 46.6735 126.138 47.2472 125.21 47.646C124.29 48.0448 123.269 48.2441 122.146 48.2441C121.031 48.2441 120.01 48.0448 119.082 47.646C118.162 47.2472 117.365 46.6735 116.689 45.9248C116.014 45.168 115.489 44.2524 115.115 43.1782C114.749 42.104 114.565 40.8914 114.565 39.5405V38.6982C114.565 37.3392 114.749 36.1266 115.115 35.0605C115.481 33.9863 115.998 33.0708 116.665 32.314C117.34 31.5571 118.138 30.9793 119.058 30.5806C119.985 30.1818 121.007 29.9824 122.122 29.9824C123.245 29.9824 124.266 30.1818 125.186 30.5806C126.113 30.9793 126.911 31.5571 127.578 32.314C128.254 33.0708 128.774 33.9863 129.141 35.0605C129.515 36.1266 129.702 37.3392 129.702 38.6982ZM126.003 39.5405V38.6738C126.003 37.7298 125.918 36.8997 125.747 36.1836C125.576 35.4674 125.324 34.8652 124.99 34.377C124.657 33.8887 124.25 33.5225 123.77 33.2783C123.289 33.026 122.74 32.8999 122.122 32.8999C121.503 32.8999 120.954 33.026 120.474 33.2783C120.002 33.5225 119.599 33.8887 119.265 34.377C118.94 34.8652 118.691 35.4674 118.521 36.1836C118.35 36.8997 118.264 37.7298 118.264 38.6738V39.5405C118.264 40.4764 118.35 41.3065 118.521 42.0308C118.691 42.7469 118.944 43.3532 119.277 43.8496C119.611 44.3379 120.018 44.7082 120.498 44.9604C120.978 45.2127 121.528 45.3389 122.146 45.3389C122.764 45.3389 123.314 45.2127 123.794 44.9604C124.274 44.7082 124.677 44.3379 125.002 43.8496C125.328 43.3532 125.576 42.7469 125.747 42.0308C125.918 41.3065 126.003 40.4764 126.003 39.5405ZM157.49 45.1436V48H148.542V45.1436H157.49ZM149.727 30.2266V48H146.064V30.2266H149.727ZM170.811 33.2661L165.977 48H162.083L168.687 30.2266H171.165L170.811 33.2661ZM174.827 48L169.98 33.2661L169.59 30.2266H172.092L178.733 48H174.827ZM174.607 41.3838V44.2524H165.22V41.3838H174.607ZM190.564 30.2266V48H186.914V30.2266H190.564ZM196.033 30.2266V33.0952H181.531V30.2266H196.033ZM205.764 30.2266V48H202.114V30.2266H205.764ZM227.41 30.2266V48H223.748L216.606 36.0859V48H212.944V30.2266H216.606L223.76 42.1528V30.2266H227.41ZM248.945 38.6982V39.5405C248.945 40.8914 248.762 42.104 248.396 43.1782C248.03 44.2524 247.513 45.168 246.846 45.9248C246.178 46.6735 245.381 47.2472 244.453 47.646C243.534 48.0448 242.512 48.2441 241.389 48.2441C240.274 48.2441 239.253 48.0448 238.325 47.646C237.406 47.2472 236.608 46.6735 235.933 45.9248C235.257 45.168 234.732 44.2524 234.358 43.1782C233.992 42.104 233.809 40.8914 233.809 39.5405V38.6982C233.809 37.3392 233.992 36.1266 234.358 35.0605C234.724 33.9863 235.241 33.0708 235.908 32.314C236.584 31.5571 237.381 30.9793 238.301 30.5806C239.229 30.1818 240.25 29.9824 241.365 29.9824C242.488 29.9824 243.509 30.1818 244.429 30.5806C245.356 30.9793 246.154 31.5571 246.821 32.314C247.497 33.0708 248.018 33.9863 248.384 35.0605C248.758 36.1266 248.945 37.3392 248.945 38.6982ZM245.247 39.5405V38.6738C245.247 37.7298 245.161 36.8997 244.99 36.1836C244.819 35.4674 244.567 34.8652 244.233 34.377C243.9 33.8887 243.493 33.5225 243.013 33.2783C242.533 33.026 241.983 32.8999 241.365 32.8999C240.746 32.8999 240.197 33.026 239.717 33.2783C239.245 33.5225 238.842 33.8887 238.508 34.377C238.183 34.8652 237.935 35.4674 237.764 36.1836C237.593 36.8997 237.507 37.7298 237.507 38.6738V39.5405C237.507 40.4764 237.593 41.3065 237.764 42.0308C237.935 42.7469 238.187 43.3532 238.521 43.8496C238.854 44.3379 239.261 44.7082 239.741 44.9604C240.221 45.2127 240.771 45.3389 241.389 45.3389C242.008 45.3389 242.557 45.2127 243.037 44.9604C243.517 44.7082 243.92 44.3379 244.246 43.8496C244.571 43.3532 244.819 42.7469 244.99 42.0308C245.161 41.3065 245.247 40.4764 245.247 39.5405Z" fill="white"/>
<path d="M10.6934 13.4946L10.3151 13.6247L10.3176 13.6319L10.3203 13.639L10.6934 13.4946ZM10.1807 12.7866L9.91791 13.0883L9.92362 13.0931L10.1807 12.7866ZM7.34863 11.4805L7.2256 11.8611L7.22859 11.862L7.34863 11.4805ZM5.05371 10.6016L4.88819 10.9657L4.88974 10.9664L5.05371 10.6016ZM3.14941 9.46631L2.89837 9.77779L2.90352 9.7818L3.14941 9.46631ZM1.85547 7.94043L1.50278 8.12919L1.50488 8.13301L1.85547 7.94043ZM1.87988 3.91211L2.23177 4.10232L2.23282 4.10034L1.87988 3.91211ZM3.24707 2.34961L3.48421 2.67176L3.48707 2.66961L3.24707 2.34961ZM5.32227 1.33643L5.20982 0.952555L5.20876 0.952867L5.32227 1.33643ZM13.6719 3.63135L13.337 3.85016L13.3385 3.85247L13.6719 3.63135ZM14.4897 6.45117V6.85117H14.8897V6.45117H14.4897ZM10.8521 6.45117H10.4521V6.85117H10.8521V6.45117ZM10.5225 5.08398L10.169 5.27153L10.1738 5.28009L10.5225 5.08398ZM9.5459 4.14404L9.35904 4.49773L9.36177 4.49914L9.5459 4.14404ZM6.32324 4.09521L6.48507 4.46108L6.49087 4.4584L6.32324 4.09521ZM5.37109 4.86426L5.70394 5.08615L5.70647 5.08225L5.37109 4.86426ZM5.27344 6.75635L4.93034 6.96221L4.93551 6.97037L5.27344 6.75635ZM5.95703 7.43994L6.18701 7.11267L5.95703 7.43994ZM8.59375 8.5874L8.47536 8.96949L8.47793 8.97027L8.59375 8.5874ZM11.145 9.57617L10.9661 9.93395L10.9677 9.93473L11.145 9.57617ZM13.0005 10.8091L12.73 11.1037L13.0005 10.8091ZM14.1235 12.3594L13.757 12.5194L14.1235 12.3594ZM12.7441 17.9502L12.5056 17.6291L12.7441 17.9502ZM5.45654 18.9023L5.35005 19.2879L5.35348 19.2888L5.45654 18.9023ZM3.125 17.8403L2.89954 18.1707L2.90134 18.172L3.125 17.8403ZM0.842285 13.4336V13.0336H0.442285V13.4336H0.842285ZM4.5166 13.4336H4.9166V13.0336H4.5166V13.4336ZM5.49316 15.7651L5.25048 16.0831L5.25448 16.0861L5.49316 15.7651ZM6.61621 16.2778L6.52092 16.6663L6.52259 16.6667L6.61621 16.2778ZM9.61914 16.168L9.4607 15.8007L9.45805 15.8018L9.61914 16.168ZM10.5347 15.4233L10.1979 15.2074L10.194 15.2137L10.5347 15.4233ZM11.2398 14.3491C11.2398 13.9908 11.1847 13.6558 11.0664 13.3502L10.3203 13.639C10.3974 13.838 10.4398 14.0727 10.4398 14.3491H11.2398ZM11.0716 13.3646C10.9542 13.0231 10.7347 12.7292 10.4377 12.4801L9.92362 13.0931C10.1312 13.2672 10.2534 13.4454 10.3151 13.6247L11.0716 13.3646ZM10.4434 12.485C10.1523 12.2315 9.76168 11.9972 9.2871 11.7768L8.95021 12.5025C9.38709 12.7053 9.70446 12.9023 9.91795 13.0883L10.4434 12.485ZM9.2871 11.7768C8.80989 11.5553 8.20205 11.3296 7.46868 11.0989L7.22859 11.862C7.94379 12.087 8.51595 12.3008 8.95021 12.5025L9.2871 11.7768ZM7.47166 11.0999C6.67901 10.8436 5.92777 10.5559 5.21769 10.2367L4.88974 10.9664C5.62822 11.2983 6.40692 11.5965 7.22561 11.8611L7.47166 11.0999ZM5.21923 10.2374C4.5283 9.92336 3.92113 9.56065 3.39531 9.15082L2.90352 9.7818C3.48447 10.2346 4.14683 10.6287 4.88819 10.9657L5.21923 10.2374ZM3.40042 9.15487C2.89324 8.7461 2.49678 8.27711 2.20606 7.74785L1.50488 8.13301C1.84892 8.75934 2.31509 9.30762 2.8984 9.77775L3.40042 9.15487ZM2.20813 7.75168C1.93479 7.24096 1.7916 6.63644 1.7916 5.92627H0.991602C0.991602 6.74605 1.15766 7.4843 1.5028 8.12918L2.20813 7.75168ZM1.7916 5.92627C1.7916 5.24655 1.94037 4.64139 2.23177 4.10232L1.528 3.7219C1.16835 4.38726 0.991602 5.12487 0.991602 5.92627H1.7916ZM2.23282 4.10034C2.52877 3.54545 2.94383 3.06952 3.4842 2.67174L3.00994 2.02747C2.37844 2.49233 1.88204 3.05807 1.52694 3.72387L2.23282 4.10034ZM3.48707 2.66961C4.03017 2.26229 4.67773 1.9443 5.43577 1.71998L5.20876 0.952867C4.37175 1.20056 3.63585 1.55802 3.00707 2.02961L3.48707 2.66961ZM5.43471 1.7203C6.19904 1.4964 7.0436 1.38242 7.97119 1.38242V0.582422C6.97821 0.582422 6.05682 0.704446 5.20982 0.952556L5.43471 1.7203ZM7.97119 1.38242C9.23348 1.38242 10.3151 1.60969 11.2273 2.05057L11.5754 1.33029C10.5345 0.827158 9.32934 0.582422 7.97119 0.582422V1.38242ZM11.2273 2.05057C12.1455 2.49436 12.8438 3.0953 13.337 3.85016L14.0067 3.41254C13.4258 2.52352 12.6104 1.83051 11.5754 1.33029L11.2273 2.05057ZM13.3385 3.85247C13.8371 4.60404 14.0897 5.4659 14.0897 6.45117H14.8897C14.8897 5.32056 14.5971 4.30253 14.0052 3.41023L13.3385 3.85247ZM14.4897 6.05117H10.8521V6.85117H14.4897V6.05117ZM11.2521 6.45117C11.2521 5.87288 11.1296 5.34746 10.8711 4.88788L10.1738 5.28009C10.3548 5.60176 10.4521 5.9878 10.4521 6.45117H11.2521ZM10.8758 4.8965C10.6225 4.41905 10.2343 4.05042 9.73003 3.78894L9.36177 4.49914C9.7364 4.69339 9.99928 4.95139 10.1691 5.27147L10.8758 4.8965ZM9.73275 3.79037C9.22721 3.52329 8.6126 3.40225 7.91016 3.40225V4.20225C8.52607 4.20225 9.00196 4.30907 9.35905 4.49772L9.73275 3.79037ZM7.91016 3.40225C7.23729 3.40225 6.64675 3.50536 6.15562 3.73203L6.49087 4.4584C6.84609 4.29445 7.3135 4.20225 7.91016 4.20225V3.40225ZM6.16144 3.7294C5.68111 3.94186 5.29714 4.24407 5.03572 4.64626L5.70647 5.08225C5.86822 4.8334 6.11902 4.62292 6.48504 4.46103L6.16144 3.7294ZM5.03827 4.64238C4.78083 5.02855 4.65371 5.46453 4.65371 5.93848H5.45371C5.45371 5.6149 5.53818 5.33473 5.70391 5.08614L5.03827 4.64238ZM4.65371 5.93848C4.65371 6.30773 4.74448 6.65221 4.93044 6.96215L5.61643 6.55055C5.50943 6.3722 5.45371 6.17143 5.45371 5.93848H4.65371ZM4.93551 6.97037C5.12487 7.26935 5.39417 7.5333 5.72705 7.76722L6.18701 7.11267C5.91768 6.9234 5.73125 6.73162 5.61137 6.54233L4.93551 6.97037ZM5.72705 7.76722C6.05668 7.99885 6.45308 8.211 6.91113 8.4061L7.22462 7.67008C6.80376 7.49082 6.4596 7.30421 6.18701 7.11267L5.72705 7.76722ZM6.91113 8.4061C7.3659 8.59979 7.88779 8.78742 8.47536 8.96948L8.71214 8.20532C8.14411 8.02931 7.64875 7.85073 7.22462 7.67008L6.91113 8.4061ZM8.47793 8.97027C9.42949 9.25814 10.2581 9.5799 10.9661 9.93394L11.3239 9.2184C10.5671 8.84002 9.69485 8.50261 8.70957 8.20454L8.47793 8.97027ZM10.9677 9.93473C11.6817 10.2878 12.2669 10.6786 12.73 11.1037L13.271 10.5144C12.7412 10.0281 12.0895 9.59697 11.3223 9.21762L10.9677 9.93473ZM12.73 11.1037C13.1882 11.5244 13.5285 11.9962 13.757 12.5194L14.4901 12.1993C14.214 11.567 13.8056 11.0052 13.271 10.5144L12.73 11.1037ZM13.757 12.5194C13.9839 13.0392 14.102 13.6385 14.102 14.3247H14.902C14.902 13.546 14.7677 12.8351 14.4901 12.1993L13.757 12.5194ZM14.102 14.3247C14.102 15.0448 13.962 15.6747 13.6916 16.2229L14.409 16.5769C14.7408 15.9044 14.902 15.1508 14.902 14.3247H14.102ZM13.6916 16.2229C13.4197 16.7739 13.0266 17.2421 12.5056 17.6291L12.9827 18.2713C13.601 17.812 14.0786 17.2466 14.409 16.5769L13.6916 16.2229ZM12.5056 17.6291C11.981 18.0188 11.3476 18.3206 10.5983 18.5292L10.8128 19.2999C11.6423 19.069 12.368 18.7279 12.9827 18.2713L12.5056 17.6291ZM10.5983 18.5292C9.84977 18.7376 9.00366 18.8441 8.05664 18.8441V19.6441C9.06274 19.6441 9.98259 19.531 10.8128 19.2999L10.5983 18.5292ZM8.05664 18.8441C7.21275 18.8441 6.38069 18.7348 5.55961 18.5159L5.35348 19.2888C6.24138 19.5256 7.14272 19.6441 8.05664 19.6441V18.8441ZM5.56303 18.5168C4.74815 18.2917 4.01088 17.9553 3.34866 17.5087L2.90134 18.172C3.63886 18.6694 4.45595 19.041 5.35005 19.2879L5.56303 18.5168ZM3.35046 17.5099C2.70949 17.0726 2.19792 16.516 1.81285 15.8365L1.11683 16.2309C1.56185 17.0162 2.15704 17.6641 2.89954 18.1707L3.35046 17.5099ZM1.81285 15.8365C1.43781 15.1747 1.24229 14.3785 1.24229 13.4336H0.442285C0.442285 14.4906 0.661795 15.4279 1.11683 16.2309L1.81285 15.8365ZM0.842285 13.8336H4.5166V13.0336H0.842285V13.8336ZM4.1166 13.4336C4.1166 14.026 4.2078 14.5531 4.40775 15.0006L5.13815 14.6742C4.9963 14.3567 4.9166 13.9479 4.9166 13.4336H4.1166ZM4.40775 15.0006C4.60376 15.4393 4.88406 15.8035 5.25049 16.0831L5.73583 15.4472C5.48378 15.2548 5.28394 15.0005 5.13815 14.6742L4.40775 15.0006ZM5.25448 16.0861C5.61964 16.3577 6.04415 16.5494 6.52092 16.6663L6.7115 15.8893C6.32565 15.7947 6.00145 15.6446 5.73185 15.4442L5.25448 16.0861ZM6.52259 16.6667C6.99693 16.7809 7.50894 16.8365 8.05664 16.8365V16.0365C7.56267 16.0365 7.1144 15.9863 6.70983 15.8889L6.52259 16.6667ZM8.05664 16.8365C8.72491 16.8365 9.30572 16.7429 9.78024 16.5341L9.45805 15.8018C9.11876 15.9511 8.6579 16.0365 8.05664 16.0365V16.8365ZM9.77758 16.5353C10.2518 16.3307 10.6284 16.0342 10.8753 15.633L10.194 15.2137C10.0503 15.4473 9.81659 15.6472 9.4607 15.8007L9.77758 16.5353ZM10.8714 15.6392C11.1186 15.2536 11.2398 14.8198 11.2398 14.3491H10.4398C10.4398 14.676 10.3576 14.9583 10.1979 15.2075L10.8714 15.6392ZM33.2422 16.9248L33.5408 17.191L33.5422 17.1893L33.2422 16.9248ZM30.8496 18.646L30.6917 18.2785L30.6905 18.279L30.8496 18.646ZM24.7217 18.646L24.5625 19.013L24.5637 19.0135L24.7217 18.646ZM22.3291 16.9248L22.0307 17.1912L22.0321 17.1927L22.3291 16.9248ZM20.7544 14.1782L20.3758 14.3073L20.3767 14.3099L20.7544 14.1782ZM20.7544 6.06055L21.1327 6.1905L21.133 6.18962L20.7544 6.06055ZM22.3047 3.31396L22.0063 3.04762L22.0047 3.04942L22.3047 3.31396ZM24.6973 1.58057L24.5393 1.21307L24.5381 1.21358L24.6973 1.58057ZM30.8252 1.58057L30.6661 1.94755L30.6672 1.94806L30.8252 1.58057ZM33.2178 3.31396L32.9177 3.57851L32.9193 3.58031L33.2178 3.31396ZM34.7803 6.06055L34.4017 6.18962L34.4029 6.19307L34.7803 6.06055ZM31.3867 7.18359L30.9976 7.27644L31.3867 7.18359ZM29.4092 4.27832L29.2231 4.63245L29.2279 4.63487L29.4092 4.27832ZM26.1133 4.27832L26.2971 4.63361L26.2993 4.63242L26.1133 4.27832ZM24.9048 5.37695L24.5745 5.15126L24.572 5.15507L24.9048 5.37695ZM24.1602 13.0308L23.7708 13.1226L23.7711 13.1236L24.1602 13.0308ZM24.917 14.8496L24.585 15.0728L24.5867 15.0753L24.917 14.8496ZM26.1377 15.9604L25.9516 16.3145L26.1377 15.9604ZM29.4336 15.9604L29.6196 16.3145L29.4336 15.9604ZM30.6421 14.8496L30.9749 15.0715L30.9766 15.069L30.6421 14.8496ZM31.3867 13.0308L31.7758 13.1236L31.776 13.1226L31.3867 13.0308ZM34.9418 9.69824V10.5405H35.7418V9.69824H34.9418ZM34.9418 10.5405C34.9418 11.8557 34.7635 13.0235 34.4139 14.0492L35.1711 14.3073C35.5539 13.1845 35.7418 11.9272 35.7418 10.5405H34.9418ZM34.4139 14.0492C34.0626 15.0797 33.5705 15.9476 32.9422 16.6603L33.5422 17.1893C34.2485 16.3883 34.79 15.4252 35.1711 14.3073L34.4139 14.0492ZM32.9436 16.6587C32.3155 17.3634 31.566 17.9027 30.6917 18.2785L31.0076 19.0135C31.9886 18.5918 32.8343 17.9836 33.5408 17.191L32.9436 16.6587ZM30.6905 18.279C29.8268 18.6535 28.8605 18.8441 27.7856 18.8441V19.6441C28.9568 19.6441 30.0332 19.436 31.0087 19.013L30.6905 18.279ZM27.7856 18.8441C26.7194 18.8441 25.7525 18.6537 24.8796 18.2785L24.5637 19.0135C25.5463 19.4358 26.6221 19.6441 27.7856 19.6441V18.8441ZM24.8808 18.279C24.0141 17.9032 23.2635 17.3633 22.6261 16.6569L22.0321 17.1927C22.7457 17.9837 23.5901 18.5913 24.5625 19.013L24.8808 18.279ZM22.6275 16.6585C21.9911 15.9454 21.4913 15.0772 21.1321 14.0466L20.3767 14.3099C20.7662 15.4277 21.3162 16.3906 22.0307 17.1911L22.6275 16.6585ZM21.133 14.0492C20.7834 13.0235 20.6051 11.8557 20.6051 10.5405H19.8051C19.8051 11.9272 19.993 13.1845 20.3758 14.3073L21.133 14.0492ZM20.6051 10.5405V9.69824H19.8051V10.5405H20.6051ZM20.6051 9.69824C20.6051 8.3746 20.7835 7.20717 21.1327 6.1905L20.3761 5.9306C19.9929 7.04609 19.8051 8.30378 19.8051 9.69824H20.6051ZM21.133 6.18962C21.4843 5.15908 21.9764 4.29116 22.6047 3.57851L22.0047 3.04942C21.2984 3.85044 20.7569 4.81358 20.3758 5.93148L21.133 6.18962ZM22.6031 3.58031C23.2405 2.86618 23.9906 2.32297 24.8564 1.94755L24.5381 1.21358C23.5647 1.63569 22.7198 2.24808 22.0063 3.04762L22.6031 3.58031ZM24.8552 1.94806C25.7281 1.57288 26.695 1.38242 27.7612 1.38242V0.582422C26.5977 0.582422 25.5219 0.79073 24.5393 1.21308L24.8552 1.94806ZM27.7612 1.38242C28.8361 1.38242 29.8024 1.57305 30.6661 1.94755L30.9843 1.21358C30.0088 0.79056 28.9324 0.582422 27.7612 0.582422V1.38242ZM30.6672 1.94806C31.5406 2.32346 32.2896 2.86611 32.9177 3.57851L33.5178 3.04942C32.8113 2.24814 31.9652 1.6352 30.9832 1.21308L30.6672 1.94806ZM32.9193 3.58031C33.5552 4.29272 34.0507 5.16004 34.4017 6.18962L35.1589 5.93148C34.7774 4.81262 34.2313 3.84888 33.5162 3.04762L32.9193 3.58031ZM34.4029 6.19307C34.7596 7.20893 34.9418 8.37544 34.9418 9.69824H35.7418C35.7418 8.30294 35.5497 7.04433 35.1577 5.92802L34.4029 6.19307ZM32.0431 10.5405V9.67383H31.2431V10.5405H32.0431ZM32.0431 9.67383C32.0431 8.70684 31.9557 7.84444 31.7758 7.09075L30.9976 7.27644C31.1596 7.95504 31.2431 8.75279 31.2431 9.67383H32.0431ZM31.7758 7.09075C31.5962 6.33831 31.3272 5.6884 30.9601 5.15128L30.2996 5.60263C30.5999 6.04207 30.8354 6.59658 30.9976 7.27644L31.7758 7.09075ZM30.9601 5.15128C30.5924 4.61311 30.1362 4.19925 29.5905 3.92177L29.2279 4.63487C29.6425 4.84567 30.0001 5.16423 30.2996 5.60263L30.9601 5.15128ZM29.5952 3.92422C29.0501 3.6378 28.4354 3.4999 27.7612 3.4999V4.2999C28.3241 4.2999 28.808 4.41429 29.2231 4.63242L29.5952 3.92422ZM27.7612 3.4999C27.0871 3.4999 26.4724 3.6378 25.9272 3.92422L26.2993 4.63242C26.7145 4.41429 27.1984 4.2999 27.7612 4.2999V3.4999ZM25.9295 3.92303C25.3923 4.2009 24.9412 4.61462 24.5745 5.15128L25.235 5.60263C25.5356 5.16273 25.8903 4.84402 26.2971 4.63361L25.9295 3.92303ZM24.572 5.15507C24.2145 5.69129 23.9503 6.33984 23.7711 7.09075L24.5492 7.27644C24.7118 6.59506 24.944 6.03918 25.2376 5.59883L24.572 5.15507ZM23.7711 7.09075C23.5912 7.84444 23.5038 8.70684 23.5038 9.67383H24.3038C24.3038 8.75279 24.3873 7.95504 24.5492 7.27644L23.7711 7.09075ZM23.5038 9.67383V10.5405H24.3038V9.67383H23.5038ZM23.5038 10.5405C23.5038 11.4998 23.5913 12.3617 23.7708 13.1226L24.5495 12.9389C24.3872 12.2513 24.3038 11.453 24.3038 10.5405H23.5038ZM23.7711 13.1236C23.9506 13.8759 24.2193 14.5287 24.585 15.0727L25.249 14.6265C24.9473 14.1777 24.7115 13.6179 24.5492 12.9379L23.7711 13.1236ZM24.5867 15.0753C24.9538 15.6125 25.4085 16.0292 25.9516 16.3145L26.3237 15.6064C25.9066 15.3871 25.5475 15.0633 25.2472 14.6239L24.5867 15.0753ZM25.9516 16.3145C26.4968 16.601 27.1115 16.7389 27.7856 16.7389V15.9389C27.2228 15.9389 26.7389 15.8245 26.3237 15.6064L25.9516 16.3145ZM27.7856 16.7389C28.4598 16.7389 29.0745 16.601 29.6196 16.3145L29.2475 15.6064C28.8324 15.8245 28.3485 15.9389 27.7856 15.9389V16.7389ZM29.6196 16.3145C30.1638 16.0286 30.6154 15.6107 30.9749 15.0715L30.3093 14.6277C30.0177 15.065 29.6637 15.3877 29.2475 15.6064L29.6196 16.3145ZM30.9766 15.069C31.3327 14.5258 31.5966 13.8744 31.7758 13.1236L30.9976 12.9379C30.835 13.6195 30.6025 14.1806 30.3076 14.6303L30.9766 15.069ZM31.776 13.1226C31.9556 12.3617 32.0431 11.4998 32.0431 10.5405H31.2431C31.2431 11.453 31.1597 12.2513 30.9974 12.9389L31.776 13.1226ZM43.4009 1.22656V0.826562H42.8311L43.0247 1.36247L43.4009 1.22656ZM46.5015 1.22656L46.879 1.09447L46.7853 0.826562H46.5015V1.22656ZM51.0669 14.2759L50.6893 14.408L51.0669 15.4871L51.4445 14.408L51.0669 14.2759ZM55.6323 1.22656V0.826562H55.3485L55.2548 1.09447L55.6323 1.22656ZM58.7329 1.22656L59.1091 1.36247L59.3027 0.826562H58.7329V1.22656ZM52.312 19V19.4H52.5928L52.6882 19.1359L52.312 19ZM49.8218 19L49.4456 19.1359L49.541 19.4H49.8218V19ZM41.7285 1.22656V0.826562H41.3285V1.22656H41.7285ZM44.8169 1.22656L45.2165 1.20892L45.1996 0.826562H44.8169V1.22656ZM45.3784 13.9463H45.7784V13.9375L45.778 13.9286L45.3784 13.9463ZM45.3784 19V19.4H45.7784V19H45.3784ZM41.7285 19H41.3285V19.4H41.7285V19ZM57.3169 1.22656V0.826562H56.9342L56.9173 1.20892L57.3169 1.22656ZM60.4175 1.22656H60.8175V0.826562H60.4175V1.22656ZM60.4175 19V19.4H60.8175V19H60.4175ZM56.7554 19H56.3554V19.4H56.7554V19ZM56.7554 13.9463L56.3558 13.9286L56.3554 13.9375V13.9463H56.7554ZM43.4009 1.62656H46.5015V0.826562H43.4009V1.62656ZM46.1239 1.35866L50.6893 14.408L51.4445 14.1438L46.879 1.09447L46.1239 1.35866ZM51.4445 14.408L56.0099 1.35866L55.2548 1.09447L50.6893 14.1438L51.4445 14.408ZM55.6323 1.62656H58.7329V0.826562H55.6323V1.62656ZM58.3567 1.09065L51.9358 18.8641L52.6882 19.1359L59.1091 1.36247L58.3567 1.09065ZM52.312 18.6H49.8218V19.4H52.312V18.6ZM50.198 18.8641L43.7771 1.09065L43.0247 1.36247L49.4456 19.1359L50.198 18.8641ZM41.7285 1.62656H44.8169V0.826562H41.7285V1.62656ZM44.4173 1.2442L44.9788 13.9639L45.778 13.9286L45.2165 1.20892L44.4173 1.2442ZM44.9784 13.9463V19H45.7784V13.9463H44.9784ZM45.3784 18.6H41.7285V19.4H45.3784V18.6ZM42.1285 19V1.22656H41.3285V19H42.1285ZM57.3169 1.62656H60.4175V0.826562H57.3169V1.62656ZM60.0175 1.22656V19H60.8175V1.22656H60.0175ZM60.4175 18.6H56.7554V19.4H60.4175V18.6ZM57.1554 19V13.9463H56.3554V19H57.1554ZM57.155 13.9639L57.7165 1.2442L56.9173 1.20892L56.3558 13.9286L57.155 13.9639ZM79.8779 16.9248L80.1765 17.191L80.178 17.1893L79.8779 16.9248ZM77.4854 18.646L77.3274 18.2785L77.3262 18.279L77.4854 18.646ZM71.3574 18.646L71.1983 19.013L71.1995 19.0135L71.3574 18.646ZM68.9648 16.9248L68.6664 17.1912L68.6678 17.1927L68.9648 16.9248ZM67.3901 14.1782L67.0115 14.3073L67.0124 14.3099L67.3901 14.1782ZM67.3901 6.06055L67.7684 6.1905L67.7687 6.18962L67.3901 6.06055ZM68.9404 3.31396L68.642 3.04762L68.6404 3.04942L68.9404 3.31396ZM71.333 1.58057L71.175 1.21307L71.1739 1.21358L71.333 1.58057ZM77.4609 1.58057L77.3018 1.94755L77.303 1.94806L77.4609 1.58057ZM79.8535 3.31396L79.5535 3.57851L79.5551 3.58031L79.8535 3.31396ZM81.416 6.06055L81.0374 6.18962L81.0386 6.19307L81.416 6.06055ZM78.0225 7.18359L77.6334 7.27644L78.0225 7.18359ZM76.0449 4.27832L75.8589 4.63245L75.8636 4.63487L76.0449 4.27832ZM72.749 4.27832L72.9328 4.63361L72.9351 4.63242L72.749 4.27832ZM71.5405 5.37695L71.2103 5.15126L71.2077 5.15507L71.5405 5.37695ZM70.7959 13.0308L70.4066 13.1226L70.4068 13.1236L70.7959 13.0308ZM71.5527 14.8496L71.2207 15.0728L71.2225 15.0753L71.5527 14.8496ZM72.7734 15.9604L72.5874 16.3145L72.7734 15.9604ZM76.0693 15.9604L76.2554 16.3145L76.0693 15.9604ZM77.2778 14.8496L77.6107 15.0715L77.6123 15.069L77.2778 14.8496ZM78.0225 13.0308L78.4115 13.1236L78.4118 13.1226L78.0225 13.0308ZM81.5775 9.69824V10.5405H82.3775V9.69824H81.5775ZM81.5775 10.5405C81.5775 11.8557 81.3993 13.0235 81.0496 14.0492L81.8068 14.3073C82.1896 13.1845 82.3775 11.9272 82.3775 10.5405H81.5775ZM81.0496 14.0492C80.6983 15.0797 80.2063 15.9476 79.5779 16.6603L80.178 17.1893C80.8842 16.3883 81.4257 15.4252 81.8068 14.3073L81.0496 14.0492ZM79.5793 16.6587C78.9512 17.3634 78.2018 17.9027 77.3274 18.2785L77.6433 19.0135C78.6244 18.5918 79.47 17.9836 80.1765 17.191L79.5793 16.6587ZM77.3262 18.279C76.4626 18.6535 75.4963 18.8441 74.4214 18.8441V19.6441C75.5926 19.6441 76.6689 19.436 77.6445 19.013L77.3262 18.279ZM74.4214 18.8441C73.3551 18.8441 72.3882 18.6537 71.5154 18.2785L71.1995 19.0135C72.1821 19.4358 73.2578 19.6441 74.4214 19.6441V18.8441ZM71.5166 18.279C70.6498 17.9032 69.8992 17.3633 69.2618 16.6569L68.6678 17.1927C69.3814 17.9837 70.2259 18.5913 71.1983 19.013L71.5166 18.279ZM69.2633 16.6585C68.6269 15.9454 68.127 15.0772 67.7679 14.0466L67.0124 14.3099C67.402 15.4277 67.9519 16.3906 68.6664 17.1911L69.2633 16.6585ZM67.7687 14.0492C67.4191 13.0235 67.2408 11.8557 67.2408 10.5405H66.4408C66.4408 11.9272 66.6288 13.1845 67.0115 14.3073L67.7687 14.0492ZM67.2408 10.5405V9.69824H66.4408V10.5405H67.2408ZM67.2408 9.69824C67.2408 8.3746 67.4192 7.20717 67.7684 6.1905L67.0118 5.9306C66.6287 7.04609 66.4408 8.30378 66.4408 9.69824H67.2408ZM67.7687 6.18962C68.1201 5.15908 68.6121 4.29116 69.2405 3.57851L68.6404 3.04942C67.9341 3.85044 67.3926 4.81358 67.0115 5.93148L67.7687 6.18962ZM69.2389 3.58031C69.8762 2.86618 70.6264 2.32297 71.4921 1.94755L71.1739 1.21358C70.2004 1.63569 69.3556 2.24808 68.642 3.04762L69.2389 3.58031ZM71.491 1.94806C72.3638 1.57288 73.3307 1.38242 74.397 1.38242V0.582422C73.2334 0.582422 72.1577 0.79073 71.175 1.21308L71.491 1.94806ZM74.397 1.38242C75.4719 1.38242 76.4382 1.57305 77.3018 1.94755L77.6201 1.21358C76.6445 0.79056 75.5682 0.582422 74.397 0.582422V1.38242ZM77.303 1.94806C78.1764 2.32346 78.9254 2.86611 79.5535 3.57851L80.1535 3.04942C79.447 2.24814 78.601 1.6352 77.6189 1.21308L77.303 1.94806ZM79.5551 3.58031C80.1909 4.29272 80.6864 5.16004 81.0374 6.18962L81.7946 5.93148C81.4132 4.81262 80.867 3.84888 80.1519 3.04762L79.5551 3.58031ZM81.0386 6.19307C81.3953 7.20893 81.5775 8.37544 81.5775 9.69824H82.3775C82.3775 8.30294 82.1854 7.04433 81.7934 5.92802L81.0386 6.19307ZM78.6788 10.5405V9.67383H77.8788V10.5405H78.6788ZM78.6788 9.67383C78.6788 8.70684 78.5914 7.84444 78.4115 7.09075L77.6334 7.27644C77.7953 7.95504 77.8788 8.75279 77.8788 9.67383H78.6788ZM78.4115 7.09075C78.232 6.33831 77.9629 5.6884 77.5959 5.15128L76.9354 5.60263C77.2356 6.04207 77.4711 6.59658 77.6334 7.27644L78.4115 7.09075ZM77.5959 5.15128C77.2281 4.61311 76.7719 4.19925 76.2262 3.92177L75.8636 4.63487C76.2782 4.84567 76.6358 5.16423 76.9354 5.60263L77.5959 5.15128ZM76.231 3.92422C75.6858 3.6378 75.0711 3.4999 74.397 3.4999V4.2999C74.9598 4.2999 75.4437 4.41429 75.8589 4.63242L76.231 3.92422ZM74.397 3.4999C73.7228 3.4999 73.1081 3.6378 72.563 3.92422L72.9351 4.63242C73.3502 4.41429 73.8341 4.2999 74.397 4.2999V3.4999ZM72.5653 3.92303C72.028 4.2009 71.577 4.61462 71.2103 5.15128L71.8708 5.60263C72.1714 5.16273 72.526 4.84402 72.9328 4.63361L72.5653 3.92303ZM71.2077 5.15507C70.8502 5.69129 70.586 6.33984 70.4068 7.09075L71.185 7.27644C71.3476 6.59506 71.5798 6.03918 71.8733 5.59883L71.2077 5.15507ZM70.4068 7.09075C70.227 7.84444 70.1395 8.70684 70.1395 9.67383H70.9396C70.9396 8.75279 71.023 7.95504 71.185 7.27644L70.4068 7.09075ZM70.1395 9.67383V10.5405H70.9396V9.67383H70.1395ZM70.1395 10.5405C70.1395 11.4998 70.227 12.3617 70.4066 13.1226L71.1852 12.9389C71.023 12.2513 70.9396 11.453 70.9396 10.5405H70.1395ZM70.4068 13.1236C70.5863 13.8759 70.8551 14.5287 71.2208 15.0727L71.8847 14.6265C71.5831 14.1777 71.3473 13.6179 71.185 12.9379L70.4068 13.1236ZM71.2225 15.0753C71.5896 15.6125 72.0443 16.0292 72.5874 16.3145L72.9595 15.6064C72.5423 15.3871 72.1832 15.0633 71.883 14.6239L71.2225 15.0753ZM72.5874 16.3145C73.1325 16.601 73.7473 16.7389 74.4214 16.7389V15.9389C73.8585 15.9389 73.3746 15.8245 72.9595 15.6064L72.5874 16.3145ZM74.4214 16.7389C75.0955 16.7389 75.7103 16.601 76.2554 16.3145L75.8833 15.6064C75.4681 15.8245 74.9842 15.9389 74.4214 15.9389V16.7389ZM76.2554 16.3145C76.7995 16.0286 77.2512 15.6107 77.6106 15.0715L76.945 14.6277C76.6535 15.065 76.2994 15.3877 75.8833 15.6064L76.2554 16.3145ZM77.6123 15.069C77.9685 14.5258 78.2324 13.8744 78.4115 13.1236L77.6334 12.9379C77.4707 13.6195 77.2382 14.1806 76.9433 14.6303L77.6123 15.069ZM78.4118 13.1226C78.5913 12.3617 78.6788 11.4998 78.6788 10.5405H77.8788C77.8788 11.453 77.7954 12.2513 77.6331 12.9389L78.4118 13.1226ZM97.4707 13.4946L97.0924 13.6247L97.0949 13.6319L97.0977 13.639L97.4707 13.4946ZM96.958 12.7866L96.6953 13.0883L96.701 13.0931L96.958 12.7866ZM94.126 11.4805L94.0029 11.8611L94.0059 11.862L94.126 11.4805ZM91.8311 10.6016L91.6655 10.9657L91.6671 10.9664L91.8311 10.6016ZM89.9268 9.46631L89.6757 9.77779L89.6809 9.7818L89.9268 9.46631ZM88.6328 7.94043L88.2801 8.12919L88.2822 8.13301L88.6328 7.94043ZM88.6572 3.91211L89.0091 4.10232L89.0102 4.10034L88.6572 3.91211ZM90.0244 2.34961L90.2616 2.67176L90.2644 2.66961L90.0244 2.34961ZM92.0996 1.33643L91.9872 0.952555L91.9861 0.952867L92.0996 1.33643ZM100.449 3.63135L100.114 3.85016L100.116 3.85247L100.449 3.63135ZM101.267 6.45117V6.85117H101.667V6.45117H101.267ZM97.6294 6.45117H97.2294V6.85117H97.6294V6.45117ZM97.2998 5.08398L96.9464 5.27153L96.9512 5.28009L97.2998 5.08398ZM96.3232 4.14404L96.1364 4.49773L96.1391 4.49914L96.3232 4.14404ZM93.1006 4.09521L93.2624 4.46108L93.2682 4.4584L93.1006 4.09521ZM92.1484 4.86426L92.4813 5.08615L92.4838 5.08225L92.1484 4.86426ZM92.0508 6.75635L91.7077 6.96221L91.7129 6.97037L92.0508 6.75635ZM92.7344 7.43994L92.9644 7.11267L92.7344 7.43994ZM95.3711 8.5874L95.2527 8.96949L95.2553 8.97027L95.3711 8.5874ZM97.9224 9.57617L97.7435 9.93395L97.7451 9.93473L97.9224 9.57617ZM99.7778 10.8091L99.5073 11.1037L99.7778 10.8091ZM100.901 12.3594L100.534 12.5194L100.901 12.3594ZM99.5215 17.9502L99.283 17.6291L99.5215 17.9502ZM92.2339 18.9023L92.1274 19.2879L92.1308 19.2888L92.2339 18.9023ZM89.9023 17.8403L89.6769 18.1707L89.6787 18.172L89.9023 17.8403ZM87.6196 13.4336V13.0336H87.2196V13.4336H87.6196ZM91.2939 13.4336H91.6939V13.0336H91.2939V13.4336ZM92.2705 15.7651L92.0278 16.0831L92.0318 16.0861L92.2705 15.7651ZM93.3936 16.2778L93.2983 16.6663L93.2999 16.6667L93.3936 16.2778ZM96.3965 16.168L96.238 15.8007L96.2354 15.8018L96.3965 16.168ZM97.312 15.4233L96.9752 15.2074L96.9714 15.2137L97.312 15.4233ZM98.0172 14.3491C98.0172 13.9908 97.962 13.6558 97.8437 13.3502L97.0977 13.639C97.1747 13.838 97.2172 14.0727 97.2172 14.3491H98.0172ZM97.849 13.3646C97.7316 13.0231 97.5121 12.7292 97.215 12.4801L96.701 13.0931C96.9085 13.2672 97.0308 13.4454 97.0924 13.6247L97.849 13.3646ZM97.2207 12.485C96.9297 12.2315 96.539 11.9972 96.0644 11.7768L95.7276 12.5025C96.1644 12.7053 96.4818 12.9023 96.6953 13.0883L97.2207 12.485ZM96.0644 11.7768C95.5872 11.5553 94.9794 11.3296 94.246 11.0989L94.0059 11.862C94.7211 12.087 95.2933 12.3008 95.7276 12.5025L96.0644 11.7768ZM94.249 11.0999C93.4564 10.8436 92.7051 10.5559 91.995 10.2367L91.6671 10.9664C92.4056 11.2983 93.1843 11.5965 94.003 11.8611L94.249 11.0999ZM91.9966 10.2374C91.3056 9.92336 90.6985 9.56065 90.1727 9.15082L89.6809 9.7818C90.2618 10.2346 90.9242 10.6287 91.6655 10.9657L91.9966 10.2374ZM90.1778 9.15487C89.6706 8.7461 89.2741 8.27711 88.9834 7.74785L88.2822 8.13301C88.6263 8.75934 89.0924 9.30762 89.6758 9.77775L90.1778 9.15487ZM88.9855 7.75168C88.7121 7.24096 88.5689 6.63644 88.5689 5.92627H87.7689C87.7689 6.74605 87.935 7.4843 88.2801 8.12918L88.9855 7.75168ZM88.5689 5.92627C88.5689 5.24655 88.7177 4.64139 89.0091 4.10232L88.3053 3.7219C87.9457 4.38726 87.7689 5.12487 87.7689 5.92627H88.5689ZM89.0102 4.10034C89.3061 3.54545 89.7212 3.06952 90.2615 2.67174L89.7873 2.02747C89.1558 2.49233 88.6594 3.05807 88.3043 3.72387L89.0102 4.10034ZM90.2644 2.66961C90.8075 2.26229 91.4551 1.9443 92.2131 1.71998L91.9861 0.952867C91.1491 1.20056 90.4132 1.55802 89.7844 2.02961L90.2644 2.66961ZM92.2121 1.7203C92.9764 1.4964 93.8209 1.38242 94.7485 1.38242V0.582422C93.7555 0.582422 92.8342 0.704446 91.9872 0.952556L92.2121 1.7203ZM94.7485 1.38242C96.0108 1.38242 97.0925 1.60969 98.0046 2.05057L98.3528 1.33029C97.3118 0.827158 96.1067 0.582422 94.7485 0.582422V1.38242ZM98.0046 2.05057C98.9228 2.49436 99.6211 3.0953 100.114 3.85016L100.784 3.41254C100.203 2.52352 99.3877 1.83051 98.3528 1.33029L98.0046 2.05057ZM100.116 3.85247C100.614 4.60404 100.867 5.4659 100.867 6.45117H101.667C101.667 5.32056 101.374 4.30253 100.783 3.41023L100.116 3.85247ZM101.267 6.05117H97.6294V6.85117H101.267V6.05117ZM98.0294 6.45117C98.0294 5.87288 97.907 5.34746 97.6484 4.88788L96.9512 5.28009C97.1321 5.60176 97.2294 5.9878 97.2294 6.45117H98.0294ZM97.6531 4.8965C97.3998 4.41905 97.0117 4.05042 96.5074 3.78894L96.1391 4.49914C96.5137 4.69339 96.7766 4.95139 96.9465 5.27147L97.6531 4.8965ZM96.5101 3.79037C96.0046 3.52329 95.3899 3.40225 94.6875 3.40225V4.20225C95.3034 4.20225 95.7793 4.30907 96.1364 4.49772L96.5101 3.79037ZM94.6875 3.40225C94.0146 3.40225 93.4241 3.50536 92.933 3.73203L93.2682 4.4584C93.6234 4.29445 94.0908 4.20225 94.6875 4.20225V3.40225ZM92.9388 3.7294C92.4585 3.94186 92.0745 4.24407 91.8131 4.64626L92.4838 5.08225C92.6456 4.8334 92.8964 4.62292 93.2624 4.46103L92.9388 3.7294ZM91.8156 4.64238C91.5582 5.02855 91.4311 5.46453 91.4311 5.93848H92.2311C92.2311 5.6149 92.3155 5.33473 92.4813 5.08614L91.8156 4.64238ZM91.4311 5.93848C91.4311 6.30773 91.5218 6.65221 91.7078 6.96215L92.3938 6.55055C92.2868 6.3722 92.2311 6.17143 92.2311 5.93848H91.4311ZM91.7129 6.97037C91.9022 7.26935 92.1715 7.5333 92.5044 7.76722L92.9644 7.11267C92.695 6.9234 92.5086 6.73162 92.3887 6.54233L91.7129 6.97037ZM92.5044 7.76722C92.834 7.99885 93.2304 8.211 93.6885 8.4061L94.002 7.67008C93.5811 7.49082 93.2369 7.30421 92.9644 7.11267L92.5044 7.76722ZM93.6885 8.4061C94.1432 8.59979 94.6651 8.78742 95.2527 8.96948L95.4895 8.20532C94.9215 8.02931 94.4261 7.85073 94.002 7.67008L93.6885 8.4061ZM95.2553 8.97027C96.2068 9.25814 97.0354 9.5799 97.7435 9.93394L98.1012 9.2184C97.3445 8.84002 96.4722 8.50261 95.4869 8.20454L95.2553 8.97027ZM97.7451 9.93473C98.459 10.2878 99.0443 10.6786 99.5073 11.1037L100.048 10.5144C99.5186 10.0281 98.8668 9.59697 98.0997 9.21762L97.7451 9.93473ZM99.5073 11.1037C99.9656 11.5244 100.306 11.9962 100.534 12.5194L101.267 12.1993C100.991 11.567 100.583 11.0052 100.048 10.5144L99.5073 11.1037ZM100.534 12.5194C100.761 13.0392 100.879 13.6385 100.879 14.3247H101.679C101.679 13.546 101.545 12.8351 101.267 12.1993L100.534 12.5194ZM100.879 14.3247C100.879 15.0448 100.739 15.6747 100.469 16.2229L101.186 16.5769C101.518 15.9044 101.679 15.1508 101.679 14.3247H100.879ZM100.469 16.2229C100.197 16.7739 99.8039 17.2421 99.283 17.6291L99.76 18.2713C100.378 17.812 100.856 17.2466 101.186 16.5769L100.469 16.2229ZM99.283 17.6291C98.7583 18.0188 98.1249 18.3206 97.3756 18.5292L97.5902 19.2999C98.4197 19.069 99.1453 18.7279 99.76 18.2713L99.283 17.6291ZM97.3756 18.5292C96.6271 18.7376 95.781 18.8441 94.834 18.8441V19.6441C95.8401 19.6441 96.7599 19.531 97.5902 19.2999L97.3756 18.5292ZM94.834 18.8441C93.9901 18.8441 93.158 18.7348 92.337 18.5159L92.1308 19.2888C93.0187 19.5256 93.9201 19.6441 94.834 19.6441V18.8441ZM92.3404 18.5168C91.5255 18.2917 90.7882 17.9553 90.126 17.5087L89.6787 18.172C90.4162 18.6694 91.2333 19.041 92.1274 19.2879L92.3404 18.5168ZM90.1278 17.5099C89.4868 17.0726 88.9753 16.516 88.5902 15.8365L87.8942 16.2309C88.3392 17.0162 88.9344 17.6641 89.6769 18.1707L90.1278 17.5099ZM88.5902 15.8365C88.2152 15.1747 88.0196 14.3785 88.0196 13.4336H87.2196C87.2196 14.4906 87.4391 15.4279 87.8942 16.2309L88.5902 15.8365ZM87.6196 13.8336H91.2939V13.0336H87.6196V13.8336ZM90.8939 13.4336C90.8939 14.026 90.9851 14.5531 91.1851 15.0006L91.9155 14.6742C91.7736 14.3567 91.6939 13.9479 91.6939 13.4336H90.8939ZM91.1851 15.0006C91.3811 15.4393 91.6614 15.8035 92.0278 16.0831L92.5132 15.4472C92.2611 15.2548 92.0613 15.0005 91.9155 14.6742L91.1851 15.0006ZM92.0318 16.0861C92.397 16.3577 92.8215 16.5494 93.2983 16.6663L93.4888 15.8893C93.103 15.7947 92.7788 15.6446 92.5092 15.4442L92.0318 16.0861ZM93.2999 16.6667C93.7743 16.7809 94.2863 16.8365 94.834 16.8365V16.0365C94.34 16.0365 93.8917 15.9863 93.4872 15.8889L93.2999 16.6667ZM94.834 16.8365C95.5023 16.8365 96.0831 16.7429 96.5576 16.5341L96.2354 15.8018C95.8961 15.9511 95.4352 16.0365 94.834 16.0365V16.8365ZM96.5549 16.5353C97.0291 16.3307 97.4058 16.0342 97.6527 15.633L96.9714 15.2137C96.8276 15.4473 96.5939 15.6472 96.238 15.8007L96.5549 16.5353ZM97.6488 15.6392C97.8959 15.2536 98.0172 14.8198 98.0172 14.3491H97.2172C97.2172 14.676 97.135 14.9583 96.9753 15.2075L97.6488 15.6392ZM9.53369 30.2266H9.93369V29.8266H9.53369V30.2266ZM9.53369 48V48.4H9.93369V48H9.53369ZM5.88379 48H5.48379V48.4H5.88379V48ZM5.88379 30.2266V29.8266H5.48379V30.2266H5.88379ZM15.0024 30.2266H15.4024V29.8266H15.0024V30.2266ZM15.0024 33.0952V33.4952H15.4024V33.0952H15.0024ZM0.500488 33.0952H0.100488V33.4952H0.500488V33.0952ZM0.500488 30.2266V29.8266H0.100488V30.2266H0.500488ZM9.13369 30.2266V48H9.93369V30.2266H9.13369ZM9.53369 47.6H5.88379V48.4H9.53369V47.6ZM6.28379 48V30.2266H5.48379V48H6.28379ZM5.88379 30.6266H9.53369V29.8266H5.88379V30.6266ZM14.6024 30.2266V33.0952H15.4024V30.2266H14.6024ZM15.0024 32.6952H0.500488V33.4952H15.0024V32.6952ZM0.900488 33.0952V30.2266H0.100488V33.0952H0.900488ZM0.500488 30.6266H15.0024V29.8266H0.500488V30.6266ZM26.748 33.2661L27.1281 33.3908L27.1407 33.3525L27.1454 33.3124L26.748 33.2661ZM21.9141 48V48.4H22.2038L22.2941 48.1247L21.9141 48ZM18.02 48L17.6451 47.8607L17.4447 48.4H18.02V48ZM24.624 30.2266V29.8266H24.3459L24.2491 30.0872L24.624 30.2266ZM27.1021 30.2266L27.4994 30.2728L27.5513 29.8266H27.1021V30.2266ZM30.7642 48L30.3842 48.125L30.4746 48.4H30.7642V48ZM25.918 33.2661L25.5212 33.3171L25.5261 33.3549L25.538 33.3911L25.918 33.2661ZM25.5273 30.2266V29.8266H25.0726L25.1306 30.2775L25.5273 30.2266ZM28.0298 30.2266L28.4045 30.0866L28.3073 29.8266H28.0298V30.2266ZM34.6704 48V48.4H35.2469L35.0451 47.86L34.6704 48ZM30.5444 41.3838H30.9444V40.9838H30.5444V41.3838ZM30.5444 44.2524V44.6524H30.9444V44.2524H30.5444ZM21.1572 44.2524H20.7572V44.6524H21.1572V44.2524ZM21.1572 41.3838V40.9838H20.7572V41.3838H21.1572ZM26.368 33.1414L21.534 47.8753L22.2941 48.1247L27.1281 33.3908L26.368 33.1414ZM21.9141 47.6H18.02V48.4H21.9141V47.6ZM18.395 48.1393L24.999 30.3659L24.2491 30.0872L17.6451 47.8607L18.395 48.1393ZM24.624 30.6266H27.1021V29.8266H24.624V30.6266ZM26.7047 30.1803L26.3507 33.2198L27.1454 33.3124L27.4994 30.2728L26.7047 30.1803ZM31.1441 47.875L26.2979 33.1411L25.538 33.3911L30.3842 48.125L31.1441 47.875ZM26.3147 33.2151L25.9241 30.1756L25.1306 30.2775L25.5212 33.3171L26.3147 33.2151ZM25.5273 30.6266H28.0298V29.8266H25.5273V30.6266ZM27.6551 30.3666L34.2957 48.14L35.0451 47.86L28.4045 30.0866L27.6551 30.3666ZM34.6704 47.6H30.7642V48.4H34.6704V47.6ZM30.1444 41.3838V44.2524H30.9444V41.3838H30.1444ZM30.5444 43.8524H21.1572V44.6524H30.5444V43.8524ZM21.5572 44.2524V41.3838H20.7572V44.2524H21.5572ZM21.1572 41.7838H30.5444V40.9838H21.1572V41.7838ZM51.4941 45.1436H51.8941V44.7436H51.4941V45.1436ZM51.4941 48V48.4H51.8941V48H51.4941ZM42.5464 48H42.1464V48.4H42.5464V48ZM42.5464 45.1436V44.7436H42.1464V45.1436H42.5464ZM43.7305 30.2266H44.1305V29.8266H43.7305V30.2266ZM43.7305 48V48.4H44.1305V48H43.7305ZM40.0684 48H39.6684V48.4H40.0684V48ZM40.0684 30.2266V29.8266H39.6684V30.2266H40.0684ZM51.0941 45.1436V48H51.8941V45.1436H51.0941ZM51.4941 47.6H42.5464V48.4H51.4941V47.6ZM42.9464 48V45.1436H42.1464V48H42.9464ZM42.5464 45.5436H51.4941V44.7436H42.5464V45.5436ZM43.3305 30.2266V48H44.1305V30.2266H43.3305ZM43.7305 47.6H40.0684V48.4H43.7305V47.6ZM40.4684 48V30.2266H39.6684V48H40.4684ZM40.0684 30.6266H43.7305V29.8266H40.0684V30.6266ZM69.27 45.1436H69.67V44.7436H69.27V45.1436ZM69.27 48V48.4H69.67V48H69.27ZM59.8096 48H59.4096V48.4H59.8096V48ZM59.8096 45.1436V44.7436H59.4096V45.1436H59.8096ZM61.0059 30.2266H61.4059V29.8266H61.0059V30.2266ZM61.0059 48V48.4H61.4059V48H61.0059ZM57.3438 48H56.9437V48.4H57.3438V48ZM57.3438 30.2266V29.8266H56.9437V30.2266H57.3438ZM68.0371 37.4653H68.4371V37.0653H68.0371V37.4653ZM68.0371 40.2485V40.6485H68.4371V40.2485H68.0371ZM59.8096 40.2485H59.4096V40.6485H59.8096V40.2485ZM59.8096 37.4653V37.0653H59.4096V37.4653H59.8096ZM69.2578 30.2266H69.6578V29.8266H69.2578V30.2266ZM69.2578 33.0952V33.4952H69.6578V33.0952H69.2578ZM59.8096 33.0952H59.4096V33.4952H59.8096V33.0952ZM59.8096 30.2266V29.8266H59.4096V30.2266H59.8096ZM68.87 45.1436V48H69.67V45.1436H68.87ZM69.27 47.6H59.8096V48.4H69.27V47.6ZM60.2096 48V45.1436H59.4096V48H60.2096ZM59.8096 45.5436H69.27V44.7436H59.8096V45.5436ZM60.6059 30.2266V48H61.4059V30.2266H60.6059ZM61.0059 47.6H57.3438V48.4H61.0059V47.6ZM57.7438 48V30.2266H56.9437V48H57.7438ZM57.3438 30.6266H61.0059V29.8266H57.3438V30.6266ZM67.6371 37.4653V40.2485H68.4371V37.4653H67.6371ZM68.0371 39.8485H59.8096V40.6485H68.0371V39.8485ZM60.2096 40.2485V37.4653H59.4096V40.2485H60.2096ZM59.8096 37.8653H68.0371V37.0653H59.8096V37.8653ZM68.8578 30.2266V33.0952H69.6578V30.2266H68.8578ZM69.2578 32.6952H59.8096V33.4952H69.2578V32.6952ZM60.2096 33.0952V30.2266H59.4096V33.0952H60.2096ZM59.8096 30.6266H69.2578V29.8266H59.8096V30.6266ZM89.6216 30.2266H90.0216V29.8266H89.6216V30.2266ZM89.6216 48V48.4H90.0216V48H89.6216ZM85.9595 48L85.6164 48.2056L85.7329 48.4H85.9595V48ZM78.8184 36.0859L79.1615 35.8803L78.4184 34.6405V36.0859H78.8184ZM78.8184 48V48.4H79.2184V48H78.8184ZM75.1562 48H74.7562V48.4H75.1562V48ZM75.1562 30.2266V29.8266H74.7562V30.2266H75.1562ZM78.8184 30.2266L79.1614 30.0208L79.0449 29.8266H78.8184V30.2266ZM85.9717 42.1528L85.6287 42.3586L86.3717 43.5974V42.1528H85.9717ZM85.9717 30.2266V29.8266H85.5717V30.2266H85.9717ZM89.2216 30.2266V48H90.0216V30.2266H89.2216ZM89.6216 47.6H85.9595V48.4H89.6216V47.6ZM86.3026 47.7944L79.1615 35.8803L78.4753 36.2916L85.6164 48.2056L86.3026 47.7944ZM78.4184 36.0859V48H79.2184V36.0859H78.4184ZM78.8184 47.6H75.1562V48.4H78.8184V47.6ZM75.5563 48V30.2266H74.7562V48H75.5563ZM75.1562 30.6266H78.8184V29.8266H75.1562V30.6266ZM78.4753 30.4323L85.6287 42.3586L86.3147 41.9471L79.1614 30.0208L78.4753 30.4323ZM86.3717 42.1528V30.2266H85.5717V42.1528H86.3717ZM85.9717 30.6266H89.6216V29.8266H85.9717V30.6266ZM104.138 30.2266H104.538V29.8266H104.138V30.2266ZM104.138 48V48.4H104.538V48H104.138ZM100.488 48H100.088V48.4H100.488V48ZM100.488 30.2266V29.8266H100.088V30.2266H100.488ZM109.607 30.2266H110.007V29.8266H109.607V30.2266ZM109.607 33.0952V33.4952H110.007V33.0952H109.607ZM95.105 33.0952H94.705V33.4952H95.105V33.0952ZM95.105 30.2266V29.8266H94.705V30.2266H95.105ZM103.738 30.2266V48H104.538V30.2266H103.738ZM104.138 47.6H100.488V48.4H104.138V47.6ZM100.888 48V30.2266H100.088V48H100.888ZM100.488 30.6266H104.138V29.8266H100.488V30.6266ZM109.207 30.2266V33.0952H110.007V30.2266H109.207ZM109.607 32.6952H95.105V33.4952H109.607V32.6952ZM95.505 33.0952V30.2266H94.705V33.0952H95.505ZM95.105 30.6266H109.607V29.8266H95.105V30.6266ZM127.603 45.9248L127.901 46.191L127.903 46.1893L127.603 45.9248ZM125.21 47.646L125.052 47.2785L125.051 47.279L125.21 47.646ZM119.082 47.646L118.923 48.013L118.924 48.0135L119.082 47.646ZM116.689 45.9248L116.391 46.1912L116.392 46.1927L116.689 45.9248ZM115.115 43.1782L114.736 43.3073L114.737 43.3099L115.115 43.1782ZM115.115 35.0605L115.493 35.1905L115.493 35.1896L115.115 35.0605ZM116.665 32.314L116.367 32.0476L116.365 32.0494L116.665 32.314ZM119.058 30.5806L118.9 30.2131L118.898 30.2136L119.058 30.5806ZM125.186 30.5806L125.026 30.9476L125.028 30.9481L125.186 30.5806ZM127.578 32.314L127.278 32.5785L127.28 32.5803L127.578 32.314ZM129.141 35.0605L128.762 35.1896L128.763 35.1931L129.141 35.0605ZM125.747 36.1836L125.358 36.2764L125.747 36.1836ZM123.77 33.2783L123.583 33.6325L123.588 33.6349L123.77 33.2783ZM120.474 33.2783L120.657 33.6336L120.66 33.6324L120.474 33.2783ZM119.265 34.377L118.935 34.1513L118.932 34.1551L119.265 34.377ZM118.521 42.0308L118.131 42.1226L118.131 42.1236L118.521 42.0308ZM119.277 43.8496L118.945 44.0728L118.947 44.0753L119.277 43.8496ZM120.498 44.9604L120.312 45.3145L120.498 44.9604ZM123.794 44.9604L123.98 45.3145L123.794 44.9604ZM125.002 43.8496L125.335 44.0715L125.337 44.069L125.002 43.8496ZM125.747 42.0308L126.136 42.1236L126.136 42.1226L125.747 42.0308ZM129.302 38.6982V39.5405H130.102V38.6982H129.302ZM129.302 39.5405C129.302 40.8557 129.124 42.0235 128.774 43.0492L129.531 43.3073C129.914 42.1845 130.102 40.9272 130.102 39.5405H129.302ZM128.774 43.0492C128.423 44.0797 127.931 44.9476 127.303 45.6603L127.903 46.1893C128.609 45.3883 129.15 44.4252 129.531 43.3073L128.774 43.0492ZM127.304 45.6587C126.676 46.3634 125.926 46.9027 125.052 47.2785L125.368 48.0135C126.349 47.5918 127.195 46.9836 127.901 46.191L127.304 45.6587ZM125.051 47.279C124.187 47.6535 123.221 47.8441 122.146 47.8441V48.6441C123.317 48.6441 124.394 48.436 125.369 48.013L125.051 47.279ZM122.146 47.8441C121.08 47.8441 120.113 47.6537 119.24 47.2785L118.924 48.0135C119.907 48.4358 120.982 48.6441 122.146 48.6441V47.8441ZM119.241 47.279C118.374 46.9032 117.624 46.3633 116.986 45.6569L116.392 46.1927C117.106 46.9837 117.95 47.5913 118.923 48.013L119.241 47.279ZM116.988 45.6585C116.351 44.9454 115.852 44.0772 115.492 43.0466L114.737 43.3099C115.127 44.4277 115.677 45.3906 116.391 46.1911L116.988 45.6585ZM115.493 43.0492C115.144 42.0235 114.965 40.8557 114.965 39.5405H114.165C114.165 40.9272 114.353 42.1845 114.736 43.3073L115.493 43.0492ZM114.965 39.5405V38.6982H114.165V39.5405H114.965ZM114.965 38.6982C114.965 37.3746 115.144 36.2072 115.493 35.1905L114.736 34.9306C114.353 36.0461 114.165 37.3038 114.165 38.6982H114.965ZM115.493 35.1896C115.845 34.1591 116.337 33.2912 116.965 32.5785L116.365 32.0494C115.659 32.8504 115.117 33.8136 114.736 34.9315L115.493 35.1896ZM116.963 32.5803C117.601 31.8662 118.351 31.323 119.217 30.9475L118.898 30.2136C117.925 30.6357 117.08 31.2481 116.367 32.0476L116.963 32.5803ZM119.216 30.9481C120.088 30.5729 121.055 30.3824 122.122 30.3824V29.5824C120.958 29.5824 119.882 29.7907 118.9 30.2131L119.216 30.9481ZM122.122 30.3824C123.196 30.3824 124.163 30.573 125.026 30.9475L125.345 30.2136C124.369 29.7906 123.293 29.5824 122.122 29.5824V30.3824ZM125.028 30.9481C125.901 31.3235 126.65 31.8661 127.278 32.5785L127.878 32.0494C127.172 31.2481 126.326 30.6352 125.344 30.2131L125.028 30.9481ZM127.28 32.5803C127.916 33.2927 128.411 34.16 128.762 35.1896L129.519 34.9315C129.138 33.8126 128.592 32.8489 127.877 32.0476L127.28 32.5803ZM128.763 35.1931C129.12 36.2089 129.302 37.3754 129.302 38.6982H130.102C130.102 37.3029 129.91 36.0443 129.518 34.928L128.763 35.1931ZM126.403 39.5405V38.6738H125.603V39.5405H126.403ZM126.403 38.6738C126.403 37.7068 126.316 36.8444 126.136 36.0907L125.358 36.2764C125.52 36.955 125.603 37.7528 125.603 38.6738H126.403ZM126.136 36.0907C125.957 35.3383 125.688 34.6884 125.32 34.1513L124.66 34.6026C124.96 35.0421 125.196 35.5966 125.358 36.2764L126.136 36.0907ZM125.32 34.1513C124.953 33.6131 124.497 33.1992 123.951 32.9218L123.588 33.6349C124.003 33.8457 124.36 34.1642 124.66 34.6026L125.32 34.1513ZM123.956 32.9242C123.41 32.6378 122.796 32.4999 122.122 32.4999V33.2999C122.684 33.2999 123.168 33.4143 123.583 33.6324L123.956 32.9242ZM122.122 32.4999C121.447 32.4999 120.833 32.6378 120.288 32.9242L120.66 33.6324C121.075 33.4143 121.559 33.2999 122.122 33.2999V32.4999ZM120.29 32.923C119.753 33.2009 119.302 33.6146 118.935 34.1513L119.595 34.6026C119.896 34.1627 120.251 33.844 120.657 33.6336L120.29 32.923ZM118.932 34.1551C118.575 34.6913 118.311 35.3398 118.131 36.0907L118.91 36.2764C119.072 35.5951 119.304 35.0392 119.598 34.5988L118.932 34.1551ZM118.131 36.0907C117.952 36.8444 117.864 37.7068 117.864 38.6738H118.664C118.664 37.7528 118.748 36.955 118.91 36.2764L118.131 36.0907ZM117.864 38.6738V39.5405H118.664V38.6738H117.864ZM117.864 39.5405C117.864 40.4998 117.952 41.3617 118.131 42.1226L118.91 41.9389C118.748 41.2513 118.664 40.453 118.664 39.5405H117.864ZM118.131 42.1236C118.311 42.8759 118.58 43.5287 118.945 44.0727L119.609 43.6265C119.308 43.1777 119.072 42.6179 118.91 41.9379L118.131 42.1236ZM118.947 44.0753C119.314 44.6125 119.769 45.0292 120.312 45.3145L120.684 44.6063C120.267 44.3871 119.908 44.0633 119.608 43.6239L118.947 44.0753ZM120.312 45.3145C120.857 45.601 121.472 45.7389 122.146 45.7389V44.9389C121.583 44.9389 121.099 44.8245 120.684 44.6063L120.312 45.3145ZM122.146 45.7389C122.82 45.7389 123.435 45.601 123.98 45.3145L123.608 44.6063C123.193 44.8245 122.709 44.9389 122.146 44.9389V45.7389ZM123.98 45.3145C124.524 45.0286 124.976 44.6107 125.335 44.0715L124.67 43.6277C124.378 44.065 124.024 44.3877 123.608 44.6063L123.98 45.3145ZM125.337 44.069C125.693 43.5258 125.957 42.8744 126.136 42.1236L125.358 41.9379C125.195 42.6195 124.963 43.1806 124.668 43.6303L125.337 44.069ZM126.136 42.1226C126.316 41.3617 126.403 40.4998 126.403 39.5405H125.603C125.603 40.453 125.52 41.2513 125.358 41.9389L126.136 42.1226ZM157.49 45.1436H157.89V44.7436H157.49V45.1436ZM157.49 48V48.4H157.89V48H157.49ZM148.542 48H148.142V48.4H148.542V48ZM148.542 45.1436V44.7436H148.142V45.1436H148.542ZM149.727 30.2266H150.127V29.8266H149.727V30.2266ZM149.727 48V48.4H150.127V48H149.727ZM146.064 48H145.664V48.4H146.064V48ZM146.064 30.2266V29.8266H145.664V30.2266H146.064ZM157.09 45.1436V48H157.89V45.1436H157.09ZM157.49 47.6H148.542V48.4H157.49V47.6ZM148.942 48V45.1436H148.142V48H148.942ZM148.542 45.5436H157.49V44.7436H148.542V45.5436ZM149.327 30.2266V48H150.127V30.2266H149.327ZM149.727 47.6H146.064V48.4H149.727V47.6ZM146.464 48V30.2266H145.664V48H146.464ZM146.064 30.6266H149.727V29.8266H146.064V30.6266ZM170.811 33.2661L171.191 33.3908L171.203 33.3525L171.208 33.3124L170.811 33.2661ZM165.977 48V48.4H166.266L166.357 48.1247L165.977 48ZM162.083 48L161.708 47.8607L161.507 48.4H162.083V48ZM168.687 30.2266V29.8266H168.408L168.312 30.0872L168.687 30.2266ZM171.165 30.2266L171.562 30.2728L171.614 29.8266H171.165V30.2266ZM174.827 48L174.447 48.125L174.537 48.4H174.827V48ZM169.98 33.2661L169.584 33.3171L169.589 33.3549L169.6 33.3911L169.98 33.2661ZM169.59 30.2266V29.8266H169.135L169.193 30.2775L169.59 30.2266ZM172.092 30.2266L172.467 30.0866L172.37 29.8266H172.092V30.2266ZM178.733 48V48.4H179.309L179.108 47.86L178.733 48ZM174.607 41.3838H175.007V40.9838H174.607V41.3838ZM174.607 44.2524V44.6524H175.007V44.2524H174.607ZM165.22 44.2524H164.82V44.6524H165.22V44.2524ZM165.22 41.3838V40.9838H164.82V41.3838H165.22ZM170.43 33.1414L165.596 47.8753L166.357 48.1247L171.191 33.3908L170.43 33.1414ZM165.977 47.6H162.083V48.4H165.977V47.6ZM162.457 48.1393L169.061 30.3659L168.312 30.0872L161.708 47.8607L162.457 48.1393ZM168.687 30.6266H171.165V29.8266H168.687V30.6266ZM170.767 30.1803L170.413 33.2198L171.208 33.3124L171.562 30.2728L170.767 30.1803ZM175.207 47.875L170.36 33.1411L169.6 33.3911L174.447 48.125L175.207 47.875ZM170.377 33.2151L169.987 30.1756L169.193 30.2775L169.584 33.3171L170.377 33.2151ZM169.59 30.6266H172.092V29.8266H169.59V30.6266ZM171.718 30.3666L178.358 48.14L179.108 47.86L172.467 30.0866L171.718 30.3666ZM178.733 47.6H174.827V48.4H178.733V47.6ZM174.207 41.3838V44.2524H175.007V41.3838H174.207ZM174.607 43.8524H165.22V44.6524H174.607V43.8524ZM165.62 44.2524V41.3838H164.82V44.2524H165.62ZM165.22 41.7838H174.607V40.9838H165.22V41.7838ZM190.564 30.2266H190.964V29.8266H190.564V30.2266ZM190.564 48V48.4H190.964V48H190.564ZM186.914 48H186.514V48.4H186.914V48ZM186.914 30.2266V29.8266H186.514V30.2266H186.914ZM196.033 30.2266H196.433V29.8266H196.033V30.2266ZM196.033 33.0952V33.4952H196.433V33.0952H196.033ZM181.531 33.0952H181.131V33.4952H181.531V33.0952ZM181.531 30.2266V29.8266H181.131V30.2266H181.531ZM190.164 30.2266V48H190.964V30.2266H190.164ZM190.564 47.6H186.914V48.4H190.564V47.6ZM187.314 48V30.2266H186.514V48H187.314ZM186.914 30.6266H190.564V29.8266H186.914V30.6266ZM195.633 30.2266V33.0952H196.433V30.2266H195.633ZM196.033 32.6952H181.531V33.4952H196.033V32.6952ZM181.931 33.0952V30.2266H181.131V33.0952H181.931ZM181.531 30.6266H196.033V29.8266H181.531V30.6266ZM205.764 30.2266H206.164V29.8266H205.764V30.2266ZM205.764 48V48.4H206.164V48H205.764ZM202.114 48H201.714V48.4H202.114V48ZM202.114 30.2266V29.8266H201.714V30.2266H202.114ZM205.364 30.2266V48H206.164V30.2266H205.364ZM205.764 47.6H202.114V48.4H205.764V47.6ZM202.514 48V30.2266H201.714V48H202.514ZM202.114 30.6266H205.764V29.8266H202.114V30.6266ZM227.41 30.2266H227.81V29.8266H227.41V30.2266ZM227.41 48V48.4H227.81V48H227.41ZM223.748 48L223.404 48.2056L223.521 48.4H223.748V48ZM216.606 36.0859L216.95 35.8803L216.206 34.6405V36.0859H216.606ZM216.606 48V48.4H217.006V48H216.606ZM212.944 48H212.544V48.4H212.944V48ZM212.944 30.2266V29.8266H212.544V30.2266H212.944ZM216.606 30.2266L216.949 30.0208L216.833 29.8266H216.606V30.2266ZM223.76 42.1528L223.417 42.3586L224.16 43.5974V42.1528H223.76ZM223.76 30.2266V29.8266H223.36V30.2266H223.76ZM227.01 30.2266V48H227.81V30.2266H227.01ZM227.41 47.6H223.748V48.4H227.41V47.6ZM224.091 47.7944L216.95 35.8803L216.263 36.2916L223.404 48.2056L224.091 47.7944ZM216.206 36.0859V48H217.006V36.0859H216.206ZM216.606 47.6H212.944V48.4H216.606V47.6ZM213.344 48V30.2266H212.544V48H213.344ZM212.944 30.6266H216.606V29.8266H212.944V30.6266ZM216.263 30.4323L223.417 42.3586L224.103 41.9471L216.949 30.0208L216.263 30.4323ZM224.16 42.1528V30.2266H223.36V42.1528H224.16ZM223.76 30.6266H227.41V29.8266H223.76V30.6266ZM246.846 45.9248L247.144 46.191L247.146 46.1893L246.846 45.9248ZM244.453 47.646L244.295 47.2785L244.294 47.279L244.453 47.646ZM238.325 47.646L238.166 48.013L238.167 48.0135L238.325 47.646ZM235.933 45.9248L235.634 46.1912L235.636 46.1927L235.933 45.9248ZM234.358 43.1782L233.979 43.3073L233.98 43.3099L234.358 43.1782ZM234.358 35.0605L234.736 35.1905L234.737 35.1896L234.358 35.0605ZM235.908 32.314L235.61 32.0476L235.608 32.0494L235.908 32.314ZM238.301 30.5806L238.143 30.2131L238.142 30.2136L238.301 30.5806ZM244.429 30.5806L244.27 30.9476L244.271 30.9481L244.429 30.5806ZM246.821 32.314L246.521 32.5785L246.523 32.5803L246.821 32.314ZM248.384 35.0605L248.005 35.1896L248.006 35.1931L248.384 35.0605ZM244.99 36.1836L244.601 36.2764L244.99 36.1836ZM243.013 33.2783L242.827 33.6325L242.831 33.6349L243.013 33.2783ZM239.717 33.2783L239.901 33.6336L239.903 33.6324L239.717 33.2783ZM238.508 34.377L238.178 34.1513L238.175 34.1551L238.508 34.377ZM237.764 42.0308L237.374 42.1226L237.375 42.1236L237.764 42.0308ZM238.521 43.8496L238.189 44.0728L238.19 44.0753L238.521 43.8496ZM239.741 44.9604L239.555 45.3145L239.741 44.9604ZM243.037 44.9604L243.223 45.3145L243.037 44.9604ZM244.246 43.8496L244.578 44.0715L244.58 44.069L244.246 43.8496ZM244.99 42.0308L245.379 42.1236L245.38 42.1226L244.99 42.0308ZM248.545 38.6982V39.5405H249.345V38.6982H248.545ZM248.545 39.5405C248.545 40.8557 248.367 42.0235 248.017 43.0492L248.775 43.3073C249.157 42.1845 249.345 40.9272 249.345 39.5405H248.545ZM248.017 43.0492C247.666 44.0797 247.174 44.9476 246.546 45.6603L247.146 46.1893C247.852 45.3883 248.393 44.4252 248.775 43.3073L248.017 43.0492ZM246.547 45.6587C245.919 46.3634 245.17 46.9027 244.295 47.2785L244.611 48.0135C245.592 47.5918 246.438 46.9836 247.144 46.191L246.547 45.6587ZM244.294 47.279C243.43 47.6535 242.464 47.8441 241.389 47.8441V48.6441C242.56 48.6441 243.637 48.436 244.612 48.013L244.294 47.279ZM241.389 47.8441C240.323 47.8441 239.356 47.6537 238.483 47.2785L238.167 48.0135C239.15 48.4358 240.226 48.6441 241.389 48.6441V47.8441ZM238.484 47.279C237.618 46.9032 236.867 46.3633 236.23 45.6569L235.636 46.1927C236.349 46.9837 237.194 47.5913 238.166 48.013L238.484 47.279ZM236.231 45.6585C235.595 44.9454 235.095 44.0772 234.736 43.0466L233.98 43.3099C234.37 44.4277 234.92 45.3906 235.634 46.1911L236.231 45.6585ZM234.737 43.0492C234.387 42.0235 234.209 40.8557 234.209 39.5405H233.409C233.409 40.9272 233.597 42.1845 233.979 43.3073L234.737 43.0492ZM234.209 39.5405V38.6982H233.409V39.5405H234.209ZM234.209 38.6982C234.209 37.3746 234.387 36.2072 234.736 35.1905L233.98 34.9306C233.596 36.0461 233.409 37.3038 233.409 38.6982H234.209ZM234.737 35.1896C235.088 34.1591 235.58 33.2912 236.208 32.5785L235.608 32.0494C234.902 32.8504 234.36 33.8136 233.979 34.9315L234.737 35.1896ZM236.207 32.5803C236.844 31.8662 237.594 31.323 238.46 30.9475L238.142 30.2136C237.168 30.6357 236.323 31.2481 235.61 32.0476L236.207 32.5803ZM238.459 30.9481C239.332 30.5729 240.298 30.3824 241.365 30.3824V29.5824C240.201 29.5824 239.125 29.7907 238.143 30.2131L238.459 30.9481ZM241.365 30.3824C242.44 30.3824 243.406 30.573 244.27 30.9475L244.588 30.2136C243.612 29.7906 242.536 29.5824 241.365 29.5824V30.3824ZM244.271 30.9481C245.144 31.3235 245.893 31.8661 246.521 32.5785L247.121 32.0494C246.415 31.2481 245.569 30.6352 244.587 30.2131L244.271 30.9481ZM246.523 32.5803C247.159 33.2927 247.654 34.16 248.005 35.1896L248.762 34.9315C248.381 33.8126 247.835 32.8489 247.12 32.0476L246.523 32.5803ZM248.006 35.1931C248.363 36.2089 248.545 37.3754 248.545 38.6982H249.345C249.345 37.3029 249.153 36.0443 248.761 34.928L248.006 35.1931ZM245.647 39.5405V38.6738H244.847V39.5405H245.647ZM245.647 38.6738C245.647 37.7068 245.559 36.8444 245.379 36.0907L244.601 36.2764C244.763 36.955 244.847 37.7528 244.847 38.6738H245.647ZM245.379 36.0907C245.2 35.3383 244.931 34.6884 244.564 34.1513L243.903 34.6026C244.203 35.0421 244.439 35.5966 244.601 36.2764L245.379 36.0907ZM244.564 34.1513C244.196 33.6131 243.74 33.1992 243.194 32.9218L242.831 33.6349C243.246 33.8457 243.604 34.1642 243.903 34.6026L244.564 34.1513ZM243.199 32.9242C242.654 32.6378 242.039 32.4999 241.365 32.4999V33.2999C241.928 33.2999 242.411 33.4143 242.827 33.6324L243.199 32.9242ZM241.365 32.4999C240.691 32.4999 240.076 32.6378 239.531 32.9242L239.903 33.6324C240.318 33.4143 240.802 33.2999 241.365 33.2999V32.4999ZM239.533 32.923C238.996 33.2009 238.545 33.6146 238.178 34.1513L238.839 34.6026C239.139 34.1627 239.494 33.844 239.901 33.6336L239.533 32.923ZM238.175 34.1551C237.818 34.6913 237.554 35.3398 237.375 36.0907L238.153 36.2764C238.315 35.5951 238.548 35.0392 238.841 34.5988L238.175 34.1551ZM237.375 36.0907C237.195 36.8444 237.107 37.7068 237.107 38.6738H237.907C237.907 37.7528 237.991 36.955 238.153 36.2764L237.375 36.0907ZM237.107 38.6738V39.5405H237.907V38.6738H237.107ZM237.107 39.5405C237.107 40.4998 237.195 41.3617 237.374 42.1226L238.153 41.9389C237.991 41.2513 237.907 40.453 237.907 39.5405H237.107ZM237.375 42.1236C237.554 42.8759 237.823 43.5287 238.189 44.0727L238.852 43.6265C238.551 43.1777 238.315 42.6179 238.153 41.9379L237.375 42.1236ZM238.19 44.0753C238.557 44.6125 239.012 45.0292 239.555 45.3145L239.927 44.6063C239.51 44.3871 239.151 44.0633 238.851 43.6239L238.19 44.0753ZM239.555 45.3145C240.1 45.601 240.715 45.7389 241.389 45.7389V44.9389C240.826 44.9389 240.342 44.8245 239.927 44.6063L239.555 45.3145ZM241.389 45.7389C242.063 45.7389 242.678 45.601 243.223 45.3145L242.851 44.6063C242.436 44.8245 241.952 44.9389 241.389 44.9389V45.7389ZM243.223 45.3145C243.767 45.0286 244.219 44.6107 244.578 44.0715L243.913 43.6277C243.621 44.065 243.267 44.3877 242.851 44.6063L243.223 45.3145ZM244.58 44.069C244.936 43.5258 245.2 42.8744 245.379 42.1236L244.601 41.9379C244.439 42.6195 244.206 43.1806 243.911 43.6303L244.58 44.069ZM245.38 42.1226C245.559 41.3617 245.647 40.4998 245.647 39.5405H244.847C244.847 40.453 244.763 41.2513 244.601 41.9389L245.38 42.1226Z" fill="white"/>
</svg>
