<svg width="50" height="50" viewBox="0 0 50 50" fill="none" xmlns="http://www.w3.org/2000/svg">
<path d="M25 42C15.6 42 8 34.4 8 25C8 15.6 15.6 8 25 8C34.4 8 42 15.6 42 25C42 34.4 34.4 42 25 42ZM25 10C16.7 10 10 16.7 10 25C10 33.3 16.7 40 25 40C33.3 40 40 33.3 40 25C40 16.7 33.3 10 25 10Z" fill="white"/>
<path d="M32.283 16.302L33.697 17.717L17.717 33.697L16.303 32.283L32.283 16.302Z" fill="white"/>
<path d="M17.717 16.302L33.697 32.282L32.283 33.697L16.303 17.717L17.717 16.302Z" fill="white"/>
</svg>
