<svg width="25" height="25" viewBox="0 0 25 25" fill="none" xmlns="http://www.w3.org/2000/svg">
<path d="M20.4032 8.40536L12.75 15.8656L5.09682 8.40536C4.96008 8.2718 4.77652 8.19703 4.58538 8.19703C4.39424 8.19703 4.21068 8.2718 4.07394 8.40536C4.00773 8.47023 3.95513 8.54766 3.91923 8.63311C3.88332 8.71856 3.86482 8.81032 3.86482 8.90301C3.86482 8.99571 3.88332 9.08746 3.91923 9.17292C3.95513 9.25837 4.00773 9.3358 4.07394 9.40067L12.2156 17.3387C12.3586 17.478 12.5503 17.556 12.75 17.556C12.9497 17.556 13.1414 17.478 13.2844 17.3387L21.4261 9.4022C21.4927 9.33728 21.5457 9.25966 21.5819 9.17393C21.6181 9.08819 21.6368 8.99607 21.6368 8.90301C21.6368 8.80995 21.6181 8.71784 21.5819 8.6321C21.5457 8.54636 21.4927 8.46875 21.4261 8.40383C21.2893 8.27027 21.1058 8.1955 20.9146 8.1955C20.7235 8.1955 20.5399 8.27027 20.4032 8.40383V8.40536Z" fill="white"/>
</svg>
