<svg width="884" height="78" viewBox="0 0 884 78" fill="none" xmlns="http://www.w3.org/2000/svg">
<path d="M15.6853 1.68378V76.7468H0.579928V1.68378H15.6853ZM39.1941 33.5959V46.072H11.8703V33.5959H39.1941ZM42.0811 1.68378V14.2115H11.8703V1.68378H42.0811ZM61.5068 1.68378H85.5826C90.6006 1.68378 94.8796 2.54301 98.4197 4.26149C101.96 5.97997 104.675 8.52331 106.565 11.8915C108.456 15.2597 109.401 19.4185 109.401 24.3677C109.401 28.4233 108.851 31.8946 107.751 34.7816C106.651 37.6343 105.087 40.023 103.06 41.9477C101.032 43.838 98.6087 45.3503 95.7904 46.4845L91.2021 49.2168H71.663L71.6114 36.6891H85.1702C87.2324 36.6891 88.9337 36.2423 90.2741 35.3487C91.6489 34.4208 92.6628 33.1319 93.3158 31.4822C94.0032 29.7981 94.3469 27.839 94.3469 25.605C94.3469 23.2335 94.0375 21.2057 93.4189 19.5216C92.8346 17.8031 91.8894 16.497 90.5834 15.6034C89.3117 14.6755 87.6448 14.2115 85.5826 14.2115H76.6122V76.7468H61.5068V1.68378ZM95.5842 76.7468L81.8192 43.2881L97.6463 43.2365L111.721 76.0251V76.7468H95.5842ZM173.524 64.2707V76.7468H140.89V64.2707H173.524ZM145.582 1.68378V76.7468H130.476V1.68378H145.582ZM169.142 32.1008V44.2161H140.89V32.1008H169.142ZM173.421 1.68378V14.2115H140.89V1.68378H173.421ZM235.946 64.2707V76.7468H203.312V64.2707H235.946ZM208.003 1.68378V76.7468H192.898V1.68378H208.003ZM231.564 32.1008V44.2161H203.312V32.1008H231.564ZM235.843 1.68378V14.2115H203.312V1.68378H235.843ZM290.264 1.68378H314.339C319.357 1.68378 323.636 2.54301 327.176 4.26149C330.716 5.97997 333.432 8.52331 335.322 11.8915C337.212 15.2597 338.157 19.4185 338.157 24.3677C338.157 28.4233 337.608 31.8946 336.508 34.7816C335.408 37.6343 333.844 40.023 331.816 41.9477C329.788 43.838 327.365 45.3503 324.547 46.4845L319.959 49.2168H300.42L300.368 36.6891H313.927C315.989 36.6891 317.69 36.2423 319.031 35.3487C320.406 34.4208 321.419 33.1319 322.072 31.4822C322.76 29.7981 323.104 27.839 323.104 25.605C323.104 23.2335 322.794 21.2057 322.176 19.5216C321.591 17.8031 320.646 16.497 319.34 15.6034C318.068 14.6755 316.402 14.2115 314.339 14.2115H305.369V76.7468H290.264V1.68378ZM324.341 76.7468L310.576 43.2881L326.403 43.2365L340.477 76.0251V76.7468H324.341ZM402.281 64.2707V76.7468H369.647V64.2707H402.281ZM374.338 1.68378V76.7468H359.233V1.68378H374.338ZM397.899 32.1008V44.2161H369.647V32.1008H397.899ZM402.178 1.68378V14.2115H369.647V1.68378H402.178ZM453.412 57.0015C453.412 55.6611 453.292 54.441 453.051 53.3412C452.811 52.2414 452.295 51.2275 451.505 50.2995C450.749 49.3715 449.632 48.4435 448.154 47.5155C446.71 46.5876 444.82 45.6252 442.483 44.6285C439.699 43.4599 437.001 42.2226 434.389 40.9166C431.777 39.5762 429.422 38.0296 427.326 36.2767C425.229 34.5239 423.562 32.4617 422.325 30.0902C421.122 27.6843 420.521 24.866 420.521 21.6353C420.521 18.4733 421.088 15.6034 422.222 13.0257C423.39 10.448 425.04 8.24836 427.171 6.42677C429.302 4.57082 431.794 3.14448 434.646 2.14777C437.533 1.15105 440.747 0.652691 444.287 0.652691C449.099 0.652691 453.258 1.64941 456.763 3.64284C460.303 5.63627 463.036 8.36865 464.96 11.84C466.919 15.3113 467.899 19.2982 467.899 23.8006H452.845C452.845 21.6697 452.536 19.7965 451.917 18.1811C451.333 16.5314 450.388 15.2426 449.082 14.3146C447.776 13.3866 446.091 12.9226 444.029 12.9226C442.105 12.9226 440.506 13.3179 439.235 14.1084C437.997 14.8645 437.069 15.9128 436.451 17.2532C435.867 18.5592 435.574 20.0371 435.574 21.6868C435.574 22.9241 435.867 24.0412 436.451 25.0379C437.069 26.0002 437.912 26.8766 438.977 27.6671C440.042 28.4233 441.297 29.1622 442.74 29.884C444.218 30.6057 445.834 31.3103 447.587 31.9977C450.989 33.3381 453.996 34.816 456.609 36.4314C459.221 38.0124 461.403 39.7996 463.156 41.793C464.909 43.7521 466.232 45.9689 467.126 48.4435C468.019 50.9181 468.466 53.7364 468.466 56.8984C468.466 60.0261 467.916 62.8787 466.816 65.4564C465.751 67.9998 464.187 70.1994 462.125 72.0554C460.063 73.877 457.571 75.2861 454.65 76.2828C451.762 77.2796 448.532 77.7779 444.957 77.7779C441.486 77.7779 438.204 77.2967 435.11 76.3344C432.017 75.3377 429.285 73.8426 426.913 71.8492C424.576 69.8214 422.737 67.2608 421.397 64.1676C420.057 61.04 419.386 57.3452 419.386 53.0834H434.492C434.492 55.3518 434.715 57.2937 435.162 58.909C435.609 60.49 436.296 61.7617 437.224 62.7241C438.152 63.652 439.286 64.3566 440.627 64.8378C442.002 65.2846 443.565 65.508 445.318 65.508C447.312 65.508 448.893 65.1299 450.061 64.3738C451.264 63.6177 452.123 62.6038 452.639 61.3321C453.154 60.0604 453.412 58.6169 453.412 57.0015ZM541.972 33.3897V45.9174C541.972 51.2103 541.319 55.8502 540.013 59.837C538.741 63.7895 536.92 67.1062 534.548 69.787C532.211 72.4335 529.376 74.4269 526.042 75.7673C522.742 77.1077 519.082 77.7779 515.061 77.7779C511.04 77.7779 507.362 77.1077 504.028 75.7673C500.729 74.4269 497.876 72.4335 495.47 69.787C493.099 67.1062 491.26 63.7895 489.954 59.837C488.648 55.8502 487.995 51.2103 487.995 45.9174V33.3897C487.995 27.9593 488.631 23.2163 489.902 19.1607C491.174 15.0707 493.013 11.6681 495.419 8.95293C497.824 6.20337 500.677 4.1412 503.977 2.76642C507.276 1.35727 510.936 0.652691 514.958 0.652691C518.979 0.652691 522.639 1.35727 525.939 2.76642C529.238 4.1412 532.091 6.20337 534.497 8.95293C536.903 11.6681 538.741 15.0707 540.013 19.1607C541.319 23.2163 541.972 27.9593 541.972 33.3897ZM526.97 45.9174V33.2866C526.97 29.7121 526.712 26.6704 526.197 24.1614C525.681 21.6181 524.908 19.5387 523.877 17.9234C522.845 16.308 521.591 15.1223 520.113 14.3661C518.635 13.61 516.917 13.2319 514.958 13.2319C512.999 13.2319 511.263 13.61 509.751 14.3661C508.273 15.1223 507.018 16.308 505.987 17.9234C504.991 19.5387 504.234 21.6181 503.719 24.1614C503.238 26.6704 502.997 29.7121 502.997 33.2866V45.9174C502.997 49.3543 503.255 52.2929 503.77 54.7331C504.286 57.1734 505.059 59.1668 506.09 60.7134C507.121 62.2601 508.376 63.4114 509.854 64.1676C511.366 64.8893 513.102 65.2502 515.061 65.2502C516.985 65.2502 518.687 64.8893 520.165 64.1676C521.677 63.4114 522.931 62.2601 523.928 60.7134C524.925 59.1668 525.681 57.1734 526.197 54.7331C526.712 52.2929 526.97 49.3543 526.97 45.9174ZM597.228 1.68378H612.282V53.2381C612.282 59.0121 611.216 63.7208 609.086 67.3639C606.989 70.9727 604.085 73.6192 600.373 75.3033C596.661 76.953 592.416 77.7779 587.639 77.7779C582.827 77.7779 578.548 76.953 574.802 75.3033C571.056 73.6192 568.134 70.9727 566.038 67.3639C563.976 63.7208 562.944 59.0121 562.944 53.2381V1.68378H577.998V53.2381C577.998 56.5032 578.359 59.0121 579.081 60.765C579.837 62.5178 580.92 63.7208 582.329 64.3738C583.772 64.9924 585.542 65.3018 587.639 65.3018C589.77 65.3018 591.523 64.9924 592.898 64.3738C594.307 63.7208 595.372 62.5178 596.094 60.765C596.85 59.0121 597.228 56.5032 597.228 53.2381V1.68378ZM634.44 1.68378H658.516C663.534 1.68378 667.813 2.54301 671.353 4.26149C674.893 5.97997 677.608 8.52331 679.498 11.8915C681.389 15.2597 682.334 19.4185 682.334 24.3677C682.334 28.4233 681.784 31.8946 680.684 34.7816C679.584 37.6343 678.021 40.023 675.993 41.9477C673.965 43.838 671.542 45.3503 668.724 46.4845L664.135 49.2168H644.596L644.545 36.6891H658.103C660.166 36.6891 661.867 36.2423 663.207 35.3487C664.582 34.4208 665.596 33.1319 666.249 31.4822C666.936 29.7981 667.28 27.839 667.28 25.605C667.28 23.2335 666.971 21.2057 666.352 19.5216C665.768 17.8031 664.823 16.497 663.517 15.6034C662.245 14.6755 660.578 14.2115 658.516 14.2115H649.545V76.7468H634.44V1.68378ZM668.517 76.7468L654.752 43.2881L670.58 43.2365L684.654 76.0251V76.7468H668.517ZM739.188 51.743H754.19C753.984 57.3796 752.85 62.1398 750.788 66.0235C748.725 69.8729 745.787 72.7943 741.972 74.7878C738.191 76.7812 733.62 77.7779 728.258 77.7779C724.1 77.7779 720.405 77.0905 717.174 75.7157C713.944 74.3066 711.194 72.2444 708.926 69.5292C706.657 66.814 704.939 63.463 703.77 59.4761C702.636 55.4549 702.069 50.8322 702.069 45.608V32.8741C702.069 27.65 702.67 23.0273 703.873 19.006C705.111 14.9848 706.863 11.6166 709.132 8.90138C711.435 6.15182 714.201 4.08964 717.432 2.71486C720.697 1.30571 724.375 0.601136 728.465 0.601136C733.929 0.601136 738.501 1.63222 742.178 3.69439C745.856 5.75657 748.691 8.7639 750.685 12.7164C752.712 16.6345 753.932 21.4291 754.345 27.1H739.291C739.188 23.5256 738.776 20.7245 738.054 18.6967C737.366 16.6345 736.267 15.191 734.754 14.3661C733.242 13.5069 731.145 13.0773 728.465 13.0773C726.471 13.0773 724.753 13.4382 723.309 14.1599C721.866 14.8473 720.68 15.9643 719.752 17.5109C718.824 19.0576 718.137 21.0854 717.69 23.5944C717.277 26.1033 717.071 29.1622 717.071 32.771V45.608C717.071 49.1481 717.26 52.1726 717.638 54.6816C718.016 57.1562 718.618 59.184 719.443 60.765C720.268 62.346 721.385 63.4974 722.794 64.2191C724.237 64.9409 726.059 65.3018 728.258 65.3018C730.802 65.3018 732.847 64.9237 734.393 64.1676C735.974 63.4114 737.143 62.0539 737.899 60.0948C738.655 58.1357 739.085 55.3518 739.188 51.743ZM817.231 64.2707V76.7468H784.597V64.2707H817.231ZM789.288 1.68378V76.7468H774.183V1.68378H789.288ZM812.849 32.1008V44.2161H784.597V32.1008H812.849ZM817.128 1.68378V14.2115H784.597V1.68378H817.128ZM868.362 57.0015C868.362 55.6611 868.242 54.441 868.002 53.3412C867.761 52.2414 867.245 51.2275 866.455 50.2995C865.699 49.3715 864.582 48.4435 863.104 47.5155C861.66 46.5876 859.77 45.6252 857.433 44.6285C854.649 43.4599 851.951 42.2226 849.339 40.9166C846.727 39.5762 844.372 38.0296 842.276 36.2767C840.179 34.5239 838.512 32.4617 837.275 30.0902C836.072 27.6843 835.471 24.866 835.471 21.6353C835.471 18.4733 836.038 15.6034 837.172 13.0257C838.341 10.448 839.99 8.24836 842.121 6.42677C844.252 4.57082 846.744 3.14448 849.597 2.14777C852.484 1.15105 855.697 0.652691 859.237 0.652691C864.049 0.652691 868.208 1.64941 871.713 3.64284C875.253 5.63627 877.986 8.36865 879.911 11.84C881.87 15.3113 882.849 19.2982 882.849 23.8006H867.795C867.795 21.6697 867.486 19.7965 866.867 18.1811C866.283 16.5314 865.338 15.2426 864.032 14.3146C862.726 13.3866 861.042 12.9226 858.98 12.9226C857.055 12.9226 855.457 13.3179 854.185 14.1084C852.948 14.8645 852.02 15.9128 851.401 17.2532C850.817 18.5592 850.525 20.0371 850.525 21.6868C850.525 22.9241 850.817 24.0412 851.401 25.0379C852.02 26.0002 852.862 26.8766 853.927 27.6671C854.993 28.4233 856.247 29.1622 857.691 29.884C859.169 30.6057 860.784 31.3103 862.537 31.9977C865.939 33.3381 868.947 34.816 871.559 36.4314C874.171 38.0124 876.353 39.7996 878.106 41.793C879.859 43.7521 881.182 45.9689 882.076 48.4435C882.969 50.9181 883.416 53.7364 883.416 56.8984C883.416 60.0261 882.866 62.8787 881.767 65.4564C880.701 67.9998 879.137 70.1994 877.075 72.0554C875.013 73.877 872.521 75.2861 869.6 76.2828C866.713 77.2796 863.482 77.7779 859.907 77.7779C856.436 77.7779 853.154 77.2967 850.061 76.3344C846.967 75.3377 844.235 73.8426 841.863 71.8492C839.526 69.8214 837.688 67.2608 836.347 64.1676C835.007 61.04 834.337 57.3452 834.337 53.0834H849.442C849.442 55.3518 849.665 57.2937 850.112 58.909C850.559 60.49 851.246 61.7617 852.174 62.7241C853.102 63.652 854.237 64.3566 855.577 64.8378C856.952 65.2846 858.516 65.508 860.268 65.508C862.262 65.508 863.843 65.1299 865.011 64.3738C866.214 63.6177 867.074 62.6038 867.589 61.3321C868.105 60.0604 868.362 58.6169 868.362 57.0015Z" fill="#121922"/>
<path d="M15.6853 1.68378H16.6853V0.683777H15.6853V1.68378ZM15.6853 76.7468V77.7468H16.6853V76.7468H15.6853ZM0.579927 76.7468H-0.420073V77.7468H0.579927V76.7468ZM0.579927 1.68378V0.683777H-0.420073V1.68378H0.579927ZM39.1941 33.5959H40.1941V32.5959H39.1941V33.5959ZM39.1941 46.072V47.072H40.1941V46.072H39.1941ZM11.8703 46.072H10.8703V47.072H11.8703V46.072ZM11.8703 33.5959V32.5959H10.8703V33.5959H11.8703ZM42.0811 1.68378H43.0811V0.683777H42.0811V1.68378ZM42.0811 14.2115V15.2115H43.0811V14.2115H42.0811ZM11.8703 14.2115H10.8703V15.2115H11.8703V14.2115ZM11.8703 1.68378V0.683777H10.8703V1.68378H11.8703ZM14.6853 1.68378V76.7468H16.6853V1.68378H14.6853ZM15.6853 75.7468H0.579927V77.7468H15.6853V75.7468ZM1.57993 76.7468V1.68378H-0.420073V76.7468H1.57993ZM0.579927 2.68378H15.6853V0.683777H0.579927V2.68378ZM38.1941 33.5959V46.072H40.1941V33.5959H38.1941ZM39.1941 45.072H11.8703V47.072H39.1941V45.072ZM12.8703 46.072V33.5959H10.8703V46.072H12.8703ZM11.8703 34.5959H39.1941V32.5959H11.8703V34.5959ZM41.0811 1.68378V14.2115H43.0811V1.68378H41.0811ZM42.0811 13.2115H11.8703V15.2115H42.0811V13.2115ZM12.8703 14.2115V1.68378H10.8703V14.2115H12.8703ZM11.8703 2.68378H42.0811V0.683777H11.8703V2.68378ZM61.5068 1.68378V0.683777H60.5068V1.68378H61.5068ZM106.565 11.8915L105.693 12.3809L106.565 11.8915ZM107.751 34.7816L108.684 35.1414L108.685 35.1376L107.751 34.7816ZM103.06 41.9477L103.741 42.6792L103.748 42.673L103.06 41.9477ZM95.7904 46.4845L95.4171 45.5568L95.3452 45.5857L95.2787 45.6253L95.7904 46.4845ZM91.2021 49.2168V50.2168H91.4773L91.7137 50.076L91.2021 49.2168ZM71.663 49.2168L70.663 49.221L70.6671 50.2168H71.663V49.2168ZM71.6114 36.6891V35.6891H70.6073L70.6114 36.6933L71.6114 36.6891ZM90.2741 35.3487L90.8288 36.1808L90.8336 36.1776L90.2741 35.3487ZM93.3158 31.4822L92.3899 31.1042L92.386 31.1141L93.3158 31.4822ZM93.4189 19.5216L92.4721 19.8435L92.476 19.855L92.4802 19.8664L93.4189 19.5216ZM90.5834 15.6034L89.9939 16.4112L90.0062 16.4202L90.0187 16.4287L90.5834 15.6034ZM76.6122 14.2115V13.2115H75.6122V14.2115H76.6122ZM76.6122 76.7468V77.7468H77.6122V76.7468H76.6122ZM61.5068 76.7468H60.5068V77.7468H61.5068V76.7468ZM95.5842 76.7468L94.6594 77.1273L94.9143 77.7468H95.5842V76.7468ZM81.8192 43.2881L81.8159 42.2881L80.3285 42.2929L80.8944 43.6686L81.8192 43.2881ZM97.6463 43.2365L98.5653 42.8421L98.3044 42.2344L97.6431 42.2365L97.6463 43.2365ZM111.721 76.0251H112.721V75.8195L112.64 75.6306L111.721 76.0251ZM111.721 76.7468V77.7468H112.721V76.7468H111.721ZM61.5068 2.68378H85.5826V0.683777H61.5068V2.68378ZM85.5826 2.68378C90.4896 2.68378 94.6111 3.52429 97.983 5.1611L98.8564 3.36189C95.1481 1.56174 90.7116 0.683777 85.5826 0.683777V2.68378ZM97.983 5.1611C101.343 6.79225 103.905 9.19422 105.693 12.3809L107.437 11.4021C105.445 7.85241 102.576 5.16768 98.8564 3.36189L97.983 5.1611ZM105.693 12.3809C107.479 15.5633 108.401 19.5427 108.401 24.3677H110.401C110.401 19.2942 109.432 14.9561 107.437 11.4021L105.693 12.3809ZM108.401 24.3677C108.401 28.3376 107.862 31.6817 106.816 34.4256L108.685 35.1376C109.84 32.1075 110.401 28.5089 110.401 24.3677H108.401ZM106.818 34.4219C105.766 37.1492 104.281 39.4091 102.371 41.2224L103.748 42.673C105.893 40.6368 107.536 38.1194 108.684 35.1414L106.818 34.4219ZM102.378 41.2162C100.448 43.015 98.1323 44.4641 95.4171 45.5568L96.1637 47.4122C99.0851 46.2365 101.615 44.661 103.741 42.6791L102.378 41.2162ZM95.2787 45.6253L90.6904 48.3576L91.7137 50.076L96.302 47.3436L95.2787 45.6253ZM91.2021 48.2168H71.663V50.2168H91.2021V48.2168ZM72.663 49.2127L72.6114 36.685L70.6114 36.6933L70.663 49.221L72.663 49.2127ZM71.6114 37.6891H85.1702V35.6891H71.6114V37.6891ZM85.1702 37.6891C87.3748 37.6891 89.2837 37.2109 90.8288 36.1808L89.7194 34.5167C88.5837 35.2738 87.0899 35.6891 85.1702 35.6891V37.6891ZM90.8336 36.1776C92.3873 35.1288 93.5238 33.6736 94.2456 31.8502L92.386 31.1141C91.8017 32.5902 90.9105 33.7127 89.7146 34.5199L90.8336 36.1776ZM94.2416 31.8601C94.9878 30.032 95.3469 27.9399 95.3469 25.605H93.3469C93.3469 27.7381 93.0186 29.5641 92.3899 31.1043L94.2416 31.8601ZM95.3469 25.605C95.3469 23.1515 95.0275 21.0004 94.3576 19.1767L92.4802 19.8664C93.0476 21.4109 93.3469 23.3154 93.3469 25.605H95.3469ZM94.3657 19.1997C93.7225 17.3079 92.6581 15.8113 91.1481 14.7781L90.0187 16.4287C91.1208 17.1828 91.9468 18.2983 92.4721 19.8435L94.3657 19.1997ZM91.1729 14.7956C89.6838 13.7091 87.7913 13.2115 85.5826 13.2115V15.2115C87.4983 15.2115 88.9396 15.6419 89.9939 16.4112L91.1729 14.7956ZM85.5826 13.2115H76.6122V15.2115H85.5826V13.2115ZM75.6122 14.2115V76.7468H77.6122V14.2115H75.6122ZM76.6122 75.7468H61.5068V77.7468H76.6122V75.7468ZM62.5068 76.7468V1.68378H60.5068V76.7468H62.5068ZM96.509 76.3664L82.744 42.9076L80.8944 43.6686L94.6594 77.1273L96.509 76.3664ZM81.8224 44.2881L97.6496 44.2365L97.6431 42.2365L81.8159 42.2881L81.8224 44.2881ZM96.7274 43.631L110.802 76.4195L112.64 75.6306L98.5653 42.8421L96.7274 43.631ZM110.721 76.0251V76.7468H112.721V76.0251H110.721ZM111.721 75.7468H95.5842V77.7468H111.721V75.7468ZM173.524 64.2707H174.524V63.2707H173.524V64.2707ZM173.524 76.7468V77.7468H174.524V76.7468H173.524ZM140.89 76.7468H139.89V77.7468H140.89V76.7468ZM140.89 64.2707V63.2707H139.89V64.2707H140.89ZM145.582 1.68378H146.582V0.683777H145.582V1.68378ZM145.582 76.7468V77.7468H146.582V76.7468H145.582ZM130.476 76.7468H129.476V77.7468H130.476V76.7468ZM130.476 1.68378V0.683777H129.476V1.68378H130.476ZM169.142 32.1008H170.142V31.1008H169.142V32.1008ZM169.142 44.2161V45.2161H170.142V44.2161H169.142ZM140.89 44.2161H139.89V45.2161H140.89V44.2161ZM140.89 32.1008V31.1008H139.89V32.1008H140.89ZM173.421 1.68378H174.421V0.683777H173.421V1.68378ZM173.421 14.2115V15.2115H174.421V14.2115H173.421ZM140.89 14.2115H139.89V15.2115H140.89V14.2115ZM140.89 1.68378V0.683777H139.89V1.68378H140.89ZM172.524 64.2707V76.7468H174.524V64.2707H172.524ZM173.524 75.7468H140.89V77.7468H173.524V75.7468ZM141.89 76.7468V64.2707H139.89V76.7468H141.89ZM140.89 65.2707H173.524V63.2707H140.89V65.2707ZM144.582 1.68378V76.7468H146.582V1.68378H144.582ZM145.582 75.7468H130.476V77.7468H145.582V75.7468ZM131.476 76.7468V1.68378H129.476V76.7468H131.476ZM130.476 2.68378H145.582V0.683777H130.476V2.68378ZM168.142 32.1008V44.2161H170.142V32.1008H168.142ZM169.142 43.2161H140.89V45.2161H169.142V43.2161ZM141.89 44.2161V32.1008H139.89V44.2161H141.89ZM140.89 33.1008H169.142V31.1008H140.89V33.1008ZM172.421 1.68378V14.2115H174.421V1.68378H172.421ZM173.421 13.2115H140.89V15.2115H173.421V13.2115ZM141.89 14.2115V1.68378H139.89V14.2115H141.89ZM140.89 2.68378H173.421V0.683777H140.89V2.68378ZM235.946 64.2707H236.946V63.2707H235.946V64.2707ZM235.946 76.7468V77.7468H236.946V76.7468H235.946ZM203.312 76.7468H202.312V77.7468H203.312V76.7468ZM203.312 64.2707V63.2707H202.312V64.2707H203.312ZM208.003 1.68378H209.003V0.683777H208.003V1.68378ZM208.003 76.7468V77.7468H209.003V76.7468H208.003ZM192.898 76.7468H191.898V77.7468H192.898V76.7468ZM192.898 1.68378V0.683777H191.898V1.68378H192.898ZM231.564 32.1008H232.564V31.1008H231.564V32.1008ZM231.564 44.2161V45.2161H232.564V44.2161H231.564ZM203.312 44.2161H202.312V45.2161H203.312V44.2161ZM203.312 32.1008V31.1008H202.312V32.1008H203.312ZM235.843 1.68378H236.843V0.683777H235.843V1.68378ZM235.843 14.2115V15.2115H236.843V14.2115H235.843ZM203.312 14.2115H202.312V15.2115H203.312V14.2115ZM203.312 1.68378V0.683777H202.312V1.68378H203.312ZM234.946 64.2707V76.7468H236.946V64.2707H234.946ZM235.946 75.7468H203.312V77.7468H235.946V75.7468ZM204.312 76.7468V64.2707H202.312V76.7468H204.312ZM203.312 65.2707H235.946V63.2707H203.312V65.2707ZM207.003 1.68378V76.7468H209.003V1.68378H207.003ZM208.003 75.7468H192.898V77.7468H208.003V75.7468ZM193.898 76.7468V1.68378H191.898V76.7468H193.898ZM192.898 2.68378H208.003V0.683777H192.898V2.68378ZM230.564 32.1008V44.2161H232.564V32.1008H230.564ZM231.564 43.2161H203.312V45.2161H231.564V43.2161ZM204.312 44.2161V32.1008H202.312V44.2161H204.312ZM203.312 33.1008H231.564V31.1008H203.312V33.1008ZM234.843 1.68378V14.2115H236.843V1.68378H234.843ZM235.843 13.2115H203.312V15.2115H235.843V13.2115ZM204.312 14.2115V1.68378H202.312V14.2115H204.312ZM203.312 2.68378H235.843V0.683777H203.312V2.68378ZM290.263 1.68378V0.683777H289.263V1.68378H290.263ZM335.322 11.8915L334.45 12.3809L335.322 11.8915ZM336.508 34.7816L337.441 35.1414L337.442 35.1376L336.508 34.7816ZM331.816 41.9477L332.498 42.6792L332.505 42.673L331.816 41.9477ZM324.547 46.4845L324.174 45.5568L324.102 45.5857L324.035 45.6253L324.547 46.4845ZM319.959 49.2168V50.2168H320.234L320.47 50.076L319.959 49.2168ZM300.42 49.2168L299.42 49.221L299.424 50.2168H300.42V49.2168ZM300.368 36.6891V35.6891H299.364L299.368 36.6933L300.368 36.6891ZM319.031 35.3487L319.586 36.1808L319.59 36.1776L319.031 35.3487ZM322.073 31.4822L321.147 31.1042L321.143 31.1141L322.073 31.4822ZM322.176 19.5216L321.229 19.8435L321.233 19.855L321.237 19.8664L322.176 19.5216ZM319.34 15.6034L318.751 16.4112L318.763 16.4202L318.775 16.4287L319.34 15.6034ZM305.369 14.2115V13.2115H304.369V14.2115H305.369ZM305.369 76.7468V77.7468H306.369V76.7468H305.369ZM290.263 76.7468H289.263V77.7468H290.263V76.7468ZM324.341 76.7468L323.416 77.1273L323.671 77.7468H324.341V76.7468ZM310.576 43.2881L310.573 42.2881L309.085 42.2929L309.651 43.6686L310.576 43.2881ZM326.403 43.2365L327.322 42.8421L327.061 42.2344L326.4 42.2365L326.403 43.2365ZM340.477 76.0251H341.477V75.8195L341.396 75.6306L340.477 76.0251ZM340.477 76.7468V77.7468H341.477V76.7468H340.477ZM290.263 2.68378H314.339V0.683777H290.263V2.68378ZM314.339 2.68378C319.246 2.68378 323.368 3.52429 326.74 5.1611L327.613 3.36189C323.905 1.56174 319.468 0.683777 314.339 0.683777V2.68378ZM326.74 5.1611C330.1 6.79225 332.661 9.19422 334.45 12.3809L336.194 11.4021C334.202 7.85241 331.333 5.16768 327.613 3.36189L326.74 5.1611ZM334.45 12.3809C336.236 15.5633 337.157 19.5427 337.157 24.3677H339.157C339.157 19.2942 338.189 14.9561 336.194 11.4021L334.45 12.3809ZM337.157 24.3677C337.157 28.3376 336.619 31.6817 335.573 34.4256L337.442 35.1376C338.597 32.1075 339.157 28.5089 339.157 24.3677H337.157ZM335.575 34.4219C334.523 37.1492 333.038 39.4091 331.128 41.2224L332.505 42.673C334.65 40.6368 336.293 38.1194 337.441 35.1414L335.575 34.4219ZM331.134 41.2162C329.205 43.015 326.889 44.4641 324.174 45.5568L324.92 47.4122C327.842 46.2365 330.372 44.661 332.498 42.6791L331.134 41.2162ZM324.035 45.6253L319.447 48.3576L320.47 50.076L325.059 47.3436L324.035 45.6253ZM319.959 48.2168H300.42V50.2168H319.959V48.2168ZM301.42 49.2127L301.368 36.685L299.368 36.6933L299.42 49.221L301.42 49.2127ZM300.368 37.6891H313.927V35.6891H300.368V37.6891ZM313.927 37.6891C316.132 37.6891 318.04 37.2109 319.586 36.1808L318.476 34.5167C317.34 35.2738 315.847 35.6891 313.927 35.6891V37.6891ZM319.59 36.1776C321.144 35.1288 322.281 33.6736 323.002 31.8502L321.143 31.1141C320.558 32.5902 319.667 33.7127 318.471 34.5199L319.59 36.1776ZM322.998 31.8601C323.745 30.032 324.104 27.9399 324.104 25.605H322.104C322.104 27.7381 321.775 29.5641 321.147 31.1043L322.998 31.8601ZM324.104 25.605C324.104 23.1515 323.784 21.0004 323.114 19.1767L321.237 19.8664C321.804 21.4109 322.104 23.3154 322.104 25.605H324.104ZM323.122 19.1997C322.479 17.3079 321.415 15.8113 319.905 14.7781L318.775 16.4287C319.878 17.1828 320.703 18.2983 321.229 19.8435L323.122 19.1997ZM319.93 14.7956C318.441 13.7091 316.548 13.2115 314.339 13.2115V15.2115C316.255 15.2115 317.696 15.6419 318.751 16.4112L319.93 14.7956ZM314.339 13.2115H305.369V15.2115H314.339V13.2115ZM304.369 14.2115V76.7468H306.369V14.2115H304.369ZM305.369 75.7468H290.263V77.7468H305.369V75.7468ZM291.263 76.7468V1.68378H289.263V76.7468H291.263ZM325.266 76.3664L311.501 42.9076L309.651 43.6686L323.416 77.1273L325.266 76.3664ZM310.579 44.2881L326.406 44.2365L326.4 42.2365L310.573 42.2881L310.579 44.2881ZM325.484 43.631L339.558 76.4195L341.396 75.6306L327.322 42.8421L325.484 43.631ZM339.477 76.0251V76.7468H341.477V76.0251H339.477ZM340.477 75.7468H324.341V77.7468H340.477V75.7468ZM402.281 64.2707H403.281V63.2707H402.281V64.2707ZM402.281 76.7468V77.7468H403.281V76.7468H402.281ZM369.647 76.7468H368.647V77.7468H369.647V76.7468ZM369.647 64.2707V63.2707H368.647V64.2707H369.647ZM374.338 1.68378H375.338V0.683777H374.338V1.68378ZM374.338 76.7468V77.7468H375.338V76.7468H374.338ZM359.233 76.7468H358.233V77.7468H359.233V76.7468ZM359.233 1.68378V0.683777H358.233V1.68378H359.233ZM397.899 32.1008H398.899V31.1008H397.899V32.1008ZM397.899 44.2161V45.2161H398.899V44.2161H397.899ZM369.647 44.2161H368.647V45.2161H369.647V44.2161ZM369.647 32.1008V31.1008H368.647V32.1008H369.647ZM402.178 1.68378H403.178V0.683777H402.178V1.68378ZM402.178 14.2115V15.2115H403.178V14.2115H402.178ZM369.647 14.2115H368.647V15.2115H369.647V14.2115ZM369.647 1.68378V0.683777H368.647V1.68378H369.647ZM401.281 64.2707V76.7468H403.281V64.2707H401.281ZM402.281 75.7468H369.647V77.7468H402.281V75.7468ZM370.647 76.7468V64.2707H368.647V76.7468H370.647ZM369.647 65.2707H402.281V63.2707H369.647V65.2707ZM373.338 1.68378V76.7468H375.338V1.68378H373.338ZM374.338 75.7468H359.233V77.7468H374.338V75.7468ZM360.233 76.7468V1.68378H358.233V76.7468H360.233ZM359.233 2.68378H374.338V0.683777H359.233V2.68378ZM396.899 32.1008V44.2161H398.899V32.1008H396.899ZM397.899 43.2161H369.647V45.2161H397.899V43.2161ZM370.647 44.2161V32.1008H368.647V44.2161H370.647ZM369.647 33.1008H397.899V31.1008H369.647V33.1008ZM401.178 1.68378V14.2115H403.178V1.68378H401.178ZM402.178 13.2115H369.647V15.2115H402.178V13.2115ZM370.647 14.2115V1.68378H368.647V14.2115H370.647ZM369.647 2.68378H402.178V0.683777H369.647V2.68378ZM451.505 50.2995L450.729 50.9311L450.736 50.9396L450.743 50.9479L451.505 50.2995ZM448.154 47.5155L447.613 48.3568L447.622 48.3624L448.154 47.5155ZM442.483 44.6285L442.875 43.7086L442.87 43.7064L442.483 44.6285ZM434.389 40.9166L433.932 41.8063L433.941 41.811L434.389 40.9166ZM422.325 30.0902L421.431 30.5374L421.434 30.5451L421.438 30.5528L422.325 30.0902ZM422.222 13.0257L421.311 12.6128L421.307 12.623L422.222 13.0257ZM427.171 6.42677L427.821 7.18692L427.828 7.18085L427.171 6.42677ZM434.646 2.14777L434.32 1.20251L434.317 1.20373L434.646 2.14777ZM456.763 3.64284L456.269 4.51214L456.273 4.51419L456.763 3.64284ZM464.96 11.84L464.086 12.3249L464.089 12.3315L464.96 11.84ZM467.899 23.8006V24.8006H468.899V23.8006H467.899ZM452.845 23.8006H451.845V24.8006H452.845V23.8006ZM451.917 18.1811L450.974 18.515L450.979 18.527L450.983 18.5388L451.917 18.1811ZM439.235 14.1084L439.756 14.9617L439.763 14.9576L439.235 14.1084ZM436.451 17.2532L435.543 16.8341L435.538 16.8448L436.451 17.2532ZM436.451 25.0379L435.588 25.5436L435.599 25.5613L435.61 25.5786L436.451 25.0379ZM438.977 27.6671L438.381 28.4702L438.39 28.4765L438.398 28.4826L438.977 27.6671ZM442.74 29.884L442.293 30.7784L442.302 30.7825L442.74 29.884ZM447.587 31.9977L447.953 31.0673L447.952 31.0667L447.587 31.9977ZM456.609 36.4314L456.083 37.2819L456.091 37.2869L456.609 36.4314ZM463.156 41.793L462.405 42.4534L462.411 42.4598L463.156 41.793ZM466.816 65.4564L465.897 65.064L465.894 65.0701L466.816 65.4564ZM462.125 72.0554L462.787 72.8049L462.794 72.7987L462.125 72.0554ZM454.65 76.2828L454.327 75.3364L454.323 75.3376L454.65 76.2828ZM435.11 76.3344L434.804 77.2862L434.813 77.2892L435.11 76.3344ZM426.913 71.8492L426.258 72.6045L426.264 72.6096L426.27 72.6147L426.913 71.8492ZM421.397 64.1676L420.478 64.5615L420.479 64.5652L421.397 64.1676ZM419.386 53.0834V52.0834H418.386V53.0834H419.386ZM434.492 53.0834H435.492V52.0834H434.492V53.0834ZM435.162 58.909L434.198 59.1756L434.2 59.181L435.162 58.909ZM437.224 62.7241L436.504 63.4182L436.511 63.4247L436.517 63.4312L437.224 62.7241ZM440.627 64.8378L440.289 65.779L440.303 65.7841L440.318 65.7888L440.627 64.8378ZM450.061 64.3738L449.529 63.5271L449.518 63.5342L450.061 64.3738ZM454.412 57.0015C454.412 55.6024 454.287 54.3093 454.028 53.1275L452.074 53.5549C452.297 54.5727 452.412 55.7198 452.412 57.0015H454.412ZM454.028 53.1275C453.75 51.8541 453.154 50.6934 452.266 49.651L450.743 50.9479C451.436 51.7615 451.872 52.6286 452.074 53.5549L454.028 53.1275ZM452.28 49.6678C451.431 48.6262 450.217 47.6305 448.685 46.6687L447.622 48.3624C449.046 49.2565 450.066 50.1168 450.729 50.9311L452.28 49.6678ZM448.694 46.6744C447.187 45.7054 445.242 44.718 442.875 43.7087L442.09 45.5483C444.398 46.5325 446.233 47.4698 447.613 48.3567L448.694 46.6744ZM442.87 43.7064C440.105 42.5461 437.428 41.318 434.836 40.0222L433.941 41.811C436.574 43.1273 439.292 44.3737 442.096 45.5506L442.87 43.7064ZM434.845 40.0269C432.294 38.7178 430.003 37.2114 427.967 35.5095L426.684 37.0439C428.842 38.8477 431.259 40.4345 433.932 41.8063L434.845 40.0269ZM427.967 35.5095C425.969 33.8392 424.387 31.8799 423.212 29.6276L421.438 30.5528C422.738 33.0435 424.489 35.2085 426.684 37.0439L427.967 35.5095ZM423.219 29.643C422.098 27.4012 421.521 24.7417 421.521 21.6353H419.521C419.521 24.9904 420.146 27.9675 421.431 30.5374L423.219 29.643ZM421.521 21.6353C421.521 18.5949 422.065 15.8645 423.137 13.4285L421.307 12.623C420.11 15.3423 419.521 18.3517 419.521 21.6353H421.521ZM423.133 13.4386C424.241 10.993 425.802 8.91232 427.821 7.18689L426.521 5.66665C424.278 7.5844 422.54 9.90297 421.311 12.6128L423.133 13.4386ZM427.828 7.18085C429.856 5.41409 432.235 4.0495 434.976 3.0918L434.317 1.20373C431.352 2.23946 428.748 3.72755 426.514 5.67269L427.828 7.18085ZM434.973 3.09302C437.74 2.1378 440.841 1.65269 444.287 1.65269V-0.347309C440.653 -0.347309 437.327 0.164299 434.32 1.20251L434.973 3.09302ZM444.287 1.65269C448.959 1.65269 452.941 2.61954 456.269 4.51213L457.258 2.77355C453.574 0.679276 449.239 -0.347309 444.287 -0.347309V1.65269ZM456.273 4.51419C459.655 6.41907 462.253 9.01939 464.086 12.3249L465.835 11.3551C463.818 7.71791 460.951 4.85348 457.254 2.77149L456.273 4.51419ZM464.089 12.3315C465.953 15.6342 466.899 19.4477 466.899 23.8006H468.899C468.899 19.1486 467.885 14.9884 465.831 11.3485L464.089 12.3315ZM467.899 22.8006H452.845V24.8006H467.899V22.8006ZM453.845 23.8006C453.845 21.5748 453.522 19.5761 452.851 17.8235L450.983 18.5388C451.549 20.0169 451.845 21.7645 451.845 23.8006H453.845ZM452.86 17.8473C452.213 16.0224 451.15 14.5577 449.661 13.4994L448.502 15.1298C449.625 15.9275 450.452 17.0405 450.974 18.515L452.86 17.8473ZM449.661 13.4994C448.143 12.4208 446.24 11.9226 444.029 11.9226V13.9226C445.943 13.9226 447.408 14.3524 448.502 15.1298L449.661 13.4994ZM444.029 11.9226C441.971 11.9226 440.176 12.3456 438.707 13.2591L439.763 14.9576C440.837 14.2901 442.239 13.9226 444.029 13.9226V11.9226ZM438.713 13.2551C437.304 14.1165 436.243 15.3173 435.543 16.8341L437.359 17.6722C437.896 16.5082 438.691 15.6125 439.756 14.9616L438.713 13.2551ZM435.538 16.8448C434.888 18.2975 434.574 19.9178 434.574 21.6868H436.574C436.574 20.1564 436.845 18.8209 437.364 17.6615L435.538 16.8448ZM434.574 21.6868C434.574 23.0889 434.908 24.3826 435.588 25.5436L437.314 24.5322C436.826 23.6997 436.574 22.7594 436.574 21.6868H434.574ZM435.61 25.5786C436.303 26.6573 437.234 27.6191 438.381 28.4702L439.573 26.864C438.589 26.1342 437.836 25.3431 437.292 24.4971L435.61 25.5786ZM438.398 28.4826C439.514 29.2743 440.814 30.0388 442.293 30.7784L443.188 28.9895C441.78 28.2856 440.571 27.5722 439.556 26.8516L438.398 28.4826ZM442.302 30.7825C443.807 31.5176 445.447 32.2328 447.221 32.9287L447.952 31.0667C446.22 30.3878 444.63 29.6938 443.179 28.9854L442.302 30.7825ZM447.22 32.9281C450.577 34.2507 453.53 35.7031 456.083 37.2819L457.135 35.5809C454.463 33.9289 451.401 32.4255 447.953 31.0673L447.22 32.9281ZM456.091 37.2869C458.628 38.8228 460.729 40.547 462.405 42.4534L463.907 41.1327C462.078 39.0522 459.813 37.2019 457.126 35.5759L456.091 37.2869ZM462.411 42.4598C464.078 44.3233 465.335 46.429 466.185 48.7832L468.066 48.1039C467.129 45.5088 465.74 43.1809 463.901 41.1262L462.411 42.4598ZM466.185 48.7832C467.032 51.1294 467.466 53.8295 467.466 56.8984H469.466C469.466 53.6433 469.006 50.7069 468.066 48.1039L466.185 48.7832ZM467.466 56.8984C467.466 59.9068 466.938 62.624 465.897 65.064L467.736 65.8489C468.895 63.1335 469.466 60.1453 469.466 56.8984H467.466ZM465.894 65.0701C464.886 67.4763 463.409 69.5543 461.456 71.3121L462.794 72.7987C464.965 70.8446 466.616 68.5232 467.739 65.8428L465.894 65.0701ZM461.463 71.3059C459.511 73.0301 457.138 74.3771 454.327 75.3364L454.972 77.2293C458.004 76.1951 460.614 74.7239 462.787 72.8049L461.463 71.3059ZM454.323 75.3376C451.557 76.2925 448.439 76.7779 444.957 76.7779V78.7779C448.624 78.7779 451.968 78.2666 454.976 77.2281L454.323 75.3376ZM444.957 76.7779C441.579 76.7779 438.398 76.3099 435.408 75.3795L434.813 77.2892C438.009 78.2836 441.392 78.7779 444.957 78.7779V76.7779ZM435.417 75.3826C432.441 74.4236 429.824 72.9897 427.557 71.0837L426.27 72.6147C428.745 74.6955 431.593 76.2517 434.804 77.2862L435.417 75.3826ZM427.569 71.0938C425.354 69.1727 423.601 66.7384 422.315 63.77L420.479 64.5652C421.874 67.7833 423.798 70.47 426.258 72.6045L427.569 71.0938ZM422.316 63.7737C421.041 60.7977 420.386 57.2429 420.386 53.0834H418.386C418.386 57.4476 419.072 61.2822 420.478 64.5615L422.316 63.7737ZM419.386 54.0834H434.492V52.0834H419.386V54.0834ZM433.492 53.0834C433.492 55.4124 433.721 57.449 434.198 59.1756L436.126 58.6425C435.71 57.1384 435.492 55.2912 435.492 53.0834H433.492ZM434.2 59.181C434.681 60.8847 435.439 62.3131 436.504 63.4182L437.944 62.0299C437.154 61.2104 436.536 60.0954 436.124 58.6371L434.2 59.181ZM436.517 63.4312C437.558 64.4721 438.822 65.2523 440.289 65.779L440.965 63.8966C439.751 63.4609 438.746 62.832 437.931 62.017L436.517 63.4312ZM440.318 65.7888C441.811 66.2741 443.482 66.508 445.318 66.508V64.508C443.649 64.508 442.192 64.2951 440.936 63.8867L440.318 65.7888ZM445.318 66.508C447.425 66.508 449.218 66.1103 450.604 65.2134L449.518 63.5342C448.567 64.1496 447.198 64.508 445.318 64.508V66.508ZM450.593 65.2204C451.967 64.3568 452.968 63.1812 453.566 61.7078L451.712 60.9564C451.278 62.0263 450.561 62.8785 449.529 63.5272L450.593 65.2204ZM453.566 61.7078C454.137 60.2976 454.412 58.7232 454.412 57.0015H452.412C452.412 58.5106 452.172 59.8232 451.712 60.9564L453.566 61.7078ZM540.013 59.837L539.063 59.5257L539.061 59.5307L540.013 59.837ZM534.548 69.787L533.799 69.1244L533.799 69.1251L534.548 69.787ZM526.042 75.7673L525.669 74.8395L525.665 74.8408L526.042 75.7673ZM504.028 75.7673L503.652 76.6938L503.655 76.6951L504.028 75.7673ZM495.47 69.787L494.721 70.4496L494.73 70.4597L495.47 69.787ZM489.954 59.837L489.004 60.1483L489.004 60.1508L489.954 59.837ZM489.902 19.1607L490.857 19.4599L490.857 19.4576L489.902 19.1607ZM495.419 8.95293L496.167 9.61613L496.171 9.61144L495.419 8.95293ZM503.977 2.76642L504.361 3.68953L504.369 3.68606L503.977 2.76642ZM525.939 2.76642L525.546 3.68609L525.554 3.68949L525.939 2.76642ZM534.497 8.95293L533.744 9.61145L533.748 9.61612L534.497 8.95293ZM540.013 19.1607L539.058 19.4576L539.061 19.4672L540.013 19.1607ZM526.197 24.1614L525.216 24.3601L525.217 24.3627L526.197 24.1614ZM509.751 14.3661L509.303 13.4717L509.295 13.4759L509.751 14.3661ZM505.987 17.9234L505.144 17.3853L505.14 17.3918L505.136 17.3983L505.987 17.9234ZM503.719 24.1614L502.739 23.9628L502.737 23.9731L503.719 24.1614ZM509.854 64.1676L509.398 65.0578L509.411 65.0641L509.423 65.0701L509.854 64.1676ZM520.165 64.1676L520.604 65.0662L520.612 65.062L520.165 64.1676ZM540.972 33.3897V45.9174H542.972V33.3897H540.972ZM540.972 45.9174C540.972 51.1309 540.329 55.6617 539.063 59.5257L540.963 60.1483C542.31 56.0387 542.972 51.2896 542.972 45.9174H540.972ZM539.061 59.5307C537.825 63.3726 536.066 66.5623 533.799 69.1244L535.297 70.4496C537.774 67.65 539.658 64.2064 540.965 60.1433L539.061 59.5307ZM533.799 69.1251C531.567 71.6526 528.861 73.5561 525.669 74.8395L526.415 76.6951C529.891 75.2977 532.856 73.2143 535.298 70.4489L533.799 69.1251ZM525.665 74.8408C522.5 76.1268 518.97 76.7779 515.061 76.7779V78.7779C519.194 78.7779 522.985 78.0886 526.418 76.6938L525.665 74.8408ZM515.061 76.7779C511.152 76.7779 507.603 76.1269 504.401 74.8395L503.655 76.6951C507.121 78.0886 510.927 78.7779 515.061 78.7779V76.7779ZM504.405 74.8408C501.244 73.557 498.516 71.6505 496.21 69.1143L494.73 70.4597C497.236 73.2164 500.213 75.2968 503.652 76.6938L504.405 74.8408ZM496.219 69.1244C493.951 66.5603 492.174 63.3679 490.903 59.5233L489.004 60.1508C490.346 64.2112 492.246 67.6521 494.721 70.4496L496.219 69.1244ZM490.904 59.5257C489.638 55.6617 488.995 51.1309 488.995 45.9174H486.995C486.995 51.2896 487.657 56.0387 489.004 60.1483L490.904 59.5257ZM488.995 45.9174V33.3897H486.995V45.9174H488.995ZM488.995 33.3897C488.995 28.0341 489.622 23.3961 490.857 19.4599L488.948 18.8615C487.639 23.0365 486.995 27.8845 486.995 33.3897H488.995ZM490.857 19.4576C492.094 15.4788 493.871 12.2078 496.167 9.61612L494.67 8.28974C492.155 11.1284 490.254 14.6626 488.947 18.8638L490.857 19.4576ZM496.171 9.61144C498.479 6.97442 501.206 5.00407 504.361 3.68949L503.592 1.84334C500.148 3.27832 497.17 5.43231 494.666 8.29443L496.171 9.61144ZM504.369 3.68606C507.531 2.33598 511.055 1.65269 514.958 1.65269V-0.347309C510.818 -0.347309 507.022 0.37855 503.584 1.84678L504.369 3.68606ZM514.958 1.65269C518.86 1.65269 522.385 2.33598 525.546 3.68606L526.331 1.84678C522.894 0.37855 519.098 -0.347309 514.958 -0.347309V1.65269ZM525.554 3.68949C528.709 5.00407 531.437 6.97442 533.744 9.61144L535.249 8.29443C532.745 5.43231 529.767 3.27832 526.323 1.84334L525.554 3.68949ZM533.748 9.61612C536.045 12.2078 537.821 15.4788 539.058 19.4576L540.968 18.8638C539.662 14.6626 537.76 11.1284 535.245 8.28974L533.748 9.61612ZM539.061 19.4672C540.328 23.4009 540.972 28.0362 540.972 33.3897H542.972C542.972 27.8823 542.31 23.0317 540.965 18.8542L539.061 19.4672ZM527.97 45.9174V33.2866H525.97V45.9174H527.97ZM527.97 33.2866C527.97 29.6689 527.709 26.5556 527.176 23.9602L525.217 24.3627C525.715 26.7853 525.97 29.7554 525.97 33.2866H527.97ZM527.177 23.9628C526.645 21.3389 525.836 19.134 524.719 17.3853L523.034 18.4614C523.98 19.9435 524.717 21.8974 525.216 24.3601L527.177 23.9628ZM524.719 17.3853C523.608 15.6437 522.228 14.3247 520.569 13.4759L519.658 15.2564C520.954 15.9198 522.083 16.9723 523.034 18.4614L524.719 17.3853ZM520.569 13.4759C518.926 12.6357 517.047 12.2319 514.958 12.2319V14.2319C516.787 14.2319 518.344 14.5843 519.658 15.2564L520.569 13.4759ZM514.958 12.2319C512.868 12.2319 510.975 12.6359 509.303 13.4717L510.198 15.2606C511.551 14.5841 513.129 14.2319 514.958 14.2319V12.2319ZM509.295 13.4759C507.636 14.3247 506.256 15.6437 505.144 17.3853L506.83 18.4614C507.781 16.9723 508.909 15.9198 510.206 15.2564L509.295 13.4759ZM505.136 17.3983C504.059 19.1434 503.27 21.3434 502.739 23.9628L504.699 24.3601C505.199 21.8928 505.922 19.9341 506.838 18.4485L505.136 17.3983ZM502.737 23.9731C502.24 26.5632 501.997 29.6719 501.997 33.2866H503.997C503.997 29.7524 504.235 26.7776 504.701 24.3498L502.737 23.9731ZM501.997 33.2866V45.9174H503.997V33.2866H501.997ZM501.997 45.9174C501.997 49.3997 502.258 52.4116 502.792 54.9398L504.749 54.5264C504.252 52.1742 503.997 49.3089 503.997 45.9174H501.997ZM502.792 54.9398C503.325 57.4644 504.137 59.5865 505.258 61.2681L506.922 60.1587C505.981 58.7471 505.247 56.8824 504.749 54.5264L502.792 54.9398ZM505.258 61.2681C506.373 62.9396 507.751 64.2149 509.398 65.0578L510.309 63.2773C509.001 62.608 507.87 61.5805 506.922 60.1587L505.258 61.2681ZM509.423 65.0701C511.091 65.866 512.978 66.2502 515.061 66.2502V64.2502C513.226 64.2502 511.641 63.9127 510.285 63.2651L509.423 65.0701ZM515.061 66.2502C517.112 66.2502 518.968 65.8651 520.604 65.0661L519.726 63.269C518.406 63.9136 516.859 64.2502 515.061 64.2502V66.2502ZM520.612 65.062C522.299 64.2187 523.684 62.9388 524.769 61.2551L523.088 60.1717C522.179 61.5814 521.055 62.6042 519.717 63.2732L520.612 65.062ZM524.769 61.2551C525.85 59.5769 526.643 57.4596 527.175 54.9398L525.218 54.5264C524.719 56.8872 523.999 58.7567 523.088 60.1717L524.769 61.2551ZM527.175 54.9398C527.709 52.4116 527.97 49.3997 527.97 45.9174H525.97C525.97 49.3089 525.715 52.1742 525.218 54.5264L527.175 54.9398ZM597.228 1.68378V0.683777H596.228V1.68378H597.228ZM612.282 1.68378H613.282V0.683777H612.282V1.68378ZM609.086 67.3639L608.222 66.8591L608.221 66.8616L609.086 67.3639ZM600.373 75.3033L600.779 76.2171L600.786 76.214L600.373 75.3033ZM574.802 75.3033L574.392 76.2154L574.399 76.2185L574.802 75.3033ZM566.038 67.3639L565.167 67.8566L565.173 67.8663L566.038 67.3639ZM562.944 1.68378V0.683777H561.944V1.68378H562.944ZM577.998 1.68378H578.998V0.683777H577.998V1.68378ZM579.081 60.765L578.156 61.1457L578.159 61.1534L578.163 61.1611L579.081 60.765ZM582.329 64.3738L581.908 65.2811L581.922 65.2872L581.935 65.2929L582.329 64.3738ZM592.898 64.3738L593.308 65.2858L593.318 65.2811L592.898 64.3738ZM596.094 60.765L595.176 60.3689L595.172 60.3765L595.169 60.3842L596.094 60.765ZM597.228 2.68378H612.282V0.683777H597.228V2.68378ZM611.282 1.68378V53.2381H613.282V1.68378H611.282ZM611.282 53.2381C611.282 58.8973 610.237 63.4153 608.222 66.8591L609.949 67.8688C612.196 64.0262 613.282 59.127 613.282 53.2381H611.282ZM608.221 66.8616C606.226 70.2953 603.478 72.7966 599.96 74.3927L600.786 76.214C604.692 74.4418 607.752 71.6502 609.95 67.8663L608.221 66.8616ZM599.967 74.3895C596.403 75.9733 592.301 76.7779 587.639 76.7779V78.7779C592.532 78.7779 596.919 77.9328 600.779 76.2171L599.967 74.3895ZM587.639 76.7779C582.942 76.7779 578.804 75.973 575.205 74.3881L574.399 76.2185C578.293 77.9331 582.713 78.7779 587.639 78.7779V76.7779ZM575.212 74.3912C571.66 72.7943 568.896 70.2928 566.902 66.8616L565.173 67.8663C567.373 71.6527 570.452 74.4441 574.392 76.2154L575.212 74.3912ZM566.908 66.8713C564.957 63.4247 563.944 58.902 563.944 53.2381H561.944C561.944 59.1223 562.994 64.0168 565.167 67.8565L566.908 66.8713ZM563.944 53.2381V1.68378H561.944V53.2381H563.944ZM562.944 2.68378H577.998V0.683777H562.944V2.68378ZM576.998 1.68378V53.2381H578.998V1.68378H576.998ZM576.998 53.2381C576.998 56.5531 577.361 59.215 578.156 61.1457L580.006 60.3842C579.357 58.8093 578.998 56.4533 578.998 53.2381H576.998ZM578.163 61.1611C578.993 63.0857 580.228 64.5024 581.908 65.2811L582.749 63.4665C581.612 62.9392 580.681 61.95 579.999 60.3689L578.163 61.1611ZM581.935 65.2929C583.537 65.9796 585.45 66.3018 587.639 66.3018V64.3018C585.635 64.3018 584.008 64.0053 582.723 63.4547L581.935 65.2929ZM587.639 66.3018C589.857 66.3018 591.762 65.9812 593.308 65.2857L592.487 63.4619C591.283 64.0037 589.683 64.3018 587.639 64.3018V66.3018ZM593.318 65.2811C595.003 64.5 596.223 63.0773 597.019 61.1457L595.169 60.3842C594.521 61.9584 593.61 62.9415 592.477 63.4665L593.318 65.2811ZM597.012 61.1611C597.848 59.2244 598.228 56.5562 598.228 53.2381H596.228C596.228 56.4502 595.853 58.7999 595.176 60.3689L597.012 61.1611ZM598.228 53.2381V1.68378H596.228V53.2381H598.228ZM634.44 1.68378V0.683777H633.44V1.68378H634.44ZM679.498 11.8915L678.626 12.3809L679.498 11.8915ZM680.684 34.7816L681.617 35.1414L681.619 35.1376L680.684 34.7816ZM675.993 41.9477L676.675 42.6792L676.681 42.673L675.993 41.9477ZM668.724 46.4845L668.35 45.5568L668.278 45.5857L668.212 45.6253L668.724 46.4845ZM664.135 49.2168V50.2168H664.41L664.647 50.076L664.135 49.2168ZM644.596 49.2168L643.596 49.221L643.6 50.2168H644.596V49.2168ZM644.545 36.6891V35.6891H643.54L643.545 36.6933L644.545 36.6891ZM663.207 35.3487L663.762 36.1808L663.767 36.1776L663.207 35.3487ZM666.249 31.4822L665.323 31.1042L665.319 31.1141L666.249 31.4822ZM666.352 19.5216L665.405 19.8435L665.409 19.855L665.413 19.8664L666.352 19.5216ZM663.517 15.6034L662.927 16.4112L662.939 16.4202L662.952 16.4287L663.517 15.6034ZM649.545 14.2115V13.2115H648.545V14.2115H649.545ZM649.545 76.7468V77.7468H650.545V76.7468H649.545ZM634.44 76.7468H633.44V77.7468H634.44V76.7468ZM668.517 76.7468L667.593 77.1273L667.847 77.7468H668.517V76.7468ZM654.752 43.2881L654.749 42.2881L653.262 42.2929L653.828 43.6686L654.752 43.2881ZM670.58 43.2365L671.498 42.8421L671.238 42.2344L670.576 42.2365L670.58 43.2365ZM684.654 76.0251H685.654V75.8195L685.573 75.6306L684.654 76.0251ZM684.654 76.7468V77.7468H685.654V76.7468H684.654ZM634.44 2.68378H658.516V0.683777H634.44V2.68378ZM658.516 2.68378C663.423 2.68378 667.544 3.52429 670.916 5.1611L671.79 3.36189C668.081 1.56174 663.645 0.683777 658.516 0.683777V2.68378ZM670.916 5.1611C674.276 6.79225 676.838 9.19422 678.626 12.3809L680.37 11.4021C678.378 7.85241 675.509 5.16768 671.79 3.36189L670.916 5.1611ZM678.626 12.3809C680.412 15.5633 681.334 19.5427 681.334 24.3677H683.334C683.334 19.2942 682.365 14.9561 680.37 11.4021L678.626 12.3809ZM681.334 24.3677C681.334 28.3376 680.795 31.6817 679.75 34.4256L681.619 35.1376C682.773 32.1075 683.334 28.5089 683.334 24.3677H681.334ZM679.751 34.4219C678.7 37.1492 677.215 39.4091 675.304 41.2224L676.681 42.673C678.826 40.6368 680.469 38.1194 681.617 35.1414L679.751 34.4219ZM675.311 41.2162C673.381 43.015 671.065 44.4641 668.35 45.5568L669.097 47.4122C672.018 46.2365 674.549 44.661 676.675 42.6791L675.311 41.2162ZM668.212 45.6253L663.624 48.3576L664.647 50.076L669.235 47.3436L668.212 45.6253ZM664.135 48.2168H644.596V50.2168H664.135V48.2168ZM645.596 49.2127L645.545 36.685L643.545 36.6933L643.596 49.221L645.596 49.2127ZM644.545 37.6891H658.103V35.6891H644.545V37.6891ZM658.103 37.6891C660.308 37.6891 662.217 37.2109 663.762 36.1808L662.653 34.5167C661.517 35.2738 660.023 35.6891 658.103 35.6891V37.6891ZM663.767 36.1776C665.32 35.1288 666.457 33.6736 667.179 31.8502L665.319 31.1141C664.735 32.5902 663.844 33.7127 662.648 34.5199L663.767 36.1776ZM667.175 31.8601C667.921 30.032 668.28 27.9399 668.28 25.605H666.28C666.28 27.7381 665.952 29.5641 665.323 31.1043L667.175 31.8601ZM668.28 25.605C668.28 23.1515 667.961 21.0004 667.291 19.1767L665.413 19.8664C665.981 21.4109 666.28 23.3154 666.28 25.605H668.28ZM667.299 19.1997C666.656 17.3079 665.591 15.8113 664.081 14.7781L662.952 16.4287C664.054 17.1828 664.88 18.2983 665.405 19.8435L667.299 19.1997ZM664.106 14.7956C662.617 13.7091 660.724 13.2115 658.516 13.2115V15.2115C660.432 15.2115 661.873 15.6419 662.927 16.4112L664.106 14.7956ZM658.516 13.2115H649.545V15.2115H658.516V13.2115ZM648.545 14.2115V76.7468H650.545V14.2115H648.545ZM649.545 75.7468H634.44V77.7468H649.545V75.7468ZM635.44 76.7468V1.68378H633.44V76.7468H635.44ZM669.442 76.3664L655.677 42.9076L653.828 43.6686L667.593 77.1273L669.442 76.3664ZM654.756 44.2881L670.583 44.2365L670.576 42.2365L654.749 42.2881L654.756 44.2881ZM669.661 43.631L683.735 76.4195L685.573 75.6306L671.498 42.8421L669.661 43.631ZM683.654 76.0251V76.7468H685.654V76.0251H683.654ZM684.654 75.7468H668.517V77.7468H684.654V75.7468ZM739.188 51.743V50.743H738.216L738.188 51.7144L739.188 51.743ZM754.19 51.743L755.19 51.7796L755.227 50.743H754.19V51.743ZM750.788 66.0235L751.669 66.4958L751.671 66.4925L750.788 66.0235ZM741.972 74.7878L741.509 73.9015L741.505 73.9032L741.972 74.7878ZM717.174 75.7157L716.774 76.6324L716.783 76.6359L717.174 75.7157ZM703.77 59.4761L702.808 59.7476L702.811 59.7574L703.77 59.4761ZM703.873 19.006L702.917 18.7119L702.915 18.7194L703.873 19.006ZM709.132 8.90138L708.365 8.25931L708.364 8.26024L709.132 8.90138ZM717.432 2.71486L717.824 3.63503L717.828 3.633L717.432 2.71486ZM750.685 12.7164L749.792 13.1667L749.796 13.176L750.685 12.7164ZM754.345 27.1V28.1H755.42L755.342 27.0275L754.345 27.1ZM739.291 27.1L738.292 27.1289L738.32 28.1H739.291V27.1ZM738.054 18.6967L737.105 19.0129L737.108 19.0225L737.112 19.032L738.054 18.6967ZM734.754 14.3661L734.26 15.2356L734.268 15.2399L734.275 15.244L734.754 14.3661ZM723.309 14.1599L723.739 15.0628L723.748 15.0586L723.756 15.0543L723.309 14.1599ZM717.69 23.5944L716.705 23.419L716.703 23.4321L717.69 23.5944ZM717.638 54.6816L716.649 54.8306L716.65 54.8326L717.638 54.6816ZM722.794 64.2191L722.338 65.1092L722.346 65.1136L722.794 64.2191ZM734.393 64.1676L733.962 63.2654L733.954 63.2692L734.393 64.1676ZM739.188 52.743H754.19V50.743H739.188V52.743ZM753.191 51.7064C752.989 57.2333 751.879 61.8365 749.904 65.5546L751.671 66.4925C753.821 62.443 754.979 57.5259 755.19 51.7796L753.191 51.7064ZM749.906 65.5513C747.937 69.2266 745.143 72.0024 741.509 73.9015L742.435 75.6741C746.431 73.5863 749.514 70.5193 751.669 66.4958L749.906 65.5513ZM741.505 73.9032C737.901 75.8039 733.498 76.7779 728.258 76.7779V78.7779C733.742 78.7779 738.482 77.7585 742.438 75.6723L741.505 73.9032ZM728.258 76.7779C724.21 76.7779 720.652 76.1089 717.566 74.7956L716.783 76.6359C720.158 78.0722 723.99 78.7779 728.258 78.7779V76.7779ZM717.574 74.7991C714.486 73.4523 711.862 71.4846 709.693 68.8881L708.158 70.1704C710.526 73.0042 713.401 75.1609 716.774 76.6323L717.574 74.7991ZM709.693 68.8881C707.527 66.2951 705.866 63.0725 704.73 59.1949L702.811 59.7574C704.011 63.8535 705.788 67.3329 708.158 70.1704L709.693 68.8881ZM704.733 59.2047C703.629 55.2906 703.069 50.7623 703.069 45.608H701.069C701.069 50.9021 701.643 55.6192 702.808 59.7476L704.733 59.2047ZM703.069 45.608V32.8741H701.069V45.608H703.069ZM703.069 32.8741C703.069 27.7244 703.662 23.2014 704.831 19.2926L702.915 18.7194C701.679 22.8531 701.069 27.5756 701.069 32.8741H703.069ZM704.829 19.3001C706.034 15.3823 707.731 12.1383 709.899 9.54252L708.364 8.26024C705.996 11.0948 704.187 14.5872 702.917 18.7119L704.829 19.3001ZM709.898 9.54345C712.102 6.91218 714.741 4.94664 717.824 3.63502L717.04 1.79471C713.661 3.23265 710.767 5.39145 708.365 8.25931L709.898 9.54345ZM717.828 3.633C720.951 2.28536 724.491 1.60114 728.465 1.60114V-0.398864C724.259 -0.398864 720.443 0.32606 717.036 1.79672L717.828 3.633ZM728.465 1.60114C733.807 1.60114 738.199 2.60946 741.689 4.56662L742.667 2.82217C738.802 0.654986 734.051 -0.398864 728.465 -0.398864V1.60114ZM741.689 4.56662C745.184 6.52646 747.883 9.38253 749.792 13.1667L751.577 12.2661C749.499 8.14527 746.527 4.98667 742.667 2.82217L741.689 4.56662ZM749.796 13.176C751.747 16.9445 752.942 21.5993 753.348 27.1726L755.342 27.0275C754.923 21.2588 753.678 16.3245 751.573 12.2568L749.796 13.176ZM754.345 26.1H739.291V28.1H754.345V26.1ZM740.291 27.0712C740.186 23.4517 739.768 20.5314 738.996 18.3614L737.112 19.032C737.783 20.9176 738.19 23.5995 738.292 27.1289L740.291 27.0712ZM739.002 18.3805C738.257 16.1438 737.021 14.4636 735.233 13.4882L734.275 15.244C735.512 15.9184 736.476 17.1252 737.105 19.0129L739.002 18.3805ZM735.248 13.4967C733.525 12.5177 731.233 12.0773 728.465 12.0773V14.0773C731.058 14.0773 732.959 14.4961 734.26 15.2356L735.248 13.4967ZM728.465 12.0773C726.352 12.0773 724.473 12.4599 722.862 13.2655L723.756 15.0543C725.032 14.4164 726.591 14.0773 728.465 14.0773V12.0773ZM722.879 13.2571C721.236 14.0396 719.91 15.3035 718.894 16.9964L720.609 18.0254C721.45 16.6252 722.495 15.655 723.739 15.0628L722.879 13.2571ZM718.894 16.9964C717.884 18.6809 717.165 20.8358 716.705 23.419L718.674 23.7697C719.108 21.3349 719.764 19.4342 720.609 18.0254L718.894 16.9964ZM716.703 23.4321C716.279 26.0118 716.071 29.1284 716.071 32.771H718.071C718.071 29.196 718.276 26.1949 718.677 23.7566L716.703 23.4321ZM716.071 32.771V45.608H718.071V32.771H716.071ZM716.071 45.608C716.071 49.1801 716.262 52.2573 716.649 54.8306L718.627 54.5326C718.259 52.0879 718.071 49.1161 718.071 45.608H716.071ZM716.65 54.8326C717.038 57.3756 717.664 59.5184 718.556 61.2276L720.329 60.3024C719.571 58.8496 718.994 56.9368 718.627 54.5306L716.65 54.8326ZM718.556 61.2276C719.464 62.9681 720.721 64.2813 722.338 65.1092L723.25 63.3291C722.048 62.7135 721.071 61.7239 720.329 60.3024L718.556 61.2276ZM722.346 65.1136C723.97 65.9252 725.957 66.3018 728.258 66.3018V64.3018C726.161 64.3018 724.505 63.9565 723.241 63.3247L722.346 65.1136ZM728.258 66.3018C730.887 66.3018 733.1 65.9131 734.833 65.066L733.954 63.2692C732.594 63.9343 730.716 64.3018 728.258 64.3018V66.3018ZM734.825 65.0697C736.68 64.1823 738.003 62.6019 738.832 60.4549L736.966 59.7347C736.283 61.5058 735.268 62.6406 733.962 63.2654L734.825 65.0697ZM738.832 60.4549C739.648 58.3402 740.083 55.4244 740.188 51.7716L738.188 51.7144C738.086 55.2791 737.662 57.9312 736.966 59.7347L738.832 60.4549ZM817.231 64.2707H818.231V63.2707H817.231V64.2707ZM817.231 76.7468V77.7468H818.231V76.7468H817.231ZM784.597 76.7468H783.597V77.7468H784.597V76.7468ZM784.597 64.2707V63.2707H783.597V64.2707H784.597ZM789.288 1.68378H790.288V0.683777H789.288V1.68378ZM789.288 76.7468V77.7468H790.288V76.7468H789.288ZM774.183 76.7468H773.183V77.7468H774.183V76.7468ZM774.183 1.68378V0.683777H773.183V1.68378H774.183ZM812.849 32.1008H813.849V31.1008H812.849V32.1008ZM812.849 44.2161V45.2161H813.849V44.2161H812.849ZM784.597 44.2161H783.597V45.2161H784.597V44.2161ZM784.597 32.1008V31.1008H783.597V32.1008H784.597ZM817.128 1.68378H818.128V0.683777H817.128V1.68378ZM817.128 14.2115V15.2115H818.128V14.2115H817.128ZM784.597 14.2115H783.597V15.2115H784.597V14.2115ZM784.597 1.68378V0.683777H783.597V1.68378H784.597ZM816.231 64.2707V76.7468H818.231V64.2707H816.231ZM817.231 75.7468H784.597V77.7468H817.231V75.7468ZM785.597 76.7468V64.2707H783.597V76.7468H785.597ZM784.597 65.2707H817.231V63.2707H784.597V65.2707ZM788.288 1.68378V76.7468H790.288V1.68378H788.288ZM789.288 75.7468H774.183V77.7468H789.288V75.7468ZM775.183 76.7468V1.68378H773.183V76.7468H775.183ZM774.183 2.68378H789.288V0.683777H774.183V2.68378ZM811.849 32.1008V44.2161H813.849V32.1008H811.849ZM812.849 43.2161H784.597V45.2161H812.849V43.2161ZM785.597 44.2161V32.1008H783.597V44.2161H785.597ZM784.597 33.1008H812.849V31.1008H784.597V33.1008ZM816.128 1.68378V14.2115H818.128V1.68378H816.128ZM817.128 13.2115H784.597V15.2115H817.128V13.2115ZM785.597 14.2115V1.68378H783.597V14.2115H785.597ZM784.597 2.68378H817.128V0.683777H784.597V2.68378ZM866.455 50.2995L865.68 50.9311L865.687 50.9396L865.694 50.9479L866.455 50.2995ZM863.104 47.5155L862.563 48.3568L862.572 48.3624L863.104 47.5155ZM857.433 44.6285L857.825 43.7086L857.82 43.7064L857.433 44.6285ZM849.339 40.9166L848.882 41.8063L848.892 41.811L849.339 40.9166ZM837.275 30.0902L836.381 30.5374L836.385 30.5451L836.389 30.5528L837.275 30.0902ZM837.172 13.0257L836.261 12.6128L836.257 12.623L837.172 13.0257ZM842.121 6.42677L842.771 7.18692L842.778 7.18085L842.121 6.42677ZM849.597 2.14777L849.27 1.20251L849.267 1.20373L849.597 2.14777ZM871.713 3.64284L871.219 4.51214L871.223 4.51419L871.713 3.64284ZM879.911 11.84L879.036 12.3249L879.04 12.3315L879.911 11.84ZM882.849 23.8006V24.8006H883.849V23.8006H882.849ZM867.795 23.8006H866.795V24.8006H867.795V23.8006ZM866.867 18.1811L865.925 18.515L865.929 18.527L865.933 18.5388L866.867 18.1811ZM854.185 14.1084L854.706 14.9617L854.713 14.9576L854.185 14.1084ZM851.401 17.2532L850.493 16.8341L850.488 16.8448L851.401 17.2532ZM851.401 25.0379L850.538 25.5436L850.549 25.5613L850.56 25.5786L851.401 25.0379ZM853.927 27.6671L853.331 28.4702L853.34 28.4765L853.348 28.4826L853.927 27.6671ZM857.691 29.884L857.243 30.7784L857.252 30.7825L857.691 29.884ZM862.537 31.9977L862.903 31.0673L862.902 31.0667L862.537 31.9977ZM871.559 36.4314L871.033 37.2819L871.041 37.2869L871.559 36.4314ZM878.106 41.793L877.355 42.4534L877.361 42.4598L878.106 41.793ZM881.767 65.4564L880.847 65.064L880.844 65.0701L881.767 65.4564ZM877.075 72.0554L877.737 72.8049L877.744 72.7987L877.075 72.0554ZM869.6 76.2828L869.277 75.3364L869.273 75.3376L869.6 76.2828ZM850.061 76.3344L849.754 77.2862L849.764 77.2892L850.061 76.3344ZM841.863 71.8492L841.208 72.6045L841.214 72.6096L841.22 72.6147L841.863 71.8492ZM836.347 64.1676L835.428 64.5615L835.43 64.5652L836.347 64.1676ZM834.337 53.0834V52.0834H833.337V53.0834H834.337ZM849.442 53.0834H850.442V52.0834H849.442V53.0834ZM850.112 58.909L849.148 59.1756L849.15 59.181L850.112 58.909ZM852.174 62.7241L851.455 63.4182L851.461 63.4247L851.467 63.4312L852.174 62.7241ZM855.577 64.8378L855.239 65.779L855.253 65.7841L855.268 65.7888L855.577 64.8378ZM865.011 64.3738L864.479 63.5271L864.468 63.5342L865.011 64.3738ZM869.362 57.0015C869.362 55.6024 869.237 54.3093 868.978 53.1275L867.025 53.5549C867.247 54.5727 867.362 55.7198 867.362 57.0015H869.362ZM868.978 53.1275C868.7 51.8541 868.104 50.6934 867.216 49.651L865.694 50.9479C866.387 51.7615 866.822 52.6286 867.025 53.5549L868.978 53.1275ZM867.23 49.6678C866.381 48.6262 865.167 47.6305 863.636 46.6687L862.572 48.3624C863.996 49.2565 865.016 50.1168 865.68 50.9311L867.23 49.6678ZM863.645 46.6744C862.137 45.7054 860.192 44.718 857.825 43.7087L857.041 45.5483C859.348 46.5325 861.183 47.4698 862.563 48.3567L863.645 46.6744ZM857.82 43.7064C855.056 42.5461 852.378 41.318 849.786 40.0222L848.892 41.811C851.524 43.1273 854.242 44.3737 857.046 45.5506L857.82 43.7064ZM849.795 40.0269C847.244 38.7178 844.953 37.2114 842.917 35.5095L841.635 37.0439C843.792 38.8477 846.209 40.4345 848.882 41.8063L849.795 40.0269ZM842.917 35.5095C840.92 33.8392 839.337 31.8799 838.162 29.6276L836.389 30.5528C837.688 33.0435 839.439 35.2085 841.635 37.0439L842.917 35.5095ZM838.17 29.643C837.049 27.4012 836.471 24.7417 836.471 21.6353H834.471C834.471 24.9904 835.096 27.9675 836.381 30.5374L838.17 29.643ZM836.471 21.6353C836.471 18.5949 837.016 15.8645 838.087 13.4285L836.257 12.623C835.06 15.3423 834.471 18.3517 834.471 21.6353H836.471ZM838.083 13.4386C839.191 10.993 840.753 8.91232 842.771 7.18689L841.471 5.66665C839.228 7.5844 837.49 9.90297 836.261 12.6128L838.083 13.4386ZM842.778 7.18085C844.807 5.41409 847.185 4.0495 849.926 3.0918L849.267 1.20373C846.302 2.23946 843.698 3.72755 841.464 5.67269L842.778 7.18085ZM849.923 3.09302C852.69 2.1378 855.791 1.65269 859.237 1.65269V-0.347309C855.603 -0.347309 852.278 0.164299 849.27 1.20251L849.923 3.09302ZM859.237 1.65269C863.909 1.65269 867.891 2.61954 871.219 4.51213L872.208 2.77355C868.525 0.679276 864.189 -0.347309 859.237 -0.347309V1.65269ZM871.223 4.51419C874.606 6.41907 877.203 9.01939 879.036 12.3249L880.785 11.3551C878.768 7.71791 875.901 4.85348 872.204 2.77149L871.223 4.51419ZM879.04 12.3315C880.904 15.6342 881.849 19.4477 881.849 23.8006H883.849C883.849 19.1486 882.836 14.9884 880.781 11.3485L879.04 12.3315ZM882.849 22.8006H867.795V24.8006H882.849V22.8006ZM868.795 23.8006C868.795 21.5748 868.472 19.5761 867.801 17.8235L865.933 18.5388C866.5 20.0169 866.795 21.7645 866.795 23.8006H868.795ZM867.81 17.8473C867.164 16.0224 866.1 14.5577 864.611 13.4994L863.453 15.1298C864.575 15.9275 865.402 17.0405 865.925 18.515L867.81 17.8473ZM864.611 13.4994C863.093 12.4208 861.19 11.9226 858.979 11.9226V13.9226C860.894 13.9226 862.359 14.3524 863.453 15.1298L864.611 13.4994ZM858.979 11.9226C856.921 11.9226 855.127 12.3456 853.657 13.2591L854.713 14.9576C855.787 14.2901 857.189 13.9226 858.979 13.9226V11.9226ZM853.664 13.2551C852.254 14.1165 851.193 15.3173 850.493 16.8341L852.309 17.6722C852.846 16.5082 853.641 15.6125 854.706 14.9616L853.664 13.2551ZM850.488 16.8448C849.838 18.2975 849.525 19.9178 849.525 21.6868H851.525C851.525 20.1564 851.795 18.8209 852.314 17.6615L850.488 16.8448ZM849.525 21.6868C849.525 23.0889 849.858 24.3826 850.538 25.5436L852.264 24.5322C851.776 23.6997 851.525 22.7594 851.525 21.6868H849.525ZM850.56 25.5786C851.253 26.6573 852.184 27.6191 853.331 28.4702L854.523 26.864C853.539 26.1342 852.786 25.3431 852.242 24.4971L850.56 25.5786ZM853.348 28.4826C854.464 29.2743 855.764 30.0388 857.243 30.7784L858.138 28.9895C856.73 28.2856 855.521 27.5722 854.506 26.8516L853.348 28.4826ZM857.252 30.7825C858.757 31.5176 860.397 32.2328 862.172 32.9287L862.902 31.0667C861.171 30.3878 859.58 29.6938 858.13 28.9854L857.252 30.7825ZM862.17 32.9281C865.528 34.2507 868.48 35.7031 871.033 37.2819L872.085 35.5809C869.414 33.9289 866.351 32.4255 862.903 31.0673L862.17 32.9281ZM871.041 37.2869C873.579 38.8228 875.679 40.547 877.355 42.4534L878.857 41.1327C877.028 39.0522 874.763 37.2019 872.077 35.5759L871.041 37.2869ZM877.361 42.4598C879.028 44.3233 880.285 46.429 881.135 48.7832L883.016 48.1039C882.079 45.5088 880.69 43.1809 878.851 41.1262L877.361 42.4598ZM881.135 48.7832C881.983 51.1294 882.416 53.8295 882.416 56.8984H884.416C884.416 53.6433 883.956 50.7069 883.016 48.1039L881.135 48.7832ZM882.416 56.8984C882.416 59.9068 881.888 62.624 880.847 65.064L882.686 65.8489C883.845 63.1335 884.416 60.1453 884.416 56.8984H882.416ZM880.844 65.0701C879.836 67.4763 878.359 69.5543 876.406 71.3121L877.744 72.7987C879.915 70.8446 881.566 68.5232 882.689 65.8428L880.844 65.0701ZM876.413 71.3059C874.461 73.0301 872.089 74.3771 869.277 75.3364L869.923 77.2293C872.954 76.1951 875.565 74.7239 877.737 72.8049L876.413 71.3059ZM869.273 75.3376C866.507 76.2925 863.389 76.7779 859.907 76.7779V78.7779C863.574 78.7779 866.918 78.2666 869.926 77.2281L869.273 75.3376ZM859.907 76.7779C856.53 76.7779 853.348 76.3099 850.358 75.3795L849.764 77.2892C852.96 78.2836 856.343 78.7779 859.907 78.7779V76.7779ZM850.367 75.3826C847.391 74.4236 844.774 72.9897 842.507 71.0837L841.22 72.6147C843.695 74.6955 846.544 76.2517 849.754 77.2862L850.367 75.3826ZM842.519 71.0938C840.305 69.1727 838.551 66.7384 837.265 63.77L835.43 64.5652C836.824 67.7833 838.748 70.47 841.208 72.6045L842.519 71.0938ZM837.266 63.7737C835.991 60.7977 835.337 57.2429 835.337 53.0834H833.337C833.337 57.4476 834.023 61.2822 835.428 64.5615L837.266 63.7737ZM834.337 54.0834H849.442V52.0834H834.337V54.0834ZM848.442 53.0834C848.442 55.4124 848.671 57.449 849.148 59.1756L851.076 58.6425C850.66 57.1384 850.442 55.2912 850.442 53.0834H848.442ZM849.15 59.181C849.631 60.8847 850.389 62.3131 851.455 63.4182L852.894 62.0299C852.104 61.2104 851.487 60.0954 851.074 58.6371L849.15 59.181ZM851.467 63.4312C852.508 64.4721 853.772 65.2523 855.239 65.779L855.915 63.8966C854.701 63.4609 853.696 62.832 852.881 62.017L851.467 63.4312ZM855.268 65.7888C856.761 66.2741 858.432 66.508 860.268 66.508V64.508C858.599 64.508 857.142 64.2951 855.886 63.8867L855.268 65.7888ZM860.268 66.508C862.375 66.508 864.168 66.1103 865.555 65.2134L864.468 63.5342C863.517 64.1496 862.148 64.508 860.268 64.508V66.508ZM865.544 65.2204C866.917 64.3568 867.919 63.1812 868.516 61.7078L866.662 60.9564C866.229 62.0263 865.511 62.8785 864.479 63.5272L865.544 65.2204ZM868.516 61.7078C869.088 60.2976 869.362 58.7232 869.362 57.0015H867.362C867.362 58.5106 867.122 59.8232 866.662 60.9564L868.516 61.7078Z" fill="white"/>
</svg>
